<?xml version="1.0" encoding="UTF-8"?>
<svg width="97px" height="30px" viewBox="0 0 97 30" version="1.1" xmlns="http://www.w3.org/2000/svg" xmlns:xlink="http://www.w3.org/1999/xlink">
    <!-- Generator: Sketch 50.2 (55047) - http://www.bohemiancoding.com/sketch -->
    <title>spid-idp-intesaid</title>
    <desc>Created with Sketch.</desc>
    <defs></defs>
    <g id="Page-1" stroke="none" stroke-width="1" fill="none" fill-rule="evenodd">
        <g id="spid-idp-intesaid" fill-rule="nonzero">
            <circle id="Oval" fill="#F47B3F" cx="81.9847328" cy="14.9083969" r="14.9083969"></circle>
            <g id="Group" transform="translate(73.053435, 8.244275)" fill="#FFFFFF">
                <polygon id="Shape" points="0.13740458 13.3282443 0.13740458 0.0916030534 2.26717557 0.0916030534 2.26717557 13.3282443 0.13740458 13.3282443"></polygon>
                <path d="M13.9007634,12.9160305 C12.8244275,13.2137405 11.610687,13.3282443 10.1221374,13.3282443 L5.88549618,13.3282443 L5.88549618,0.0916030534 L10.8549618,0.0916030534 C12.0916031,0.0916030534 13.1450382,0.183206107 14.0839695,0.41221374 C17.1526718,1.14503817 19.1908397,3.13740458 19.1908397,6.50381679 C19.1679389,9.87022901 17.0839695,12.0229008 13.9007634,12.9160305 Z M13.5114504,2.29007634 C12.6641221,2.0610687 11.7251908,2.01526718 10.5801527,2.01526718 L8.01526718,2.01526718 L8.01526718,11.4274809 L10.0763359,11.4274809 C11.3816794,11.4274809 12.4580153,11.3129771 13.3969466,11.0381679 C15.5954198,10.3969466 16.9465649,8.95419847 16.9465649,6.50381679 C16.9465649,4.03053435 15.5267176,2.81679389 13.5114504,2.29007634 Z" id="Shape"></path>
            </g>
            <g id="Group" transform="translate(0.000000, 7.328244)" fill="#137AB9">
                <path d="M4.41984733,14.3587786 C3,14.3587786 2.0610687,13.6946565 2.0610687,12.2061069 L2.0610687,6.36641221 L0,6.36641221 L0,4.53435115 L4.14503817,4.53435115 L4.14503817,11.8625954 C4.14503817,12.2748092 4.39694656,12.4580153 4.85496183,12.4580153 C5.08396947,12.4580153 5.42748092,12.4122137 5.70229008,12.3435115 L6.11450382,14.1068702 C5.51908397,14.2671756 4.99236641,14.3587786 4.41984733,14.3587786 Z M3.06870229,2.86259542 C2.29007634,2.86259542 1.67175573,2.29007634 1.67175573,1.48854962 C1.67175573,0.687022901 2.29007634,0.114503817 3.06870229,0.114503817 C3.84732824,0.114503817 4.46564885,0.687022901 4.46564885,1.48854962 C4.46564885,2.29007634 3.84732824,2.86259542 3.06870229,2.86259542 Z" id="Shape"></path>
                <path d="M19.0534351,14.3587786 C17.6335878,14.3587786 16.6946565,13.6946565 16.6946565,12.2061069 L16.6946565,8.01526718 C16.6946565,6.89312977 16.351145,6.16030534 15.1145038,6.16030534 C13.2366412,6.16030534 11.610687,8.29007634 11.0152672,10.648855 C10.7633588,11.6564885 10.7175573,12.4580153 10.7175573,13.3053435 L10.7175573,14.2442748 L8.63358779,14.2442748 L8.63358779,6.36641221 L6.50381679,6.36641221 L6.50381679,4.53435115 L10.7175573,4.53435115 L10.7175573,7.48854962 L10.7633588,7.48854962 C11.6793893,5.65648855 13.259542,4.28244275 15.4351145,4.28244275 C17.5648855,4.28244275 18.778626,5.45038168 18.778626,7.69465649 L18.778626,11.8625954 C18.778626,12.2748092 19.0305344,12.4580153 19.4885496,12.4580153 C19.7175573,12.4580153 20.0610687,12.4122137 20.3358779,12.3435115 L20.7480916,14.1068702 C20.1755725,14.2671756 19.648855,14.3587786 19.0534351,14.3587786 Z" id="Shape"></path>
                <path d="M26.6335878,14.4503817 C25.0763359,14.4503817 23.5877863,13.7175573 23.5877863,11.5648855 L23.5877863,6.36641221 L20.9770992,6.36641221 L20.9770992,4.53435115 L23.5877863,4.53435115 L23.5877863,2.08396947 L25.6717557,2.08396947 L25.6717557,4.53435115 L29.2900763,4.53435115 L29.2900763,6.36641221 L25.6717557,6.36641221 L25.6717557,11.1526718 C25.6717557,12.2519084 26.2442748,12.5496183 27.0229008,12.5496183 C27.7557252,12.5496183 28.4656489,12.2748092 29.129771,11.9083969 L29.9083969,13.5572519 C29.0152672,14.0381679 28.0076336,14.4503817 26.6335878,14.4503817 Z" id="Shape"></path>
                <path d="M35.519084,10.3053435 C34.7862595,10.3053435 33.9847328,10.2824427 33.2977099,10.2137405 C33.389313,11.7480916 34.6717557,12.5496183 36.5496183,12.5496183 C37.8778626,12.5496183 38.7938931,12.2748092 39.870229,11.8167939 L40.5343511,13.5114504 C39.3435115,14.0839695 38.0610687,14.4503817 36.3206107,14.4503817 C33.0916031,14.4503817 31.0076336,12.5496183 31.0076336,9.57251908 C31.0076336,6.2519084 33.3664122,4.25954198 36.6183206,4.25954198 C38.8167939,4.25954198 40.7633588,5.19847328 40.7633588,7.21374046 C40.7633588,9.16030534 38.9541985,10.3053435 35.519084,10.3053435 Z M36.6412214,6.18320611 C34.9694656,6.18320611 33.7099237,6.91603053 33.389313,8.38167939 C34.0534351,8.47328244 34.7862595,8.47328244 35.4274809,8.47328244 C37.9236641,8.47328244 38.5877863,7.78625954 38.5877863,7.16793893 C38.5648855,6.52671756 37.7862595,6.18320611 36.6412214,6.18320611 Z" id="Shape"></path>
                <path d="M46.8091603,14.4503817 C45.1145038,14.4503817 43.5114504,14.0381679 42.3664122,13.3740458 L43.2137405,11.6564885 C44.1526718,12.1832061 45.3206107,12.5496183 46.740458,12.5496183 C47.8625954,12.5496183 49.0076336,12.3206107 49.0076336,11.4045802 C49.0076336,11.221374 48.9389313,11.0610687 48.8473282,10.9465649 C48,9.98473282 44.3587786,10.648855 43.2137405,8.7480916 C42.9847328,8.38167939 42.8473282,7.90076336 42.8473282,7.32824427 C42.8473282,5.29007634 44.5648855,4.28244275 46.740458,4.28244275 C48.1832061,4.28244275 49.6030534,4.60305344 51.0687023,5.19847328 L50.3587786,6.91603053 C49.0076336,6.41221374 48.0229008,6.18320611 46.8320611,6.18320611 C45.5954198,6.18320611 45.0458015,6.59541985 45.0458015,7.21374046 C45.0458015,7.39694656 45.0916031,7.53435115 45.1603053,7.64885496 C45.8244275,8.72519084 49.1679389,8.12977099 50.5877863,9.52671756 C50.9770992,9.91603053 51.2061069,10.4427481 51.2061069,11.2442748 C51.2061069,13.6030534 49.1221374,14.4503817 46.8091603,14.4503817 Z" id="Shape"></path>
                <path d="M63.1832061,14.3587786 C62.0610687,14.3587786 61.0305344,13.9007634 60.8473282,12.4580153 C60.8244275,12.2977099 60.8015267,12.1145038 60.8015267,11.9083969 L60.7557252,11.9083969 C59.9312977,13.4885496 58.4885496,14.4503817 56.6335878,14.4503817 C54.6412214,14.4503817 52.7862595,13.1221374 52.7862595,10.2366412 C52.7862595,8.19847328 53.6564885,6.50381679 55.2137405,5.45038168 C56.3129771,4.71755725 57.7557252,4.25954198 59.8396947,4.25954198 C60.7328244,4.25954198 61.9465649,4.35114504 62.7938931,4.46564885 L62.7938931,11.7251908 C62.7938931,12.1832061 63.0458015,12.4580153 63.5496183,12.4580153 C63.7099237,12.4580153 64.0534351,12.4122137 64.3282443,12.3435115 L64.740458,14.1068702 C64.2137405,14.2671756 63.6870229,14.3587786 63.1832061,14.3587786 Z M60.7328244,6.22900763 C60.3206107,6.18320611 60,6.16030534 59.5419847,6.16030534 C58.259542,6.16030534 57.2061069,6.48091603 56.4503817,7.05343511 C55.5343511,7.76335878 55.0076336,8.83969466 55.0076336,10.1221374 C55.0076336,11.7022901 55.7862595,12.5038168 56.9312977,12.5038168 C58.6717557,12.5038168 60.7328244,10.6259542 60.7328244,6.38931298 L60.7328244,6.22900763 Z" id="Shape"></path>
            </g>
        </g>
    </g>
</svg>