<?xml version="1.0" encoding="UTF-8"?>
<svg width="107px" height="30px" viewBox="0 0 107 30" version="1.1" xmlns="http://www.w3.org/2000/svg" xmlns:xlink="http://www.w3.org/1999/xlink">
    <!-- Generator: Sketch 50.2 (55047) - http://www.bohemiancoding.com/sketch -->
    <title>spid-idp-posteid</title>
    <desc>Created with Sketch.</desc>
    <defs></defs>
    <g id="Page-1" stroke="none" stroke-width="1" fill="none" fill-rule="evenodd">
        <g id="spid-idp-posteid" fill-rule="nonzero">
            <g id="Group" transform="translate(76.567164, 3.805970)" fill="#0047BB">
                <polygon id="Shape" points="5.37313433 7.09701493 4.76865672 7.09701493 0.671641791 1.18656716 0.649253731 1.18656716 0.649253731 7.09701493 0.0447761194 7.09701493 0.0447761194 0.201492537 0.649253731 0.201492537 4.74626866 6.08955224 4.76865672 6.08955224 4.76865672 0.201492537 5.37313433 0.201492537"></polygon>
                <path d="M11.7089552,0.201492537 L11.7089552,4.79104478 C11.7089552,5.55223881 11.4626866,6.13432836 10.9701493,6.55970149 C10.4776119,6.98507463 9.85074627,7.20895522 9.08955224,7.20895522 C8.32835821,7.20895522 7.7238806,6.98507463 7.23134328,6.55970149 C6.76119403,6.13432836 6.51492537,5.52985075 6.51492537,4.79104478 L6.51492537,0.201492537 L7.11940299,0.201492537 L7.11940299,4.79104478 C7.11940299,5.39552239 7.29850746,5.86567164 7.67910448,6.20149254 C8.03731343,6.55970149 8.52985075,6.71641791 9.08955224,6.71641791 C9.67164179,6.71641791 10.1641791,6.53731343 10.5447761,6.20149254 C10.9253731,5.84328358 11.1044776,5.37313433 11.1044776,4.79104478 L11.1044776,0.201492537 L11.7089552,0.201492537 Z" id="Shape"></path>
                <path d="M18.1343284,4.20895522 C18.1343284,5.10447761 17.8880597,5.82089552 17.3731343,6.38059701 C16.858209,6.94029851 16.1641791,7.20895522 15.3134328,7.20895522 C14.4626866,7.20895522 13.7910448,6.94029851 13.2761194,6.38059701 C12.761194,5.82089552 12.5149254,5.10447761 12.5149254,4.20895522 L12.5149254,3.08955224 C12.5149254,2.19402985 12.761194,1.47761194 13.2761194,0.917910448 C13.7686567,0.358208955 14.4626866,0.0895522388 15.3134328,0.0895522388 C16.1641791,0.0895522388 16.858209,0.358208955 17.3731343,0.917910448 C17.8880597,1.47761194 18.1343284,2.19402985 18.1343284,3.08955224 L18.1343284,4.20895522 Z M17.5522388,3.06716418 C17.5522388,2.32835821 17.3507463,1.7238806 16.9477612,1.2761194 C16.5447761,0.828358209 16.0074627,0.582089552 15.2910448,0.582089552 C14.5970149,0.582089552 14.0597015,0.805970149 13.6791045,1.2761194 C13.2985075,1.7238806 13.0970149,2.32835821 13.0970149,3.06716418 L13.0970149,4.20895522 C13.0970149,4.97014925 13.2985075,5.57462687 13.6791045,6.02238806 C14.0597015,6.47014925 14.5970149,6.69402985 15.2910448,6.69402985 C16.0074627,6.69402985 16.5447761,6.47014925 16.9477612,6.02238806 C17.3507463,5.57462687 17.5298507,4.97014925 17.5298507,4.20895522 L17.5298507,3.06716418 L17.5522388,3.06716418 Z" id="Shape"></path>
                <polygon id="Shape" points="21 5.8880597 21.1343284 6.38059701 21.1567164 6.38059701 21.2910448 5.8880597 23.4626866 0.201492537 24.1119403 0.201492537 21.4253731 7.09701493 20.8656716 7.09701493 18.1791045 0.201492537 18.8283582 0.201492537"></polygon>
                <path d="M29.8208955,4.20895522 C29.8208955,5.10447761 29.5746269,5.82089552 29.0597015,6.38059701 C28.5447761,6.94029851 27.8507463,7.20895522 27,7.20895522 C26.1492537,7.20895522 25.4776119,6.94029851 24.9626866,6.38059701 C24.4477612,5.82089552 24.2014925,5.10447761 24.2014925,4.20895522 L24.2014925,3.08955224 C24.2014925,2.19402985 24.4477612,1.47761194 24.9626866,0.917910448 C25.4552239,0.358208955 26.1492537,0.0895522388 27,0.0895522388 C27.8507463,0.0895522388 28.5447761,0.358208955 29.0597015,0.917910448 C29.5746269,1.47761194 29.8208955,2.19402985 29.8208955,3.08955224 L29.8208955,4.20895522 Z M29.238806,3.06716418 C29.238806,2.32835821 29.0373134,1.7238806 28.6343284,1.2761194 C28.2313433,0.828358209 27.6940299,0.582089552 26.9776119,0.582089552 C26.2835821,0.582089552 25.7462687,0.805970149 25.3656716,1.2761194 C24.9850746,1.7238806 24.7835821,2.32835821 24.7835821,3.06716418 L24.7835821,4.20895522 C24.7835821,4.97014925 24.9850746,5.57462687 25.3656716,6.02238806 C25.7462687,6.47014925 26.2835821,6.69402985 26.9776119,6.69402985 C27.6940299,6.69402985 28.2313433,6.47014925 28.6343284,6.02238806 C29.0373134,5.57462687 29.2164179,4.97014925 29.2164179,4.20895522 L29.2164179,3.06716418 L29.238806,3.06716418 Z" id="Shape"></path>
            </g>
            <g id="Group" transform="translate(77.014925, 12.985075)" fill="#0047BB">
                <path d="M2.32835821,3.20149254 L1.18656716,3.20149254 L0.962686567,3.91791045 L0.0223880597,3.91791045 L1.2761194,0.246268657 L1.74626866,0.246268657 L2.21641791,0.246268657 L3.47014925,3.91791045 L2.52985075,3.91791045 L2.32835821,3.20149254 Z M1.3880597,2.55223881 L2.12686567,2.55223881 L1.76865672,1.41044776 L1.74626866,1.41044776 L1.3880597,2.55223881 Z" id="Shape"></path>
                <path d="M3.78358209,3.91791045 L3.78358209,0.246268657 L5.03731343,0.246268657 C5.50746269,0.246268657 5.8880597,0.335820896 6.15671642,0.492537313 C6.42537313,0.671641791 6.55970149,0.917910448 6.55970149,1.25373134 C6.55970149,1.43283582 6.51492537,1.58955224 6.42537313,1.7238806 C6.3358209,1.85820896 6.20149254,1.97014925 6.02238806,2.03731343 C6.24626866,2.08208955 6.42537313,2.17164179 6.53731343,2.32835821 C6.64925373,2.48507463 6.69402985,2.64179104 6.69402985,2.84328358 C6.69402985,3.20149254 6.55970149,3.47014925 6.31343284,3.64925373 C6.06716418,3.82835821 5.70895522,3.91791045 5.21641791,3.91791045 L3.78358209,3.91791045 Z M4.67910448,1.76865672 L5.03731343,1.76865672 C5.26119403,1.76865672 5.41791045,1.7238806 5.52985075,1.65671642 C5.64179104,1.58955224 5.68656716,1.47761194 5.68656716,1.34328358 C5.68656716,1.18656716 5.64179104,1.07462687 5.52985075,1.00746269 C5.41791045,0.940298507 5.26119403,0.895522388 5.05970149,0.895522388 L4.70149254,0.895522388 L4.70149254,1.76865672 L4.67910448,1.76865672 Z M4.67910448,2.35074627 L4.67910448,3.26865672 L5.26119403,3.26865672 C5.46268657,3.26865672 5.59701493,3.2238806 5.68656716,3.15671642 C5.7761194,3.08955224 5.82089552,2.97761194 5.82089552,2.82089552 C5.82089552,2.6641791 5.7761194,2.55223881 5.68656716,2.46268657 C5.59701493,2.37313433 5.46268657,2.32835821 5.26119403,2.32835821 L5.23880597,2.32835821 L4.67910448,2.32835821 L4.67910448,2.35074627 Z" id="Shape"></path>
                <polygon id="Shape" points="8.19402985 3.91791045 7.29850746 3.91791045 7.29850746 0.246268657 8.19402985 0.246268657"></polygon>
                <polygon id="Shape" points="9.76119403 3.26865672 11.4179104 3.26865672 11.4179104 3.91791045 8.86567164 3.91791045 8.86567164 0.246268657 9.76119403 0.246268657"></polygon>
                <polygon id="Shape" points="12.8283582 3.91791045 11.9328358 3.91791045 11.9328358 0.246268657 12.8283582 0.246268657"></polygon>
                <polygon id="Shape" points="16.119403 0.895522388 15.0895522 0.895522388 15.0895522 3.91791045 14.1940299 3.91791045 14.1940299 0.895522388 13.1865672 0.895522388 13.1865672 0.246268657 16.0970149 0.246268657 16.0970149 0.895522388"></polygon>
                <path d="M18.2014925,3.20149254 L17.0597015,3.20149254 L16.8358209,3.91791045 L15.8955224,3.91791045 L17.1492537,0.246268657 L17.619403,0.246268657 L18.0895522,0.246268657 L19.3432836,3.91791045 L18.4029851,3.91791045 L18.2014925,3.20149254 Z M17.261194,2.55223881 L18,2.55223881 L17.641791,1.41044776 L17.619403,1.41044776 L17.261194,2.55223881 Z" id="Shape"></path>
                <polygon id="Shape" points="22.0970149 0.895522388 21.0671642 0.895522388 21.0671642 3.91791045 20.1716418 3.91791045 20.1716418 0.895522388 19.1641791 0.895522388 19.1641791 0.246268657 22.0746269 0.246268657 22.0746269 0.895522388"></polygon>
                <path d="M25.5895522,2.41791045 C25.5895522,2.86567164 25.4328358,3.24626866 25.141791,3.53731343 C24.8507463,3.82835821 24.4477612,3.98507463 23.9552239,3.98507463 C23.4626866,3.98507463 23.0597015,3.82835821 22.7686567,3.53731343 C22.4552239,3.24626866 22.3208955,2.86567164 22.3208955,2.41791045 L22.3208955,1.74626866 C22.3208955,1.29850746 22.4776119,0.917910448 22.7686567,0.626865672 C23.0820896,0.335820896 23.4626866,0.179104478 23.9552239,0.179104478 C24.4477612,0.179104478 24.8283582,0.335820896 25.141791,0.626865672 C25.4552239,0.917910448 25.5895522,1.29850746 25.5895522,1.74626866 L25.5895522,2.41791045 Z M24.6940299,1.74626866 C24.6940299,1.47761194 24.6268657,1.2761194 24.4925373,1.09701493 C24.358209,0.917910448 24.1791045,0.850746269 23.9328358,0.850746269 C23.6865672,0.850746269 23.5074627,0.940298507 23.3731343,1.09701493 C23.238806,1.25373134 23.1716418,1.47761194 23.1716418,1.74626866 L23.1716418,2.41791045 C23.1716418,2.68656716 23.238806,2.91044776 23.3731343,3.06716418 C23.5074627,3.24626866 23.6865672,3.31343284 23.9328358,3.31343284 C24.1567164,3.31343284 24.358209,3.2238806 24.4701493,3.06716418 C24.6044776,2.8880597 24.6716418,2.68656716 24.6716418,2.41791045 L24.6716418,1.74626866 L24.6940299,1.74626866 Z" id="Shape"></path>
            </g>
            <g id="Logo_Spid_Ufficiale" transform="translate(76.567164, 15.895522)" fill="#0047BB">
                <path d="M6.17910448,5.05970149 C4.88059701,4.90298507 3.96268657,4.81343284 3.44776119,4.81343284 C2.93283582,4.81343284 2.59701493,4.85820896 2.44029851,4.94776119 C2.28358209,5.03731343 2.21641791,5.17164179 2.21641791,5.37313433 C2.21641791,5.57462687 2.32835821,5.70895522 2.52985075,5.7761194 C2.73134328,5.84328358 3.24626866,5.95522388 4.09701493,6.1119403 C4.94776119,6.24626866 5.52985075,6.49253731 5.8880597,6.82835821 C6.24626866,7.1641791 6.42537313,7.70149254 6.42537313,8.44029851 C6.42537313,10.0522388 5.37313433,10.858209 3.26865672,10.858209 C2.57462687,10.858209 1.74626866,10.7686567 0.76119403,10.5895522 L0.268656716,10.5 L0.335820896,8.82089552 C1.63432836,8.97761194 2.52985075,9.06716418 3.04477612,9.06716418 C3.55970149,9.06716418 3.89552239,9.02238806 4.07462687,8.93283582 C4.25373134,8.84328358 4.34328358,8.68656716 4.34328358,8.50746269 C4.34328358,8.32835821 4.25373134,8.17164179 4.05223881,8.08208955 C3.85074627,7.99253731 3.35820896,7.88059701 2.55223881,7.74626866 C1.74626866,7.6119403 1.14179104,7.3880597 0.73880597,7.09701493 C0.335820896,6.78358209 0.134328358,6.24626866 0.134328358,5.44029851 C0.134328358,4.65671642 0.425373134,4.05223881 0.985074627,3.64925373 C1.54477612,3.24626866 2.28358209,3.04477612 3.15671642,3.04477612 C3.78358209,3.04477612 4.6119403,3.13432836 5.68656716,3.3358209 L6.20149254,3.42537313 L6.17910448,5.05970149 Z" id="XMLID_21_"></path>
                <path d="M11.4179104,4.81343284 C11.0373134,4.81343284 10.6343284,4.88059701 10.2313433,5.03731343 L10.0522388,5.10447761 L10.0522388,9.02238806 C10.5223881,9.08955224 10.9029851,9.1119403 11.1940299,9.1119403 C11.7985075,9.1119403 12.2238806,8.93283582 12.4477612,8.59701493 C12.6716418,8.26119403 12.7835821,7.67910448 12.7835821,6.85074627 C12.7835821,5.50746269 12.3358209,4.81343284 11.4179104,4.81343284 Z M7.94776119,13.8358209 L7.94776119,3.20149254 L10.0298507,3.20149254 L10.0298507,3.60447761 C10.7014925,3.2238806 11.3059701,3.02238806 11.8208955,3.02238806 C12.8731343,3.02238806 13.6567164,3.3358209 14.1492537,3.94029851 C14.641791,4.54477612 14.9104478,5.57462687 14.9104478,7.02985075 C14.9104478,8.48507463 14.641791,9.49253731 14.0820896,10.0522388 C13.5223881,10.6119403 12.6268657,10.9029851 11.3507463,10.9029851 C11.0149254,10.9029851 10.6343284,10.880597 10.2313433,10.8134328 L10.0522388,10.7910448 L10.0522388,13.880597 L7.94776119,13.880597 L7.94776119,13.8358209 Z" id="Shape"></path>
                <path d="M26.9776119,8.8880597 L27.2014925,8.84328358 L27.2014925,4.90298507 C26.619403,4.81343284 26.1044776,4.74626866 25.6567164,4.74626866 C24.8059701,4.74626866 24.380597,5.46268657 24.380597,6.89552239 C24.380597,7.67910448 24.4701493,8.23880597 24.6716418,8.55223881 C24.8507463,8.8880597 25.1641791,9.04477612 25.6119403,9.04477612 C26.0373134,9.06716418 26.5074627,9 26.9776119,8.8880597 Z M29.3059701,0.201492537 L29.3059701,10.7014925 L27.2238806,10.7014925 L27.2238806,10.3880597 C26.4850746,10.7238806 25.858209,10.880597 25.3208955,10.880597 C24.1791045,10.880597 23.3955224,10.5671642 22.9253731,9.94029851 C22.4776119,9.31343284 22.2537313,8.30597015 22.2537313,6.94029851 C22.2537313,5.57462687 22.5223881,4.58955224 23.0597015,3.96268657 C23.5970149,3.3358209 24.4029851,3.02238806 25.5,3.02238806 C25.8358209,3.02238806 26.3059701,3.06716418 26.8880597,3.17910448 L27.1791045,3.24626866 L27.1791045,0.201492537 L29.3059701,0.201492537 Z" id="Shape"></path>
                <path d="M18.5820896,7.54477612 C17.9328358,7.54477612 17.3955224,7.34328358 16.9925373,6.91791045 C16.5671642,6.49253731 16.3656716,5.97761194 16.3656716,5.37313433 C16.3656716,4.74626866 16.5671642,4.23134328 16.9925373,3.82835821 C17.4179104,3.42537313 17.9328358,3.2238806 18.5820896,3.2238806 C19.2313433,3.2238806 19.7462687,3.42537313 20.1716418,3.85074627 C20.5746269,4.2761194 20.7761194,4.79104478 20.7761194,5.39552239 C20.7761194,6.02238806 20.5746269,6.51492537 20.1716418,6.94029851 C19.7462687,7.34328358 19.2313433,7.54477612 18.5820896,7.54477612" id="XMLID_16_"></path>
                <path d="M16.3656716,10.5895522 C16.3656716,9.96268657 16.5671642,9.44776119 16.9925373,9.04477612 C17.4179104,8.64179104 17.9328358,8.44029851 18.5820896,8.44029851 C19.2313433,8.44029851 19.7462687,8.64179104 20.1716418,9.06716418 C20.5746269,9.49253731 20.7761194,10.0074627 20.7761194,10.6119403" id="XMLID_15_"></path>
            </g>
            <g id="Logo_PosteID_ufficiale">
                <rect id="XMLID_14_" fill="#FFFFFF" x="0" y="0" width="49.119403" height="29.8880597"></rect>
                <rect id="XMLID_13_" fill="#EDDB00" x="44.7537313" y="0" width="29.8880597" height="29.8880597"></rect>
                <g id="Group" transform="translate(5.373134, 9.179104)" fill="#0047BB">
                    <path d="M0.111940299,10.0522388 L0.111940299,0.201492537 L4.63432836,0.201492537 C7.05223881,0.201492537 8.64179104,0.985074627 8.64179104,3.35820896 C8.64179104,5.73134328 7.05223881,6.51492537 4.63432836,6.51492537 L2.84328358,6.51492537 L2.84328358,10.0298507 L0.111940299,10.0298507 L0.111940299,10.0522388 Z M4.23134328,4.6119403 C5.30597015,4.56716418 5.75373134,4.07462687 5.75373134,3.35820896 C5.75373134,2.64179104 5.30597015,2.14925373 4.23134328,2.10447761 L2.82089552,2.10447761 L2.82089552,4.6119403 L4.23134328,4.6119403 Z" id="Shape"></path>
                    <path d="M16.7014925,6.62686567 C16.7014925,9.15671642 14.8656716,10.2537313 12.7164179,10.2537313 C10.5671642,10.2537313 8.73134328,9.15671642 8.73134328,6.62686567 C8.73134328,4.09701493 10.5671642,3 12.7164179,3 C14.8656716,3 16.7014925,4.09701493 16.7014925,6.62686567 M12.7164179,8.75373134 C13.8134328,8.75373134 14.0373134,7.58955224 14.0373134,6.62686567 C14.0373134,5.6641791 13.8134328,4.5 12.7164179,4.5 C11.619403,4.5 11.3955224,5.6641791 11.3955224,6.62686567 C11.3731343,7.58955224 11.619403,8.75373134 12.7164179,8.75373134" id="Shape"></path>
                    <path d="M21.2238806,5.30597015 C21.2238806,5.08208955 21.1791045,4.85820896 21.0671642,4.7238806 C20.9328358,4.56716418 20.7089552,4.47761194 20.3507463,4.47761194 C19.9701493,4.47761194 19.7462687,4.70149254 19.7462687,5.08208955 C19.7462687,5.59701493 20.7985075,5.55223881 22.4104478,6.06716418 C23.238806,6.3358209 23.7985075,6.82835821 23.7985075,7.94776119 C23.7985075,9.76119403 22.0970149,10.2313433 20.5298507,10.2313433 C18.8507463,10.2313433 17.2164179,9.89552239 17.2164179,7.79104478 L19.6791045,7.79104478 C19.6343284,7.99253731 19.7014925,8.23880597 19.858209,8.39552239 C20.0149254,8.57462687 20.2164179,8.70895522 20.4626866,8.70895522 C20.9776119,8.70895522 21.3358209,8.50746269 21.3358209,8.08208955 C21.3358209,6.87313433 17.2835821,7.58955224 17.2835821,5.10447761 C17.2835821,3.40298507 19.0970149,2.95522388 20.4402985,2.95522388 C22.0746269,2.95522388 23.5746269,3.38059701 23.6641791,5.28358209 L21.2238806,5.28358209 L21.2238806,5.30597015 Z" id="XMLID_8_"></path>
                    <path d="M25.5,3.20149254 L25.5,2.17164179 L28.0970149,1.18656716 L28.0970149,3.20149254 L29.5970149,3.20149254 L29.5970149,4.8358209 L28.0970149,4.8358209 L28.0970149,7.54477612 C28.0970149,7.7238806 27.9850746,8.61940299 28.5895522,8.61940299 C28.9253731,8.61940299 29.2835821,8.61940299 29.5970149,8.57462687 L29.5970149,10.119403 C29.0149254,10.2313433 28.5895522,10.2537313 28.2089552,10.2537313 C26.4402985,10.2537313 25.3880597,10.0074627 25.5223881,7.90298507 L25.5223881,4.8358209 L24.1791045,4.8358209 L24.1791045,3.20149254 L25.5,3.20149254 Z" id="XMLID_7_"></path>
                    <path d="M32.5970149,7.14179104 C32.5746269,8.03731343 32.8208955,8.79850746 33.7835821,8.79850746 C34.5,8.79850746 34.9477612,8.46268657 35.0597015,7.81343284 L37.4552239,7.81343284 C37.3656716,8.70895522 36.8059701,9.3358209 36.1567164,9.71641791 C35.5522388,10.0970149 34.7910448,10.2537313 33.9850746,10.2537313 C31.2537313,10.2537313 30.1567164,9.08955224 30.1567164,6.38059701 C30.1567164,4.20895522 31.7910448,2.97761194 33.8507463,2.97761194 C36.6268657,2.97761194 37.5223881,4.56716418 37.5223881,7.11940299 L32.5970149,7.11940299 L32.5970149,7.14179104 Z M35.0597015,5.75373134 C35.0597015,5.39552239 34.9477612,5.01492537 34.7462687,4.7238806 C34.5447761,4.43283582 34.2313433,4.25373134 33.8507463,4.2761194 C32.9552239,4.32089552 32.7313433,4.97014925 32.6641791,5.73134328 L35.0597015,5.73134328 L35.0597015,5.75373134 Z" id="Shape"></path>
                </g>
                <polygon id="XMLID_4_" fill="#0047BB" points="0 29.8880597 44.7537313 29.8880597 44.7537313 27.3358209 2.55223881 27.3358209 2.55223881 2.55223881 44.7537313 2.55223881 44.7537313 0 0 0"></polygon>
                <g id="Group" transform="translate(51.492537, 7.388060)" fill="#0047BB">
                    <polygon id="Shape" points="0.0895522388 14.4179104 0.0895522388 0.179104478 2.86567164 0.179104478 2.86567164 14.4179104"></polygon>
                    <path d="M15.0895522,13.0746269 C14.1492537,14.0149254 12.8059701,14.4402985 11.3283582,14.4402985 L6.17910448,14.4402985 L6.17910448,0.179104478 L11.3283582,0.179104478 C12.8059701,0.179104478 14.1492537,0.604477612 15.0895522,1.54477612 C16.6791045,3.13432836 16.5223881,5.10447761 16.5223881,7.25373134 C16.5223881,9.38059701 16.6791045,11.4626866 15.0895522,13.0746269 Z M13.141791,3.55970149 C12.6716418,2.97761194 12.0223881,2.68656716 11.0597015,2.68656716 L8.95522388,2.68656716 L8.95522388,11.9552239 L11.0597015,11.9552239 C12.0223881,11.9552239 12.6492537,11.6641791 13.141791,11.0820896 C13.6567164,10.4328358 13.7462687,9.42537313 13.7462687,7.25373134 C13.7462687,5.08208955 13.6567164,4.18656716 13.141791,3.55970149 Z" id="Shape"></path>
                </g>
            </g>
        </g>
    </g>
</svg>