<?xml version="1.0" encoding="UTF-8"?>
<svg width="130px" height="20px" viewBox="0 0 130 20" version="1.1" xmlns="http://www.w3.org/2000/svg" xmlns:xlink="http://www.w3.org/1999/xlink">
    <!-- Generator: Sketch 50.2 (55047) - http://www.bohemiancoding.com/sketch -->
    <title>spid-idp-namirialid</title>
    <desc>Created with Sketch.</desc>
    <defs></defs>
    <g id="Page-1" stroke="none" stroke-width="1" fill="none" fill-rule="evenodd">
        <g id="spid-idp-namirialid" fill-rule="nonzero">
            <path d="M12.1034483,9.89655172 C12.1034483,11.1724138 11.0689655,12.2413793 9.75862069,12.2413793 C8.48275862,12.2413793 7.4137931,11.2068966 7.4137931,9.89655172 C7.4137931,8.62068966 8.44827586,7.55172414 9.75862069,7.55172414 C11.0689655,7.55172414 12.1034483,8.62068966 12.1034483,9.89655172" id="Shape" fill="#632D4F"></path>
            <path d="M10.1034483,13.4827586 L10.1034483,14.5517241 C12.4137931,14.4137931 14.2758621,12.5517241 14.4137931,10.2413793 L13.3448276,10.2413793 C13.2068966,11.9310345 11.8275862,13.3103448 10.1034483,13.4827586" id="Shape" fill="#000000"></path>
            <path d="M6.20689655,9.89655172 C6.20689655,7.93103448 7.82758621,6.31034483 9.79310345,6.31034483 C11.6551724,6.31034483 13.2068966,7.72413793 13.3448276,9.55172414 L14.4137931,9.55172414 C14.2413793,7.13793103 12.2413793,5.24137931 9.79310345,5.24137931 C7.24137931,5.24137931 5.13793103,7.31034483 5.13793103,9.89655172 C5.13793103,12.3448276 7.03448276,14.3793103 9.44827586,14.5172414 L9.44827586,13.4482759 C7.62068966,13.3103448 6.20689655,11.7586207 6.20689655,9.89655172" id="Shape" fill="#000000"></path>
            <path d="M1.06896552,9.89655172 C1.06896552,5.10344828 4.96551724,1.20689655 9.75862069,1.20689655 C14.4482759,1.20689655 18.2758621,4.93103448 18.4482759,9.5862069 L19.5172414,9.5862069 C19.3793103,4.24137931 15.0689655,0 9.79310345,0 C4.37931034,0 0,4.44827586 0,9.89655172 C0,15.2413793 4.20689655,19.6206897 9.48275862,19.7931034 L9.48275862,18.5862069 C4.79310345,18.4482759 1.06896552,14.5862069 1.06896552,9.89655172" id="Shape" fill="#000000"></path>
            <path d="M10.1034483,18.5862069 L10.1034483,19.7931034 C15.2758621,19.6206897 19.4137931,15.4137931 19.5517241,10.2068966 L18.4827586,10.2068966 C18.3103448,14.7586207 14.6551724,18.4482759 10.1034483,18.5862069" id="Shape" fill="#000000"></path>
            <path d="M10.1034483,16.8965517 L10.1034483,17.9655172 C14.3103448,17.7931034 17.6896552,14.4137931 17.8275862,10.2068966 L16.7586207,10.2068966 C16.6206897,13.8275862 13.7241379,16.7241379 10.1034483,16.8965517" id="Shape" fill="#000000"></path>
            <path d="M2.79310345,9.89655172 C2.79310345,6.03448276 5.93103448,2.89655172 9.79310345,2.89655172 C13.5517241,2.89655172 16.6206897,5.86206897 16.7931034,9.55172414 L17.862069,9.55172414 C17.6551724,5.27586207 14.137931,1.82758621 9.79310345,1.82758621 C5.34482759,1.82758621 1.72413793,5.44827586 1.72413793,9.89655172 C1.72413793,14.2413793 5.17241379,17.7931034 9.48275862,17.9310345 L9.48275862,16.8965517 C5.75862069,16.7241379 2.79310345,13.6551724 2.79310345,9.89655172" id="Shape" fill="#000000"></path>
            <path d="M4.48275862,9.89655172 C4.48275862,6.96551724 6.86206897,4.62068966 9.75862069,4.62068966 C12.5517241,4.62068966 14.862069,6.82758621 15.0344828,9.5862069 L16.1034483,9.5862069 C15.9310345,6.24137931 13.1724138,3.55172414 9.75862069,3.55172414 C6.27586207,3.55172414 3.44827586,6.37931034 3.44827586,9.89655172 C3.44827586,13.3103448 6.13793103,16.0689655 9.48275862,16.2413793 L9.48275862,15.1724138 C6.68965517,15 4.48275862,12.7241379 4.48275862,9.89655172" id="Shape" fill="#000000"></path>
            <path d="M10.1034483,15.1724138 L10.1034483,16.2413793 C13.3793103,16.0689655 15.9655172,13.4827586 16.137931,10.2068966 L15.0689655,10.2068966 C14.8965517,12.862069 12.7586207,15.0344828 10.1034483,15.1724138" id="Shape" fill="#000000"></path>
            <path d="M114.862069,2.13793103 L122.482759,2.13793103 C127.517241,2.13793103 129.275862,5.86206897 129.275862,9.65517241 C129.275862,14.2758621 126.827586,17.2068966 121.551724,17.2068966 L114.827586,17.2068966 L114.827586,2.13793103 L114.862069,2.13793103 Z M119.517241,13.3448276 L121.344828,13.3448276 C124.241379,13.3448276 124.655172,11 124.655172,9.5862069 C124.655172,8.62068966 124.344828,6 121,6 L119.517241,6 L119.517241,13.3448276 Z" id="Shape" fill="#632D4F"></path>
            <polygon id="Shape" fill="#000000" points="21.6551724 2.20689655 25.6896552 2.20689655 30.8965517 11.4482759 30.9310345 11.4482759 30.9310345 2.20689655 34.6206897 2.20689655 34.6206897 17.2068966 30.5862069 17.2068966 25.3793103 7.86206897 25.3448276 7.86206897 25.3448276 17.2068966 21.6551724 17.2068966"></polygon>
            <path d="M36.2758621,9.65517241 C36.3448276,8.24137931 37,7.31034483 37.9655172,6.72413793 C38.9310345,6.17241379 40.2068966,5.96551724 41.4137931,5.96551724 C44,5.96551724 46.4827586,6.51724138 46.4827586,9.62068966 L46.4827586,14.3793103 C46.4827586,15.3103448 46.4827586,16.3103448 46.8965517,17.1724138 L43.3103448,17.1724138 C43.1724138,16.8275862 43.137931,16.5172414 43.1034483,16.137931 C42.1724138,17.1034483 40.8275862,17.4827586 39.5172414,17.4827586 C37.4482759,17.4827586 35.7931034,16.4482759 35.7931034,14.1724138 C35.7931034,10.6206897 39.6551724,10.8965517 42.137931,10.3793103 C42.7586207,10.2413793 43.0689655,10.0344828 43.0689655,9.37931034 C43.0689655,8.55172414 42.0689655,8.24137931 41.3448276,8.24137931 C40.3448276,8.24137931 39.7241379,8.68965517 39.5517241,9.62068966 L36.2758621,9.62068966 L36.2758621,9.65517241 Z M40.8965517,15.3103448 C42.5862069,15.3103448 43.1724138,14.3448276 43.0689655,12.1034483 C42.5517241,12.4137931 41.6551724,12.4827586 40.862069,12.6896552 C40.0689655,12.862069 39.3793103,13.2068966 39.3793103,14.0689655 C39.4137931,14.9655172 40.1034483,15.3103448 40.8965517,15.3103448 Z" id="Shape" fill="#000000"></path>
            <path d="M48.1724138,6.31034483 L51.6206897,6.31034483 L51.6206897,7.79310345 L51.6551724,7.79310345 C52.3103448,6.68965517 53.4482759,6 54.7931034,6 C56.1724138,6 57.3793103,6.44827586 57.9655172,7.75862069 C58.8275862,6.62068966 59.8965517,6 61.3793103,6 C64.8275862,6 65.2068966,8.62068966 65.2068966,10.6896552 L65.2068966,17.2068966 L61.6551724,17.2068966 L61.6551724,10.7931034 C61.6551724,9.62068966 61.1034483,8.93103448 60.1724138,8.93103448 C58.6551724,8.93103448 58.4827586,10.1034483 58.4827586,11.862069 L58.4827586,17.2068966 L54.8965517,17.2068966 L54.8965517,11 C54.8965517,9.72413793 54.5172414,8.93103448 53.5517241,8.93103448 C52.2758621,8.93103448 51.7241379,9.65517241 51.7241379,11.8965517 L51.7241379,17.2068966 L48.137931,17.2068966 L48.137931,6.31034483 L48.1724138,6.31034483 Z" id="Shape" fill="#000000"></path>
            <path d="M70.6206897,4.93103448 L67.0344828,4.93103448 L67.0344828,2.20689655 L70.6206897,2.20689655 L70.6206897,4.93103448 Z M67.0689655,6.31034483 L70.6551724,6.31034483 L70.6551724,17.2068966 L67.0689655,17.2068966 L67.0689655,6.31034483 Z" id="Shape" fill="#000000"></path>
            <path d="M72.5862069,6.31034483 L76.0344828,6.31034483 L76.0344828,8.20689655 L76.0689655,8.20689655 C76.5862069,6.82758621 77.8275862,6.06896552 79.3448276,6.06896552 C79.6206897,6.06896552 79.8965517,6.10344828 80.1724138,6.13793103 L80.1724138,9.37931034 C79.7241379,9.24137931 79.2758621,9.17241379 78.7931034,9.17241379 C77.0344828,9.17241379 76.1034483,10.3793103 76.1034483,11.7586207 L76.1034483,17.137931 L72.5172414,17.137931 L72.5172414,6.31034483 L72.5862069,6.31034483 Z" id="Shape" fill="#000000"></path>
            <path d="M84.4137931,4.93103448 L80.8275862,4.93103448 L80.8275862,2.20689655 L84.4137931,2.20689655 L84.4137931,4.93103448 Z M80.8275862,6.31034483 L84.4137931,6.31034483 L84.4137931,17.2068966 L80.8275862,17.2068966 L80.8275862,6.31034483 Z" id="Shape" fill="#000000"></path>
            <path d="M86.1034483,9.65517241 C86.1724138,8.24137931 86.8275862,7.31034483 87.7931034,6.72413793 C88.7586207,6.17241379 90.0344828,5.96551724 91.2413793,5.96551724 C93.8275862,5.96551724 96.3103448,6.51724138 96.3103448,9.62068966 L96.3103448,14.3793103 C96.3103448,15.3103448 96.3103448,16.3103448 96.7241379,17.1724138 L93.137931,17.1724138 C93,16.8275862 92.9655172,16.5172414 92.9310345,16.137931 C92,17.1034483 90.6551724,17.4827586 89.3448276,17.4827586 C87.2758621,17.4827586 85.6206897,16.4482759 85.6206897,14.1724138 C85.6206897,10.6206897 89.4827586,10.8965517 91.9655172,10.3793103 C92.5862069,10.2413793 92.8965517,10.0344828 92.8965517,9.37931034 C92.8965517,8.55172414 91.8965517,8.24137931 91.1724138,8.24137931 C90.1724138,8.24137931 89.5517241,8.68965517 89.3793103,9.62068966 L86.1034483,9.62068966 L86.1034483,9.65517241 Z M90.7241379,15.3103448 C92.4137931,15.3103448 93,14.3448276 92.8965517,12.1034483 C92.3793103,12.4137931 91.4827586,12.4827586 90.6896552,12.6896552 C89.8965517,12.862069 89.2068966,13.2068966 89.2068966,14.0689655 C89.2068966,14.9655172 89.8965517,15.3103448 90.7241379,15.3103448 Z" id="Shape" fill="#000000"></path>
            <rect id="Rectangle-path" fill="#000000" x="98.137931" y="2.20689655" width="3.5862069" height="15"></rect>
            <path d="M108.275862,10.3793103 C107.068966,10.3793103 106.068966,9.96551724 105.275862,9.13793103 C104.482759,8.31034483 104.103448,7.31034483 104.103448,6.10344828 C104.103448,4.89655172 104.482759,3.86206897 105.275862,3.06896552 C106.068966,2.27586207 107.068966,1.86206897 108.275862,1.86206897 C109.482759,1.86206897 110.482759,2.27586207 111.241379,3.10344828 C112,3.93103448 112.37931,4.93103448 112.37931,6.13793103 C112.37931,7.34482759 112,8.34482759 111.241379,9.17241379 C110.482759,9.96551724 109.482759,10.3793103 108.275862,10.3793103" id="Shape" fill="#632D4F"></path>
            <path d="M103.482759,17.2068966 C103.482759,15.7931034 103.931034,14.6206897 104.827586,13.6896552 C105.724138,12.7586207 106.896552,12.3103448 108.275862,12.3103448 C109.655172,12.3103448 110.827586,12.7931034 111.689655,13.7241379 C112.586207,14.6551724 113,15.8275862 113,17.2068966" id="Shape" fill="#632D4F"></path>
        </g>
    </g>
</svg>