<?xml version="1.0" encoding="UTF-8"?>
<svg width="114px" height="29px" viewBox="0 0 114 29" version="1.1" xmlns="http://www.w3.org/2000/svg" xmlns:xlink="http://www.w3.org/1999/xlink">
    <!-- Generator: Sketch 50.2 (55047) - http://www.bohemiancoding.com/sketch -->
    <title>spid-idp-spiditalia</title>
    <desc>Created with Sketch.</desc>
    <defs></defs>
    <g id="Page-1" stroke="none" stroke-width="1" fill="none" fill-rule="evenodd">
        <g id="spid-idp-spiditalia" fill-rule="nonzero">
            <g id="Group" transform="translate(60.047059, 23.200000)" fill="#2864AE">
                <path d="M0.0341176471,5.35647059 L0.0341176471,0.341176471 L1.56941176,0.341176471 C1.87647059,0.341176471 2.11529412,0.375294118 2.32,0.443529412 C2.52470588,0.511764706 2.69529412,0.614117647 2.86588235,0.750588235 C3.20705882,1.05764706 3.41176471,1.46705882 3.41176471,1.91058824 C3.41176471,2.14941176 3.37764706,2.38823529 3.27529412,2.59294118 C3.17294118,2.79764706 3.07058824,3.00235294 2.9,3.13882353 C2.69529412,3.30941176 2.45647059,3.44588235 2.11529412,3.51411765 L3.48,5.35647059 L2.35411765,5.35647059 L1.02352941,3.44588235 L1.02352941,5.35647059 L0.0341176471,5.35647059 Z M0.955294118,2.72941176 L1.53529412,2.72941176 C1.84235294,2.72941176 2.04705882,2.66117647 2.21764706,2.49058824 C2.35411765,2.35411765 2.42235294,2.18352941 2.42235294,1.94470588 C2.42235294,1.70588235 2.35411765,1.53529412 2.18352941,1.39882353 C2.01294118,1.26235294 1.80823529,1.19411765 1.53529412,1.19411765 L0.921176471,1.19411765 L0.955294118,2.72941176 Z" id="Shape"></path>
                <polygon id="Shape" points="5.90235294 5.35647059 5.90235294 0.341176471 8.59764706 0.341176471 8.59764706 1.19411765 6.82352941 1.19411765 6.82352941 2.42235294 8.52941176 2.42235294 8.52941176 3.27529412 6.82352941 3.27529412 6.82352941 4.46941176 8.59764706 4.46941176 8.59764706 5.32235294 5.90235294 5.32235294 5.90235294 5.35647059"></polygon>
                <path d="M13.0329412,3.65058824 L13.0329412,2.79764706 L16.3082353,2.79764706 C16.3082353,2.86588235 16.3082353,2.9 16.3082353,2.9 C16.3082353,3.34352941 16.1717647,3.75294118 15.9329412,4.16235294 C15.6941176,4.57176471 15.3529412,4.87882353 14.9435294,5.08352941 C14.5341176,5.32235294 14.0905882,5.42470588 13.6470588,5.42470588 C13.1694118,5.42470588 12.7258824,5.32235294 12.3164706,5.08352941 C11.9070588,4.84470588 11.5658824,4.53764706 11.3270588,4.12823529 C11.0882353,3.71882353 10.9517647,3.27529412 10.9517647,2.83176471 C10.9517647,2.28588235 11.1223529,1.77411765 11.4294118,1.33058824 C11.7364706,0.921176471 12.1117647,0.648235294 12.5894118,0.443529412 C12.9305882,0.307058824 13.2717647,0.238823529 13.6129412,0.238823529 C13.9541176,0.238823529 14.2611765,0.307058824 14.5682353,0.409411765 C14.8752941,0.511764706 15.1482353,0.682352941 15.3870588,0.921176471 C15.6941176,1.19411765 15.8988235,1.50117647 16.0352941,1.80823529 L14.9435294,1.80823529 C14.8070588,1.60352941 14.6023529,1.43294118 14.3635294,1.29647059 C14.1247059,1.16 13.8858824,1.12588235 13.6129412,1.12588235 C13.1011765,1.12588235 12.6917647,1.29647059 12.3847059,1.63764706 C12.2482353,1.80823529 12.1117647,1.97882353 12.0435294,2.21764706 C11.9752941,2.45647059 11.9070588,2.66117647 11.9070588,2.86588235 C11.9070588,3.20705882 12.0094118,3.54823529 12.2141176,3.85529412 C12.3847059,4.12823529 12.6576471,4.33294118 12.9647059,4.46941176 C13.1694118,4.57176471 13.4082353,4.60588235 13.6811765,4.60588235 C13.9882353,4.60588235 14.2952941,4.53764706 14.5341176,4.36705882 C14.8070588,4.19647059 15.0117647,3.99176471 15.1482353,3.68470588 L13.0329412,3.65058824 Z" id="Shape"></path>
                <path d="M18.7988235,5.35647059 L18.7988235,0.341176471 L19.72,0.341176471 L19.72,5.35647059 C19.72,5.35647059 18.7988235,5.35647059 18.7988235,5.35647059 Z" id="Shape"></path>
                <path d="M22.1423529,3.92352941 L23.0976471,3.92352941 C23.0976471,4.12823529 23.1658824,4.29882353 23.3023529,4.40117647 C23.4388235,4.53764706 23.5752941,4.57176471 23.78,4.57176471 C23.9847059,4.57176471 24.1552941,4.50352941 24.2576471,4.40117647 C24.3941176,4.29882353 24.4623529,4.12823529 24.4623529,3.95764706 C24.4623529,3.78705882 24.4282353,3.65058824 24.3258824,3.51411765 C24.2235294,3.41176471 24.0529412,3.30941176 23.8141176,3.20705882 C23.4388235,3.07058824 23.2,2.96823529 23.0976471,2.93411765 C22.9952941,2.86588235 22.8588235,2.79764706 22.7564706,2.69529412 C22.4835294,2.42235294 22.3470588,2.08117647 22.3470588,1.67176471 C22.3470588,1.29647059 22.4835294,0.989411765 22.7564706,0.716470588 C23.0635294,0.409411765 23.4047059,0.272941176 23.8141176,0.272941176 C24.0188235,0.272941176 24.2576471,0.307058824 24.4623529,0.409411765 C24.6670588,0.511764706 24.8376471,0.648235294 24.9741176,0.818823529 C25.1788235,1.05764706 25.2811765,1.36470588 25.2811765,1.70588235 L24.3258824,1.70588235 C24.3258824,1.53529412 24.2576471,1.39882353 24.1552941,1.29647059 C24.0529412,1.19411765 23.9164706,1.16 23.78,1.16 C23.6094118,1.16 23.5070588,1.19411765 23.4047059,1.29647059 C23.3023529,1.39882353 23.2682353,1.50117647 23.2682353,1.67176471 C23.2682353,1.84235294 23.3364706,1.97882353 23.4729412,2.08117647 C23.5752941,2.14941176 23.78,2.25176471 24.1211765,2.38823529 C24.4964706,2.52470588 24.8035294,2.66117647 24.9741176,2.86588235 C25.2811765,3.13882353 25.4176471,3.51411765 25.4176471,3.92352941 C25.4176471,4.36705882 25.2811765,4.74235294 24.9741176,5.04941176 C24.6329412,5.39058824 24.2576471,5.52705882 23.8141176,5.52705882 C23.5752941,5.52705882 23.3364706,5.45882353 23.0976471,5.35647059 C22.8588235,5.25411765 22.6882353,5.08352941 22.5176471,4.91294118 C22.2788235,4.57176471 22.1764706,4.26470588 22.1423529,3.92352941 Z" id="Shape"></path>
                <polygon id="Shape" points="28.42 5.35647059 28.42 1.19411765 27.4988235 1.19411765 27.4988235 0.341176471 30.2623529 0.341176471 30.2623529 1.19411765 29.3411765 1.19411765 29.3411765 5.32235294 28.42 5.32235294"></polygon>
                <polygon id="Shape" points="32.6505882 5.35647059 32.6505882 0.341176471 35.3458824 0.341176471 35.3458824 1.19411765 33.5717647 1.19411765 33.5717647 2.42235294 35.2776471 2.42235294 35.2776471 3.27529412 33.5717647 3.27529412 33.5717647 4.46941176 35.3458824 4.46941176 35.3458824 5.32235294 32.6505882 5.32235294 32.6505882 5.35647059"></polygon>
                <path d="M37.9388235,5.35647059 L37.9388235,0.341176471 L39.4741176,0.341176471 C39.7811765,0.341176471 40.02,0.375294118 40.2247059,0.443529412 C40.4294118,0.511764706 40.6,0.614117647 40.7705882,0.750588235 C41.1117647,1.05764706 41.3164706,1.46705882 41.3164706,1.91058824 C41.3164706,2.14941176 41.2823529,2.38823529 41.18,2.59294118 C41.0776471,2.79764706 40.9752941,3.00235294 40.8047059,3.13882353 C40.6,3.30941176 40.3611765,3.44588235 40.02,3.51411765 L41.3847059,5.35647059 L40.2588235,5.35647059 L38.9282353,3.44588235 L38.9282353,5.35647059 L37.9388235,5.35647059 Z M38.86,2.72941176 L39.44,2.72941176 C39.7470588,2.72941176 39.9517647,2.66117647 40.1223529,2.49058824 C40.2588235,2.35411765 40.3270588,2.18352941 40.3270588,1.94470588 C40.3270588,1.70588235 40.2588235,1.53529412 40.0882353,1.39882353 C39.9176471,1.26235294 39.7129412,1.19411765 39.44,1.19411765 L38.8258824,1.19411765 L38.86,2.72941176 Z" id="Shape"></path>
                <polygon id="Shape" points="43.7729412 5.35647059 43.7729412 4.46941176 44.66 4.46941176 44.66 5.35647059"></polygon>
                <path d="M47.3894118,5.35647059 L47.3894118,0.341176471 L48.3105882,0.341176471 L48.3105882,5.35647059 C48.3105882,5.35647059 47.3894118,5.35647059 47.3894118,5.35647059 Z" id="Shape"></path>
                <polygon id="Shape" points="51.5858824 5.35647059 51.5858824 1.19411765 50.6647059 1.19411765 50.6647059 0.341176471 53.4282353 0.341176471 53.4282353 1.19411765 52.5070588 1.19411765 52.5070588 5.32235294 51.5858824 5.32235294 51.5858824 5.35647059"></polygon>
            </g>
            <path d="M0.102352941,13.4764706 L2.04705882,13.4764706 C2.14941176,14.5 2.45647059,15.3188235 2.9,15.8988235 C3.20705882,16.3082353 3.65058824,16.6494118 4.16235294,16.8882353 C4.67411765,17.1270588 5.22,17.2635294 5.76588235,17.2635294 C6.24352941,17.2635294 6.72117647,17.1611765 7.23294118,16.9564706 C7.74470588,16.7517647 8.15411765,16.4447059 8.49529412,16.1035294 C9.14352941,15.4211765 9.48470588,14.6023529 9.48470588,13.6470588 C9.48470588,12.5894118 9.07529412,11.7023529 8.22235294,11.02 C7.64235294,10.5423529 6.68705882,10.1329412 5.39058824,9.79176471 C4.43529412,9.55294118 3.71882353,9.31411765 3.24117647,9.10941176 C2.76352941,8.87058824 2.32,8.59764706 1.94470588,8.18823529 C1.09176471,7.33529412 0.648235294,6.24352941 0.648235294,4.94705882 C0.648235294,3.58235294 1.12588235,2.45647059 2.04705882,1.53529412 C3.03647059,0.545882353 4.29882353,0.0341176471 5.76588235,0.0341176471 C7.19882353,0.0341176471 8.39294118,0.511764706 9.34823529,1.46705882 C10.3035294,2.42235294 10.8152941,3.58235294 10.8152941,4.98117647 L8.90470588,4.98117647 C8.83647059,3.99176471 8.49529412,3.20705882 7.88117647,2.59294118 C7.26705882,1.97882353 6.51647059,1.67176471 5.59529412,1.67176471 C4.74235294,1.67176471 4.02588235,1.94470588 3.44588235,2.52470588 C2.76352941,3.17294118 2.45647059,3.95764706 2.45647059,4.87882353 C2.45647059,5.8 2.72941176,6.48235294 3.30941176,6.99411765 C3.78705882,7.40352941 4.67411765,7.77882353 6.00470588,8.15411765 C7.09647059,8.46117647 7.84705882,8.7 8.22235294,8.87058824 C8.59764706,9.04117647 9.00705882,9.28 9.41647059,9.62117647 C9.99647059,10.0988235 10.44,10.6788235 10.7470588,11.3952941 C11.0541176,12.1117647 11.2247059,12.8282353 11.2247059,13.5788235 C11.2247059,14.9776471 10.7129412,16.2058824 9.68941176,17.2294118 C8.59764706,18.3552941 7.26705882,18.9352941 5.66352941,18.9352941 C4.70823529,18.9352941 3.85529412,18.7305882 3.03647059,18.3552941 C2.21764706,17.98 1.56941176,17.4 1.05764706,16.7176471 C0.511764706,15.7964706 0.170588235,14.7388235 0.102352941,13.4764706 Z" id="Shape" fill="#343434"></path>
            <path d="M14.7388235,5.08352941 L16.4788235,5.08352941 L16.4788235,7.40352941 C16.9905882,6.68705882 17.6047059,6.10705882 18.3552941,5.69764706 C19.4470588,5.08352941 20.6070588,4.77647059 21.9035294,4.77647059 C22.7905882,4.77647059 23.6776471,4.94705882 24.5305882,5.28823529 C25.3835294,5.62941176 26.1682353,6.10705882 26.8164706,6.75529412 C28.2835294,8.15411765 29,9.86 29,11.8729412 C29,13.8858824 28.2494118,15.5917647 26.7141176,16.9905882 C25.3152941,18.2870588 23.6435294,18.9011765 21.7670588,18.9011765 C20.6752941,18.9011765 19.6858824,18.6623529 18.7647059,18.2188235 C17.8776471,17.7752941 17.1270588,17.0929412 16.5470588,16.24 L16.5470588,23.3023529 L14.7047059,23.3023529 L14.7047059,5.08352941 L14.7388235,5.08352941 Z M21.8352941,6.31176471 C20.3682353,6.31176471 19.0717647,6.85764706 18.0141176,7.91529412 C16.9905882,8.97294118 16.4447059,10.2352941 16.4447059,11.7364706 C16.4447059,13.4423529 16.9905882,14.8070588 18.1164706,15.8647059 C19.14,16.8541176 20.4023529,17.3317647 21.8352941,17.3317647 C23.2341176,17.3317647 24.4623529,16.8541176 25.52,15.8647059 C26.68,14.7729412 27.2258824,13.4423529 27.2258824,11.8729412 C27.2258824,10.1670588 26.6458824,8.80235294 25.4517647,7.71058824 C24.4623529,6.78941176 23.2341176,6.31176471 21.8352941,6.31176471 Z" id="Shape" fill="#343434"></path>
            <polygon id="Shape" fill="#2864AE" points="59.9447059 18.56 59.9447059 0.375294118 61.7870588 0.375294118 61.7870588 18.56"></polygon>
            <polygon id="Shape" fill="#2864AE" points="66.0858824 18.56 66.0858824 6.65294118 63.2541176 6.65294118 63.2541176 5.08352941 66.0858824 5.08352941 66.0858824 0.375294118 67.8258824 0.375294118 67.8258824 5.08352941 71.0329412 5.08352941 71.0329412 6.61882353 67.8258824 6.61882353 67.8258824 18.5258824 66.0858824 18.5258824"></polygon>
            <path d="M85.5670588,5.08352941 L85.5670588,18.56 L83.8270588,18.56 L83.8270588,16.2058824 C82.4964706,18.0141176 80.7564706,18.9011765 78.5388235,18.9011765 C77.2082353,18.9011765 75.9458824,18.56 74.7517647,17.8776471 C73.6258824,17.2294118 72.7388235,16.3082353 72.1247059,15.1141176 C71.5788235,14.0564706 71.2717647,12.9647059 71.2717647,11.8388235 C71.2717647,10.9517647 71.4423529,10.0988235 71.7835294,9.24588235 C72.1247059,8.39294118 72.6023529,7.64235294 73.1823529,6.99411765 C73.8647059,6.27764706 74.6835294,5.73176471 75.6388235,5.32235294 C76.56,4.94705882 77.5152941,4.77647059 78.5047059,4.77647059 C79.5964706,4.77647059 80.62,5.01529412 81.5070588,5.45882353 C82.3941176,5.93647059 83.1788235,6.58470588 83.7929412,7.47176471 L83.7929412,5.08352941 C83.7929412,5.08352941 85.5670588,5.08352941 85.5670588,5.08352941 Z M78.5388235,6.31176471 C77.0717647,6.31176471 75.7752941,6.85764706 74.6494118,7.94941176 C73.5576471,9.04117647 73.0458824,10.3035294 73.0458824,11.7364706 C73.0458824,13.2717647 73.5576471,14.5682353 74.5811765,15.66 C75.0929412,16.1717647 75.6729412,16.5811765 76.3894118,16.8882353 C77.1058824,17.1952941 77.8223529,17.3317647 78.5388235,17.3317647 C79.9717647,17.3317647 81.2341176,16.7858824 82.2917647,15.6941176 C83.3152941,14.6364706 83.8270588,13.34 83.8270588,11.8388235 C83.8270588,10.3035294 83.3152941,9.04117647 82.2917647,7.94941176 C81.2682353,6.89176471 80.04,6.34588235 78.5388235,6.31176471 Z" id="Shape" fill="#2864AE"></path>
            <polygon id="Shape" fill="#2864AE" points="88.9788235 18.56 88.9788235 0.375294118 90.7188235 0.375294118 90.7188235 18.56"></polygon>
            <path d="M94.1305882,2.11529412 L94.1305882,0.375294118 L95.8705882,0.375294118 L95.8705882,2.11529412 L94.1305882,2.11529412 Z M94.1305882,18.56 L94.1305882,5.08352941 L95.8705882,5.08352941 L95.8705882,18.56 L94.1305882,18.56 Z" id="Shape" fill="#2864AE"></path>
            <path d="M113.543529,5.08352941 L113.543529,18.56 L111.803529,18.56 L111.803529,16.2058824 C110.472941,18.0141176 108.732941,18.9011765 106.515294,18.9011765 C105.184706,18.9011765 103.922353,18.56 102.728235,17.8776471 C101.602353,17.2294118 100.715294,16.3082353 100.101176,15.1141176 C99.5552941,14.0564706 99.2482353,12.9647059 99.2482353,11.8388235 C99.2482353,10.9517647 99.4188235,10.0988235 99.76,9.24588235 C100.101176,8.39294118 100.578824,7.64235294 101.158824,6.99411765 C101.841176,6.27764706 102.66,5.73176471 103.615294,5.32235294 C104.536471,4.94705882 105.491765,4.77647059 106.481176,4.77647059 C107.572941,4.77647059 108.596471,5.01529412 109.483529,5.45882353 C110.370588,5.93647059 111.155294,6.58470588 111.769412,7.47176471 L111.769412,5.08352941 C111.769412,5.08352941 113.543529,5.08352941 113.543529,5.08352941 Z M106.515294,6.31176471 C105.048235,6.31176471 103.751765,6.85764706 102.625882,7.94941176 C101.534118,9.04117647 101.022353,10.3035294 101.022353,11.7364706 C101.022353,13.2717647 101.534118,14.5682353 102.557647,15.66 C103.069412,16.1717647 103.649412,16.5811765 104.365882,16.8882353 C105.082353,17.1952941 105.798824,17.3317647 106.515294,17.3317647 C107.948235,17.3317647 109.210588,16.7858824 110.268235,15.6941176 C111.291765,14.6364706 111.803529,13.34 111.803529,11.8388235 C111.803529,10.3035294 111.291765,9.04117647 110.268235,7.94941176 C109.244706,6.89176471 107.982353,6.34588235 106.515294,6.31176471 Z" id="Shape" fill="#2864AE"></path>
            <polygon id="Shape" fill="#2864AE" points="32.4117647 23.5411765 56.2258824 23.5411765 56.2258824 28.5223529 32.4117647 28.5223529"></polygon>
            <path d="M53.0188235,0.375294118 L53.0188235,6.00470588 C51.8929412,5.22 50.5282353,4.77647059 49.0611765,4.77647059 C45.1717647,4.77647059 41.9988235,7.94941176 41.9988235,11.8388235 C41.9988235,15.7282353 45.1717647,18.9011765 49.0611765,18.9011765 C50.5282353,18.9011765 51.8929412,18.4576471 53.0188235,17.6729412 L53.0188235,18.56 L56.1235294,18.56 L56.1235294,0.375294118 L53.0188235,0.375294118 Z M49.0611765,15.7623529 C46.8776471,15.7623529 45.1376471,13.9882353 45.1376471,11.8388235 C45.1376471,9.65529412 46.9117647,7.91529412 49.0611765,7.91529412 C51.2447059,7.91529412 52.9847059,9.68941176 52.9847059,11.8388235 C52.9847059,13.9882353 51.2105882,15.7623529 49.0611765,15.7623529 Z" id="Shape" fill="#343434"></path>
            <g id="Group" transform="translate(32.411765, 0.000000)" fill="#343434">
                <circle id="Oval" cx="3.07058824" cy="3.10470588" r="3.07058824"></circle>
                <path d="M3.07058824,7.91529412 C1.36470588,7.91529412 0,9.28 0,10.9858824 L0,18.56 L6.17529412,18.56 L6.17529412,10.9858824 C6.17529412,9.28 4.77647059,7.91529412 3.07058824,7.91529412 Z" id="Shape"></path>
            </g>
        </g>
    </g>
</svg>