<?xml version="1.0" encoding="UTF-8"?>
<svg width="112px" height="20px" viewBox="0 0 112 20" version="1.1" xmlns="http://www.w3.org/2000/svg" xmlns:xlink="http://www.w3.org/1999/xlink">
    <!-- Generator: Sketch 50.2 (55047) - http://www.bohemiancoding.com/sketch -->
    <title>spid-idp-infocertid</title>
    <desc>Created with Sketch.</desc>
    <defs>
        <linearGradient x1="49.8947368%" y1="144.656102%" x2="49.8947368%" y2="58.2602832%" id="linearGradient-1">
            <stop stop-color="#29AAE1" offset="0%"></stop>
            <stop stop-color="#176C98" offset="100%"></stop>
        </linearGradient>
        <linearGradient x1="49.9879176%" y1="146.694595%" x2="49.9879176%" y2="58.6554054%" id="linearGradient-2">
            <stop stop-color="#29AAE1" offset="0%"></stop>
            <stop stop-color="#176C98" offset="100%"></stop>
        </linearGradient>
    </defs>
    <g id="Page-1" stroke="none" stroke-width="1" fill="none" fill-rule="evenodd">
        <g id="spid-idp-infocertid">
            <g id="XMLID_19_" transform="translate(84.473684, 0.000000)" fill-rule="nonzero">
                <polygon id="XMLID_44_" fill="url(#linearGradient-1)" points="0.0131578947 0.118421053 6.01315789 0.118421053 6.01315789 19.6315789 0.0131578947 19.6315789"></polygon>
                <path d="M18.3552632,0.131578947 L8.81578947,0.131578947 L8.81578947,19.6052632 L17.1578947,19.6052632 C24.0921053,19.6052632 27.3289474,15.9473684 27.3289474,9.84210526 C27.3289474,4.82894737 24.9868421,0.131578947 18.3552632,0.131578947 Z M20.3552632,14.0789474 L14.3157895,14.0789474 C13.7631579,14.0789474 13.3157895,13.4868421 13.3157895,12.9342105 C13.3157895,11.2894737 14.3026316,9.81578947 15.7105263,9.18421053 C15.2631579,8.76315789 14.9868421,8.11842105 14.9868421,7.46052632 C14.9868421,6.15789474 16.0394737,5.09210526 17.3289474,5.09210526 C18.6184211,5.09210526 19.6710526,6.13157895 19.6710526,7.43421053 C19.6710526,8.09210526 19.3947368,8.69736842 18.9473684,9.11842105 C20.3552632,9.75 21.3552632,11.2894737 21.3552632,12.9342105 C21.3552632,13.5 20.9078947,14.0789474 20.3552632,14.0789474 Z" id="XMLID_20_" fill="url(#linearGradient-2)"></path>
            </g>
            <g id="XMLID_6_" transform="translate(0.000000, 3.684211)">
                <path d="M34.8026316,10.3552632 C34.8026316,11.3289474 34.7763158,12.3026316 34.8157895,13.2763158 C34.8552632,14.5131579 34.2631579,15.3289474 33.1578947,15.7368421 C31.4605263,16.3684211 29.7236842,16.3684211 28.0394737,15.6973684 C27.0263158,15.3026316 26.4605263,14.5 26.4605263,13.3552632 C26.4736842,11.2763158 26.4605263,9.21052632 26.4605263,7.13157895 C26.4736842,6.03947368 26.9868421,5.25 27.9736842,4.85526316 C29.7894737,4.11842105 31.6315789,4.10526316 33.4342105,4.89473684 C34.3421053,5.30263158 34.8026316,6.03947368 34.8026316,7.05263158 C34.7894737,8.15789474 34.8026316,9.26315789 34.8026316,10.3552632 Z M28.7368421,10.25 C28.7368421,11.0657895 28.7236842,11.8684211 28.7368421,12.6842105 C28.75,13.75 29.1052632,14.1578947 30.1578947,14.2368421 C30.6052632,14.2763158 31.0789474,14.2368421 31.5131579,14.1447368 C32.25,13.9868421 32.5,13.6578947 32.5,12.9210526 C32.5131579,11.1447368 32.5131579,9.35526316 32.4868421,7.57894737 C32.4868421,7.28947368 32.3684211,6.92105263 32.1710526,6.71052632 C31.5921053,6.07894737 29.6578947,6.06578947 29.0921053,6.68421053 C28.8815789,6.92105263 28.7631579,7.31578947 28.75,7.64473684 C28.7105263,8.5 28.7368421,9.38157895 28.7368421,10.25 Z" id="XMLID_16_" fill="#1F63A7"></path>
                <path d="M55.3289474,12.9473684 L57.25,12.9473684 C57.5526316,13.8421053 57.3157895,14.6447368 56.5657895,15.1842105 C55.25,16.1447368 53.75,16.2368421 52.2105263,16.0263158 C51.3421053,15.9078947 50.5,15.7105263 49.8552632,15.0263158 C49.4605263,14.6052632 49.1842105,14.1578947 49.1842105,13.5657895 C49.1842105,11.3289474 49.1973684,9.10526316 49.1842105,6.86842105 C49.1842105,5.55263158 50.1447368,4.94736842 51.1578947,4.65789474 C52.8947368,4.17105263 54.6578947,4.10526316 56.3026316,5.10526316 C56.8684211,5.44736842 57.2368421,5.88157895 57.3026316,6.55263158 C57.3289474,6.75 57.3552632,6.93421053 57.3815789,7.13157895 C57.6710526,9.19736842 56.4868421,10.5921053 54.3947368,10.6578947 C53.8684211,10.6710526 53.3552632,10.6447368 52.8421053,10.6710526 C51.8947368,10.7105263 51.3815789,11.2236842 51.2894737,12.1842105 C51.1842105,13.3947368 51.5789474,14.0657895 52.5657895,14.2236842 C53.0394737,14.3026316 53.5263158,14.2631579 54.0131579,14.2105263 C54.7631579,14.1447368 55.1447368,13.6447368 55.3289474,12.9473684 Z M51.4078947,8.97368421 C52.3947368,8.93421053 53.3026316,8.92105263 54.1973684,8.84210526 C54.75,8.78947368 55.1447368,8.36842105 55.2236842,7.82894737 C55.3289474,7.23684211 55.1315789,6.76315789 54.6842105,6.48684211 C53.8157895,5.93421053 52.1184211,6.18421053 51.4078947,6.97368421 L51.4078947,8.97368421 Z" id="XMLID_13_" fill="#A6A8AC"></path>
                <path d="M44.0657895,13.6447368 C44.1447368,13.3815789 44.2368421,13.1184211 44.3289474,12.8026316 L46.25,12.8026316 C46.6052632,14.0131579 46.3026316,14.9868421 45.1578947,15.4868421 C43.1578947,16.3421053 41.0921053,16.5 39.1315789,15.25 C38.4736842,14.8421053 38.1447368,14.2236842 38.1447368,13.4605263 C38.1315789,9.89473684 38.1184211,6.32894737 38.1447368,2.76315789 C38.1578947,1.17105263 39.1578947,0.434210526 40.7631579,0.144736842 C41.7631579,-0.0394736842 42.8421053,0.0394736842 43.8552632,0.144736842 C44.6973684,0.236842105 45.4736842,0.618421053 46,1.34210526 C46.3947368,1.89473684 46.4736842,2.51315789 46.3157895,3.25 L44.3684211,3.25 C44.2368421,2.93421053 44.1052632,2.64473684 43.9736842,2.35526316 C43.0789474,1.68421053 42.1184211,1.65789474 41.1052632,1.97368421 C40.6578947,2.10526316 40.3947368,2.42105263 40.3552632,2.88157895 C40.3421053,3.07894737 40.3421053,3.26315789 40.3421053,3.46052632 L40.3421053,12.5921053 C40.3421053,13.8026316 40.7368421,14.2105263 41.9605263,14.2763158 C42.7105263,14.3157895 43.4210526,14.3026316 44.0657895,13.6447368 Z" id="XMLID_12_" fill="#A6A8AC"></path>
                <path d="M7.89473684,15.9210526 L5.67105263,15.9210526 C5.64473684,15.6447368 5.59210526,15.3684211 5.59210526,15.0789474 C5.59210526,12.4605263 5.61842105,9.84210526 5.57894737,7.22368421 C5.56578947,6.02631579 6.09210526,5.22368421 7.15789474,4.80263158 C8.94736842,4.10526316 10.7631579,4.09210526 12.5394737,4.88157895 C13.4342105,5.27631579 13.9473684,6.02631579 13.9473684,7.01315789 C13.9605263,9.89473684 13.9473684,12.7763158 13.9342105,15.6578947 C13.9342105,15.7105263 13.8815789,15.7763158 13.8289474,15.8947368 L11.6578947,15.8947368 L11.6578947,14.8289474 L11.6578947,7.93421053 C11.6578947,6.68421053 11.25,6.26315789 9.97368421,6.22368421 C9.25,6.19736842 8.53947368,6.23684211 7.90789474,7.01315789 C7.89473684,9.88157895 7.89473684,12.8684211 7.89473684,15.9210526 Z" id="XMLID_11_" fill="#1F63A7"></path>
                <path d="M23,6.28947368 L21,6.28947368 C20.9342105,9.52631579 21,12.6710526 20.9605263,15.9078947 L18.7105263,15.9078947 L18.7105263,6.38157895 C18.1578947,6.31578947 17.7236842,6.27631579 17.2236842,6.22368421 L17.2236842,4.61842105 C17.6578947,4.56578947 18.0921053,4.51315789 18.6315789,4.44736842 C18.6578947,3.92105263 18.6842105,3.42105263 18.6842105,2.90789474 C18.6842105,1.75 19.2105263,0.934210526 20.25,0.447368421 C21.2105263,1.39992185e-15 23.1315789,-0.144736842 24.3157895,0.197368421 C24.1710526,0.710526316 24.0263158,1.22368421 23.8815789,1.75 C23.3289474,1.81578947 22.8421053,1.85526316 22.3684211,1.92105263 C21.2631579,2.07894737 20.9868421,2.39473684 20.9736842,3.5 C20.9736842,3.78947368 21,4.06578947 21.0131579,4.43421053 C21.6842105,4.47368421 22.3026316,4.52631579 22.9868421,4.56578947 C23,5.14473684 23,5.64473684 23,6.28947368 Z" id="XMLID_10_" fill="#1F63A7"></path>
                <path d="M69.8421053,6.18421053 C69.3026316,6.10526316 68.8684211,6.03947368 68.3684211,5.97368421 L68.3684211,4.48684211 C68.7763158,4.43421053 69.2105263,4.36842105 69.7763158,4.28947368 C69.8157895,3.40789474 69.8421053,2.52631579 69.8815789,1.56578947 L72,1.56578947 C72.0394737,2.44736842 72.0657895,3.31578947 72.1052632,4.28947368 C72.7368421,4.34210526 73.3026316,4.39473684 73.9736842,4.44736842 C74,4.92105263 74.0263158,5.39473684 74.0526316,5.96052632 C73.3815789,6.02631579 72.7894737,6.07894737 72.1184211,6.15789474 C72.0921053,6.56578947 72.0526316,6.90789474 72.0526316,7.25 C72.0394737,8.93421053 72.0394737,10.6184211 72.0526316,12.3026316 C72.0526316,13.6578947 72.2631579,13.9078947 73.6315789,14.1315789 C73.7236842,14.1447368 73.8157895,14.1842105 73.9736842,14.2368421 L73.9736842,15.9210526 C72.6315789,16 71.4342105,15.7631579 70.4736842,14.8157895 C69.9605263,14.3157895 69.8289474,13.6578947 69.8289474,12.9473684 L69.8289474,7.31578947 C69.8421053,6.96052632 69.8421053,6.60526316 69.8421053,6.18421053 Z" id="XMLID_9_" fill="#A6A8AC"></path>
                <path d="M0.131578947,0.236842105 L2.23684211,0.236842105 L2.23684211,15.8947368 L0.171052632,15.8947368 C-0.0131578947,15.2368421 -0.0789473684,1.63157895 0.131578947,0.236842105 Z" id="XMLID_8_" fill="#1F63A7"></path>
                <path d="M62.4868421,15.8947368 L60.3947368,15.8947368 C60.3684211,15.5921053 60.3289474,15.3157895 60.3289474,15.0394737 C60.3289474,12.5131579 60.3157895,9.98684211 60.3289474,7.47368421 C60.3421053,5.97368421 60.9736842,5.09210526 62.3815789,4.67105263 C63.4736842,4.34210526 64.5921053,4.32894737 65.8684211,4.44736842 C65.7105263,5.05263158 65.5789474,5.59210526 65.4210526,6.22368421 L64.3289474,6.22368421 C62.9210526,6.27631579 62.5526316,6.65789474 62.5526316,8.03947368 L62.5526316,15.0263158 C62.5394737,15.2763158 62.5131579,15.5263158 62.4868421,15.8947368 Z" id="XMLID_7_" fill="#A6A8AC"></path>
            </g>
        </g>
    </g>
</svg>