<?xml version="1.0" encoding="UTF-8"?>
<svg width="99px" height="24px" viewBox="0 0 99 24" version="1.1" xmlns="http://www.w3.org/2000/svg" xmlns:xlink="http://www.w3.org/1999/xlink">
    <!-- Generator: Sketch 50.2 (55047) - http://www.bohemiancoding.com/sketch -->
    <title>spid-idp-arubaid</title>
    <desc>Created with Sketch.</desc>
    <defs></defs>
    <g id="Page-1" stroke="none" stroke-width="1" fill="none" fill-rule="evenodd">
        <g id="spid-idp-arubaid">
            <g id="XMLID_1_" transform="translate(74.285714, 0.000000)" fill="#0066CC" fill-rule="nonzero">
                <path d="M24.1142857,7.73877551 L24.1142857,23.8693878 L8.31020408,23.8693878 C8.31020408,23.8693878 5.68163265,23.7061224 3.54285714,22.0734694 C1.22263311e-14,19.3795918 0.114285714,16.7183673 0.114285714,16.7183673 L0.114285714,11.4938776 L0.114285714,5.46938776 L0.114285714,0.0326530612 L18.955102,0.0326530612 C18.955102,0.0326530612 21.1102041,1.09387755 22.677551,3.42857143 C24.0163265,5.43673469 24.1142857,7.73877551 24.1142857,7.73877551 Z" id="Shape"></path>
            </g>
            <path d="M74.4,5.43673469 L74.4,11.5102041 C74.4,11.5102041 76.9959184,11.1183673 76.9959184,8.32653061 C76.9959184,5.84489796 74.4,5.43673469 74.4,5.43673469 Z" id="Shape" fill="#FFFFFF" fill-rule="nonzero"></path>
            <path d="M81.5836735,3.51020408 C80.9469388,3.42857143 80.4897959,3.39591837 80.244898,3.39591837 C80,3.39591837 79.8204082,3.4122449 79.755102,3.46122449 C79.6897959,3.51020408 79.6408163,3.5755102 79.6408163,3.68979592 C79.6408163,3.7877551 79.6897959,3.86938776 79.7877551,3.90204082 C79.8857143,3.93469388 80.1469388,4 80.5714286,4.08163265 C80.9795918,4.14693878 81.2897959,4.27755102 81.4530612,4.44081633 C81.6326531,4.62040816 81.7142857,4.88163265 81.7142857,5.27346939 C81.7142857,6.10612245 81.1918367,6.53061224 80.1632653,6.53061224 C79.8204082,6.53061224 79.4122449,6.48163265 78.922449,6.38367347 L78.677551,6.33469388 L78.7102041,5.46938776 C79.3469388,5.55102041 79.8040816,5.58367347 80.0489796,5.58367347 C80.2938776,5.58367347 80.4734694,5.56734694 80.5714286,5.51836735 C80.6693878,5.46938776 80.7020408,5.40408163 80.7020408,5.28979592 C80.7020408,5.19183673 80.6530612,5.11020408 80.555102,5.07755102 C80.4571429,5.02857143 80.2122449,4.97959184 79.8040816,4.89795918 C79.3959184,4.83265306 79.1020408,4.71836735 78.9061224,4.55510204 C78.7102041,4.39183673 78.6122449,4.11428571 78.6122449,3.68979592 C78.6122449,3.28163265 78.7591837,2.97142857 79.0204082,2.75918367 C79.2979592,2.54693878 79.6571429,2.44897959 80.0979592,2.44897959 C80.4081633,2.44897959 80.8163265,2.49795918 81.355102,2.59591837 L81.6,2.64489796 L81.5836735,3.51020408 Z" id="XMLID_85_" fill="#FFFFFF" fill-rule="nonzero"></path>
            <path d="M84.1795918,3.37959184 C83.9836735,3.37959184 83.7877551,3.4122449 83.5918367,3.49387755 L83.4938776,3.52653061 L83.4938776,5.55102041 C83.722449,5.58367347 83.9183673,5.6 84.0653061,5.6 C84.3755102,5.6 84.5714286,5.50204082 84.6857143,5.33877551 C84.8,5.15918367 84.8653061,4.86530612 84.8653061,4.44081633 C84.8489796,3.73877551 84.6367347,3.37959184 84.1795918,3.37959184 Z M82.4653061,8.04897959 L82.4653061,2.54693878 L83.4938776,2.54693878 L83.4938776,2.75918367 C83.8204082,2.56326531 84.1142857,2.44897959 84.3755102,2.44897959 C84.8979592,2.44897959 85.2897959,2.6122449 85.5346939,2.90612245 C85.7795918,3.21632653 85.9102041,3.75510204 85.9102041,4.50612245 C85.9102041,5.25714286 85.7632653,5.77959184 85.5020408,6.07346939 C85.2244898,6.36734694 84.7673469,6.51428571 84.1469388,6.51428571 C83.9673469,6.51428571 83.7877551,6.49795918 83.5918367,6.46530612 L83.4938776,6.44897959 L83.4938776,8.04897959 L82.4653061,8.04897959 Z" id="XMLID_82_" fill="#FFFFFF" fill-rule="nonzero"></path>
            <path d="M91.8857143,5.48571429 L92,5.46938776 L92,3.42857143 C91.722449,3.37959184 91.4612245,3.34693878 91.2489796,3.34693878 C90.8408163,3.34693878 90.6285714,3.72244898 90.6285714,4.47346939 C90.6285714,4.88163265 90.677551,5.15918367 90.7755102,5.33877551 C90.8734694,5.51836735 91.0204082,5.58367347 91.2326531,5.58367347 C91.4285714,5.58367347 91.6408163,5.55102041 91.8857143,5.48571429 Z M93.0285714,0.995918367 L93.0285714,6.43265306 L92,6.43265306 L92,6.26938776 C91.6408163,6.44897959 91.3306122,6.51428571 91.0530612,6.51428571 C90.4816327,6.51428571 90.0897959,6.35102041 89.877551,6.0244898 C89.6489796,5.69795918 89.5510204,5.19183673 89.5510204,4.47346939 C89.5510204,3.77142857 89.6816327,3.24897959 89.9591837,2.92244898 C90.2204082,2.59591837 90.6285714,2.43265306 91.1673469,2.43265306 C91.3306122,2.43265306 91.5591837,2.46530612 91.8530612,2.51428571 L92,2.54693878 L92,0.963265306 L93.0285714,0.963265306 L93.0285714,0.995918367 Z" id="XMLID_79_" fill="#FFFFFF" fill-rule="nonzero"></path>
            <path d="M87.722449,4.8 C87.3959184,4.8 87.1346939,4.68571429 86.9387755,4.47346939 C86.7428571,4.26122449 86.6285714,3.98367347 86.6285714,3.65714286 C86.6285714,3.33061224 86.7265306,3.06938776 86.9387755,2.85714286 C87.1346939,2.64489796 87.3959184,2.54693878 87.722449,2.54693878 C88.0489796,2.54693878 88.3102041,2.66122449 88.5061224,2.87346939 C88.7020408,3.10204082 88.8163265,3.36326531 88.8163265,3.68979592 C88.8163265,4.01632653 88.7183673,4.27755102 88.5061224,4.48979592 C88.3102041,4.68571429 88.0489796,4.8 87.722449,4.8" id="XMLID_78_" fill="#FFFFFF" fill-rule="nonzero"></path>
            <path d="M86.6285714,6.36734694 C86.6285714,6.04081633 86.7265306,5.77959184 86.9387755,5.56734694 C87.1346939,5.35510204 87.3959184,5.25714286 87.722449,5.25714286 C88.0489796,5.25714286 88.3102041,5.37142857 88.5061224,5.58367347 C88.7020408,5.8122449 88.8163265,6.07346939 88.8163265,6.4" id="XMLID_77_" fill="#FFFFFF" fill-rule="nonzero"></path>
            <g id="Group" transform="translate(79.346939, 8.163265)" fill="#FFFFFF" fill-rule="nonzero">
                <polygon id="Shape" points="0.146938776 13.2244898 0.146938776 0.0489795918 2.6122449 0.0489795918 2.6122449 13.2244898"></polygon>
                <path d="M16.0326531,6.53061224 C16.0816327,9.86122449 14.0571429,13.2408163 9.43673469,13.2408163 C7.82040816,13.2408163 5.87755102,13.2408163 4.26122449,13.2408163 L4.26122449,0.0652442282 C5.87755102,0.0653061224 7.82040816,0.0653061224 9.43673469,0.0653061224 C13.9591837,0.0489795918 15.9673469,3.26530612 16.0326531,6.53061224 Z M6.72653061,10.8408163 L9.43673469,10.8408163 C12.4244898,10.8408163 13.6163265,8.65306122 13.5673469,6.51428571 C13.5183673,4.45714286 12.3102041,2.41632653 9.43673469,2.41632653 L6.72653061,2.41632653 L6.72653061,10.8408163 Z" id="Shape"></path>
            </g>
            <g id="Group">
                <path d="M74.5632653,10.2693878 C75.2979592,9.95918367 75.7714286,9.32244898 75.8530612,8.62040816 L75.8530612,8.24489796 C75.8204082,7.96734694 75.722449,7.67346939 75.5428571,7.39591837 C74.8897959,6.53061224 74.0244898,6.51428571 73.0612245,6.56326531 C73.0285714,5.35510204 73.0938776,4.06530612 72.8816327,2.87346939 C72.6367347,1.43673469 71.3469388,0.571428571 69.9918367,1.3877551 C69.0285714,2.0244898 68.9632653,3.00408163 68.9469388,4.04897959 C68.9306122,4.99591837 68.9795918,5.94285714 69.0122449,6.88979592 C67.8204082,6.9877551 66.3836735,7.02040816 65.7959184,8.09795918 L65.7959184,9.91020408 C65.9918367,10.2367347 66.3020408,10.5142857 66.7102041,10.677551 C67.4285714,10.922449 68.2285714,10.8244898 68.9795918,10.7428571 C69.0122449,12.5387755 69.044898,14.3346939 69.044898,16.1306122 C69.0612245,17.7306122 68.555102,20.4408163 70.8408163,20.7510204 C72.3591837,20.8163265 73.0122449,19.444898 73.077551,18.1387755 C73.0938776,17.6979592 73.0938776,17.2734694 73.077551,16.8326531 C72.9959184,14.7265306 73.044898,12.6040816 73.0612245,10.4979592 C73.5836735,10.4816327 74.0734694,10.4653061 74.5632653,10.2693878 Z M65.7795918,18.2040816 L65.7795918,13.7306122 C65.844898,14.4326531 65.8938776,15.1510204 65.9428571,15.8530612 C65.9918367,16.555102 66.1061224,17.2734694 65.877551,17.9591837 C65.8612245,18.0408163 65.8122449,18.122449 65.7795918,18.2040816 Z M65.7795918,7.11836735 L65.7795918,5.43673469 C65.9102041,5.9755102 65.9102041,6.56326531 65.7795918,7.11836735 Z M65.7795918,8.08163265 C65.6816327,8.26122449 65.6,8.47346939 65.5510204,8.71836735 C65.5020408,9.15918367 65.5836735,9.56734694 65.7795918,9.89387755 L65.7795918,8.08163265 Z M65.7795918,5.43673469 L65.7795918,7.11836735 C65.6653061,7.6244898 65.4530612,8.09795918 65.1428571,8.50612245 C65.2408163,8.73469388 65.2897959,8.96326531 65.322449,9.20816327 C65.5183673,10.7102041 65.6653061,12.2285714 65.7795918,13.7469388 L65.7795918,18.2204082 C64.8816327,20.0163265 62.3346939,19.2979592 62.0897959,17.355102 C61.9918367,16.6204082 61.9591837,15.8693878 61.9102041,15.1183673 L61.5346939,10.6122449 C61.3714286,10.0734694 61.322449,9.43673469 61.4693878,8.89795918 C61.2408163,8.60408163 60.9959184,8.31020408 60.7836735,8 C60.6693878,7.83673469 60.5877551,7.65714286 60.5061224,7.47755102 L60.5061224,4.86530612 C60.9142857,3.86938776 61.8122449,3.13469388 63.1183673,3.23265306 C63.5918367,3.26530612 64.0816327,3.4122449 64.4897959,3.64081633 C65.1755102,4.04897959 65.6,4.70204082 65.7795918,5.43673469 Z M60.5061224,19.5102041 C60.6204082,19.3142857 60.6857143,19.0857143 60.7346939,18.8408163 C60.8,18.3346939 60.7020408,17.9102041 60.5061224,17.5510204 L60.5061224,19.5102041 Z M60.5061224,4.84897959 L60.5061224,7.46122449 C60.1632653,6.62857143 60.1795918,5.64897959 60.5061224,4.84897959 Z M60.5061224,17.5510204 C60.1632653,16.9142857 59.5102041,16.4734694 58.8408163,16.0816327 L58.2857143,16 C57.3061224,16.3428571 56.277551,16.6857143 56.0326531,17.8285714 C56,16.6857143 55.9836735,15.5428571 55.9673469,14.4 C55.9510204,12.7020408 56.522449,6.57959184 53.0285714,7.86938776 C52.5877551,8.06530612 52.277551,8.35918367 52.0326531,8.78367347 C51.4938776,8.62040816 50.9387755,8.48979592 50.3673469,8.4244898 C50.2693878,8.40816327 50.1714286,8.40816327 50.0571429,8.39183673 L50.0571429,12.4408163 C50.3510204,12.4408163 50.6612245,12.4734694 50.9387755,12.5061224 C52.0326531,13.4857143 52.1469388,15.0367347 51.3306122,16.2122449 C51.1836735,16.4244898 51.0204082,16.6040816 50.7918367,16.7510204 C50.6122449,16.8653061 50.3510204,16.8979592 50.0571429,16.8653061 L50.0571429,20.8979592 C50.9714286,20.9469388 51.8367347,20.8163265 52.7183673,20.244898 C53.8285714,21.6326531 55.755102,20.8326531 55.9673469,19.1836735 C55.9673469,19.1673469 55.9836735,19.0693878 55.9836735,19.0857143 C56.6040816,21.1102041 59.5428571,21.2081633 60.4734694,19.4938776 L60.4734694,17.5510204 L60.5061224,17.5510204 Z M50.0897959,8.39183673 L50.0897959,12.4408163 C49.6653061,12.4408163 49.2408163,12.5387755 48.9306122,12.8489796 C48.1795918,13.6 48.277551,14.8734694 48.3265306,15.8530612 C48.3591837,16.3918367 49.322449,16.8326531 50.0897959,16.8816327 L50.0897959,20.8979592 C49.5510204,20.8653061 49.0122449,20.7836735 48.4244898,20.6857143 C46.8244898,20.4244898 45.5510204,19.1183673 44.8163265,17.7306122 C44.1469388,16.4734694 44.3428571,14.3183673 44.6367347,12.9632653 C44.8489796,11.9673469 45.3877551,10.5142857 46.122449,9.79591837 C47.0530612,8.91428571 48.7836735,8.34285714 50.0897959,8.39183673 Z M38.4816327,20.9795918 C39.1183673,20.9632653 39.7714286,20.8489796 40.4081633,20.7020408 C41.8285714,20.3591837 42.7591837,19.3632653 43.5428571,18.2040816 C44.7020408,16.4897959 44.2612245,13.5836735 43.5428571,11.755102 C42.7918367,9.84489796 41.7959184,9.12653061 39.8693878,8.60408163 C39.4122449,8.48979592 38.955102,8.45714286 38.4979592,8.47346939 L38.4979592,12.522449 C38.9387755,12.522449 39.3632653,12.6204082 39.6734694,12.9306122 C40.4734694,13.7306122 40.3428571,15.1020408 40.2612245,16.1306122 C39.6897959,16.555102 39.0693878,16.9306122 38.4979592,16.9632653 L38.4979592,20.9795918 L38.4816327,20.9795918 Z M38.4816327,8.47346939 L38.4816327,12.522449 C38.1714286,12.522449 37.8612245,12.555102 37.5836735,12.5877551 C36.522449,13.4857143 36.3755102,15.0367347 37.1265306,16.1795918 C37.5346939,16.7836735 38.0081633,16.9959184 38.4979592,16.9632653 L38.4979592,20.9632653 C37.5673469,20.9959184 36.6530612,20.8326531 35.8040816,20.2938776 C34.8734694,21.4530612 33.1755102,21.1265306 32.6530612,19.755102 C32.3591837,18.7918367 32.8489796,15.1836735 32.4244898,14.8734694 L32.3428571,14.8734694 C31.5755102,18.1714286 28.6530612,19.3142857 25.5183673,18.8081633 C23.9183673,18.5142857 22.4,17.355102 21.7469388,15.8693878 C21.3387755,14.8897959 21.4204082,13.8285714 21.5510204,12.8 C21.6326531,12.277551 21.2897959,12.7836735 21.1591837,12.8979592 C19.9673469,13.9918367 18.6285714,13.1918367 17.6326531,12.3102041 C17.1102041,11.8367347 16.3265306,12.277551 16,12.8 C16.0326531,14.8571429 16.1632653,17.0122449 16.0163265,19.0530612 L16,19.2653061 C15.7387755,21.5510204 12.7020408,21.4857143 12.2938776,19.5102041 C12.0653061,18.1387755 12.1306122,16.6204082 12.0816327,15.2326531 C12.0816327,14.9877551 12.0979592,14.8897959 11.9836735,14.677551 C11.6734694,14.9877551 11.8857143,17.2571429 11.9183673,17.8612245 C11.9346939,18.3020408 11.9510204,18.7591837 11.9020408,19.2 C11.722449,20.8489796 9.8122449,21.7959184 8.63673469,20.3428571 C7.88571429,20.8326531 6.93877551,21.044898 5.94285714,21.0285714 L5.94285714,17.0122449 C6.43265306,17.044898 6.90612245,16.8326531 7.31428571,16.2122449 C8.01632653,15.1183673 7.90204082,13.5183673 6.84081633,12.6693878 C6.54693878,12.6367347 6.25306122,12.5877551 5.94285714,12.6040816 L5.94285714,8.5877551 C6.36734694,8.60408163 6.8244898,8.66938776 7.33061224,8.78367347 C7.52653061,8.83265306 7.72244898,8.88163265 7.93469388,8.94693878 C8.40816327,8.09795918 9.30612245,7.72244898 10.2367347,7.96734694 C11.3306122,8.3755102 11.6081633,9.32244898 11.722449,10.3673469 L11.9346939,10.2857143 C12.3755102,9.19183673 13.4040816,8.3755102 14.6285714,8.88163265 C15.5755102,8.32653061 16.7836735,8.24489796 17.844898,8.34285714 C19.2816327,8.50612245 21.3877551,9.51836735 21.7632653,11.0204082 C21.8285714,11.2489796 21.8938776,10.9714286 21.9102041,10.8897959 C22.2367347,9.8122449 22.7591837,8.8 23.2489796,7.7877551 C24.1632653,7.16734694 25.1102041,6.75918367 26.1061224,7.54285714 C26.5959184,7.98367347 26.8244898,8.57142857 26.8081633,9.2244898 C26.7428571,10.4489796 23.5918367,15.1510204 26.7265306,15.1346939 C28.0816327,15.1183673 28.3102041,14.2040816 28.3428571,13.0285714 C28.3755102,11.3306122 26.2367347,9.56734694 28.1795918,8.13061224 C29.2408163,7.44489796 30.5306122,7.60816327 31.2489796,8.66938776 C31.8204082,9.56734694 32.1795918,10.7102041 32.3918367,11.7387755 C32.6857143,11.8857143 32.6693878,10.1714286 32.6693878,9.91020408 C32.7510204,7.24897959 32.6040816,4.53877551 32.8489796,1.89387755 C33.1428571,-0.832653061 36.7510204,-0.326530612 36.7020408,2.25306122 C36.5714286,4.45714286 36.555102,6.66122449 36.522449,8.86530612 C37.1918367,8.66938776 37.844898,8.52244898 38.4816327,8.47346939 Z M5.94285714,8.55510204 L5.94285714,12.5714286 C5.50204082,12.5714286 5.09387755,12.6693878 4.76734694,12.9795918 C3.98367347,13.7632653 4.09795918,15.1510204 4.17959184,16.1632653 C4.75102041,16.5877551 5.35510204,16.9469388 5.92653061,16.9959184 L5.92653061,21.0122449 C4.11428571,20.9959184 2.20408163,20.1959184 1.28979592,18.8244898 C1.19183673,18.677551 1.09387755,18.5306122 0.995918367,18.4 C0.506122449,17.6653061 0.228571429,16.6530612 0.179591837,15.5755102 L0.179591837,14.7265306 C0.293877551,12.3918367 1.32244898,9.92653061 3.13469388,9.15918367 C4.17959184,8.73469388 5.0122449,8.53877551 5.94285714,8.55510204 Z" id="Shape" fill="#F26E3D"></path>
                <path d="M74.5632653,10.2693878 C75.7061224,9.77959184 76.244898,8.48979592 75.5428571,7.37959184 C74.8897959,6.51428571 74.0244898,6.49795918 73.0612245,6.54693878 C73.0285714,5.33877551 73.0938776,4.04897959 72.8816327,2.85714286 C72.6367347,1.42040816 71.3469388,0.555102041 69.9918367,1.37142857 C69.0285714,2.00816327 68.9632653,2.9877551 68.9469388,4.03265306 C68.9306122,4.97959184 68.9795918,5.92653061 69.0122449,6.87346939 C67.6244898,7.00408163 65.8938776,7.00408163 65.5673469,8.71836735 C65.4693878,9.6 65.8938776,10.3183673 66.7102041,10.6612245 C67.4285714,10.9061224 68.2285714,10.8081633 68.9795918,10.7265306 C69.0122449,12.522449 69.044898,14.3183673 69.044898,16.1142857 C69.0612245,17.7142857 68.555102,20.4244898 70.8408163,20.7346939 C72.3591837,20.8 73.0122449,19.4285714 73.077551,18.122449 C73.0938776,17.6816327 73.0938776,17.2571429 73.077551,16.8163265 C72.9959184,14.7102041 73.044898,12.5877551 73.0612245,10.4816327 C73.5836735,10.4816327 74.0734694,10.4653061 74.5632653,10.2693878 Z M61.9102041,15.1183673 C61.9755102,15.8530612 62.0081633,16.6204082 62.0897959,17.355102 C62.3510204,19.3795918 65.0938776,20.0653061 65.8938776,17.9591837 C66.1061224,17.2734694 66.0081633,16.555102 65.9591837,15.8530612 C65.7795918,13.6326531 65.6163265,11.3959184 65.3387755,9.19183673 C65.3061224,8.94693878 65.2408163,8.71836735 65.1591837,8.48979592 C66.2857143,7.02040816 66.1714286,4.63673469 64.522449,3.6244898 C64.0979592,3.39591837 63.6244898,3.24897959 63.1510204,3.21632653 C60.555102,3.02040816 59.5918367,6.10612245 60.8163265,8 C61.0285714,8.31020408 61.2571429,8.60408163 61.5020408,8.89795918 C61.355102,9.43673469 61.4040816,10.0734694 61.5673469,10.6122449 L61.9102041,15.1183673 Z M46.122449,9.77959184 C45.3877551,10.4979592 44.8653061,11.9510204 44.6367347,12.9469388 C44.3428571,14.3020408 44.1469388,16.4734694 44.8163265,17.7142857 C45.5510204,19.1020408 46.8244898,20.4081633 48.4244898,20.6693878 C49.9918367,20.9142857 51.3306122,21.1428571 52.7673469,20.2285714 C53.877551,21.6163265 55.8040816,20.8163265 56.0163265,19.1673469 C56.0163265,19.1510204 56.0326531,19.0530612 56.0326531,19.0693878 C56.7183673,21.3387755 60.3102041,21.1755102 60.7510204,18.8244898 C60.9142857,17.4530612 59.9183673,16.6857143 58.8571429,16.0653061 L58.2857143,16 C57.3061224,16.3428571 56.277551,16.6857143 56.0326531,17.8285714 C56,16.6857143 55.9836735,15.5428571 55.9673469,14.4 C55.9510204,12.7020408 56.522449,6.57959184 53.0285714,7.86938776 C52.5877551,8.06530612 52.277551,8.35918367 52.0326531,8.78367347 C51.4938776,8.62040816 50.9387755,8.48979592 50.3673469,8.4244898 C49.0612245,8.24489796 47.1183673,8.84897959 46.122449,9.77959184 Z M51.3632653,16.2285714 C51.2163265,16.4408163 51.0530612,16.6204082 50.8244898,16.7673469 C50.1877551,17.1591837 48.3755102,16.5877551 48.3265306,15.8530612 C48.2612245,14.8734694 48.1632653,13.6 48.9306122,12.8489796 C49.4530612,12.3265306 50.2857143,12.4244898 50.9714286,12.522449 C52.0653061,13.5020408 52.1795918,15.0530612 51.3632653,16.2285714 Z M11.9836735,14.6612245 C11.6734694,14.9714286 11.8857143,17.2408163 11.9183673,17.844898 C11.9346939,18.2857143 11.9510204,18.7428571 11.9020408,19.1836735 C11.722449,20.8326531 9.8122449,21.7795918 8.63673469,20.3265306 C6.51428571,21.6979592 2.72653061,20.9469388 1.32244898,18.8408163 C1.2244898,18.6938776 1.12653061,18.5469388 1.02857143,18.4163265 C-0.620408163,15.9673469 0.26122449,10.4163265 3.18367347,9.1755102 C4.65306122,8.57142857 5.76326531,8.39183673 7.34693878,8.76734694 C7.54285714,8.81632653 7.73877551,8.86530612 7.95102041,8.93061224 C8.4244898,8.08163265 9.32244898,7.70612245 10.2530612,7.95102041 C11.3469388,8.34285714 11.6244898,9.30612245 11.7387755,10.3510204 L11.9510204,10.2693878 C12.3918367,9.1755102 13.4204082,8.35918367 14.644898,8.86530612 C15.5918367,8.31020408 16.8,8.22857143 17.8612245,8.32653061 C19.2979592,8.48979592 21.4040816,9.50204082 21.7795918,11.0040816 C21.844898,11.2326531 21.9102041,10.955102 21.9265306,10.8734694 C22.2530612,9.79591837 22.7755102,8.78367347 23.2653061,7.77142857 C24.1795918,7.15102041 25.1265306,6.74285714 26.122449,7.52653061 C26.6122449,7.96734694 26.8408163,8.55510204 26.8244898,9.20816327 C26.7591837,10.4326531 23.6081633,15.1346939 26.7428571,15.1183673 C28.0979592,15.1020408 28.3265306,14.1877551 28.3591837,13.0122449 C28.3918367,11.3142857 26.2530612,9.55102041 28.1959184,8.11428571 C29.2571429,7.42857143 30.5469388,7.59183673 31.2653061,8.65306122 C31.8367347,9.55102041 32.1959184,10.6938776 32.4081633,11.722449 C32.7020408,11.8693878 32.6857143,10.155102 32.6857143,9.89387755 C32.7673469,7.23265306 32.6204082,4.52244898 32.8653061,1.87755102 C33.1591837,-0.848979592 36.7673469,-0.342857143 36.7183673,2.23673469 C36.5877551,4.44081633 36.5714286,6.64489796 36.5387755,8.84897959 C37.6163265,8.53877551 38.7102041,8.31020408 39.8204082,8.60408163 C41.7469388,9.12653061 42.7428571,9.84489796 43.4938776,11.755102 C44.2122449,13.5836735 44.6530612,16.4734694 43.4938776,18.2040816 C42.7102041,19.3632653 41.7795918,20.3591837 40.3591837,20.7020408 C38.7755102,21.044898 37.1591837,21.2244898 35.7387755,20.3102041 C34.8081633,21.4693878 33.1102041,21.1428571 32.5877551,19.7714286 C32.2938776,18.8081633 32.7836735,15.2 32.3591837,14.8897959 L32.277551,14.8897959 C31.5102041,18.1877551 28.5877551,19.3306122 25.4530612,18.8244898 C23.8530612,18.5306122 22.3346939,17.3714286 21.6816327,15.8857143 C21.2734694,14.9061224 21.355102,13.844898 21.4857143,12.8163265 C21.5673469,12.2938776 21.2244898,12.8 21.0938776,12.9142857 C19.9020408,14.0081633 18.5632653,13.2081633 17.5673469,12.3265306 C17.044898,11.8530612 16.2612245,12.2938776 15.9346939,12.8163265 C15.9673469,14.8734694 16.0979592,17.0285714 15.9510204,19.0693878 L15.9346939,19.2816327 C15.6734694,21.5673469 12.6367347,21.5020408 12.2285714,19.5265306 C12,18.155102 12.0653061,16.6367347 12.0163265,15.2489796 C12.0979592,14.9714286 12.1142857,14.8734694 11.9836735,14.6612245 Z M37.1265306,16.1959184 C38.0244898,17.5346939 39.1836735,16.9142857 40.2612245,16.1306122 C40.3428571,15.1020408 40.4734694,13.7306122 39.6734694,12.9306122 C39.1346939,12.4081633 38.3020408,12.5061224 37.6,12.6040816 C36.522449,13.5020408 36.3755102,15.0530612 37.1265306,16.1959184 Z M7.31428571,16.1959184 C6.43265306,17.5510204 5.25714286,16.9469388 4.17959184,16.1632653 C4.08163265,15.1510204 3.98367347,13.7632653 4.76734694,12.9795918 C5.30612245,12.4571429 6.13877551,12.555102 6.84081633,12.6530612 C7.91836735,13.5020408 8.03265306,15.0857143 7.31428571,16.1959184 Z" id="Shape" fill="#F06E3E"></path>
                <path d="M10.0081633,21.0612245 C9.64897959,21.0612245 9.11020408,20.9306122 8.62040816,20.3591837 C7.91836735,20.8 7.00408163,21.044898 6.00816327,21.044898 C4.06530612,21.044898 2.15510204,20.1632653 1.28979592,18.8408163 C1.2244898,18.7265306 1.14285714,18.6285714 1.06122449,18.5142857 L0.995918367,18.4163265 C0.0816326531,17.0612245 -0.0979591837,14.7265306 0.53877551,12.5877551 C1.04489796,10.8571429 1.9755102,9.64897959 3.15102041,9.14285714 C4.17959184,8.71836735 4.96326531,8.53877551 5.76326531,8.53877551 C6.25306122,8.53877551 6.75918367,8.60408163 7.31428571,8.73469388 C7.52653061,8.78367347 7.72244898,8.83265306 7.88571429,8.88163265 C8.26122449,8.2122449 8.89795918,7.83673469 9.64897959,7.83673469 C9.84489796,7.83673469 10.0244898,7.86938776 10.2204082,7.91836735 C11.3469388,8.32653061 11.6081633,9.35510204 11.722449,10.3020408 L11.8857143,10.2367347 C12.2612245,9.28979592 13.044898,8.66938776 13.877551,8.66938776 C14.122449,8.66938776 14.3673469,8.71836735 14.5959184,8.81632653 C15.2489796,8.44081633 16.0653061,8.24489796 17.0285714,8.24489796 C17.2897959,8.24489796 17.5510204,8.26122449 17.8122449,8.29387755 C19.2326531,8.45714286 21.3877551,9.46938776 21.7469388,10.9877551 C21.7632653,11.0367347 21.7632653,11.0530612 21.7795918,11.0530612 C21.7959184,11.0367347 21.8122449,10.9877551 21.844898,10.8897959 L21.844898,10.8571429 C22.1387755,9.89387755 22.5959184,8.97959184 23.0204082,8.08163265 C23.0693878,7.96734694 23.1346939,7.85306122 23.1836735,7.75510204 C23.1836735,7.75510204 23.1836735,7.73877551 23.2,7.73877551 C23.6571429,7.4122449 24.277551,7.05306122 24.9306122,7.05306122 C25.3387755,7.05306122 25.7306122,7.2 26.1061224,7.49387755 C26.5959184,7.93469388 26.8408163,8.52244898 26.8244898,9.20816327 C26.8081633,9.55102041 26.5632653,10.1387755 26.2693878,10.8244898 C25.7142857,12.1632653 25.0122449,13.8122449 25.5510204,14.6122449 C25.7632653,14.922449 26.155102,15.0857143 26.7102041,15.0857143 L26.7265306,15.0857143 C28,15.0693878 28.277551,14.2693878 28.3265306,13.0122449 C28.3428571,12.4244898 28.0816327,11.8040816 27.8367347,11.2163265 C27.3795918,10.1387755 26.9061224,9.02857143 28.1795918,8.09795918 C28.6040816,7.82040816 29.0612245,7.67346939 29.5183673,7.67346939 C30.2367347,7.67346939 30.8571429,8.01632653 31.2816327,8.63673469 C31.9183673,9.61632653 32.2612245,10.8408163 32.4244898,11.7061224 C32.4244898,11.7061224 32.4244898,11.7061224 32.4244898,11.7061224 C32.5061224,11.7061224 32.6204082,11.4122449 32.6367347,10.0408163 C32.6367347,9.9755102 32.6367347,9.92653061 32.6367347,9.89387755 C32.6693878,8.94693878 32.6693878,7.96734694 32.6693878,7.03673469 C32.6693878,5.33877551 32.6693878,3.59183673 32.8326531,1.87755102 C32.9795918,0.506122449 33.9265306,0.0326530612 34.6938776,0.0326530612 C35.2326531,0.0326530612 35.7714286,0.26122449 36.1632653,0.653061224 C36.5714286,1.06122449 36.7673469,1.61632653 36.7673469,2.23673469 C36.6367347,4.24489796 36.6204082,6.30204082 36.6040816,8.27755102 L36.6040816,8.81632653 C37.2571429,8.63673469 38.0244898,8.44081633 38.7918367,8.44081633 C39.1673469,8.44081633 39.5265306,8.48979592 39.8693878,8.57142857 C41.9265306,9.12653061 42.8571429,9.92653061 43.5755102,11.7387755 C44.3591837,13.6979592 44.6857143,16.555102 43.5755102,18.2040816 C42.922449,19.1836735 41.9591837,20.3428571 40.4244898,20.7183673 C39.8204082,20.8489796 39.0367347,20.9959184 38.2530612,20.9959184 C37.3061224,20.9959184 36.5061224,20.7836735 35.8040816,20.3265306 C35.4285714,20.7836735 34.922449,21.0285714 34.3836735,21.0285714 C33.6,21.0285714 32.9142857,20.522449 32.6367347,19.755102 C32.4897959,19.2979592 32.522449,18.2530612 32.555102,17.2571429 C32.5877551,16.1795918 32.6204082,15.0693878 32.4244898,14.8897959 L32.3755102,14.8897959 C31.7714286,17.4693878 29.7959184,18.9387755 26.9387755,18.9387755 C26.4816327,18.9387755 26.0081633,18.9061224 25.5183673,18.8244898 C23.8857143,18.5306122 22.3673469,17.3387755 21.7306122,15.8530612 C21.3387755,14.8734694 21.4040816,13.8285714 21.5183673,12.7673469 C21.5346939,12.6204082 21.5183673,12.5877551 21.5183673,12.5714286 C21.5183673,12.5714286 21.5183673,12.5714286 21.5183673,12.5714286 C21.4693878,12.5714286 21.3387755,12.7183673 21.2734694,12.8 C21.2408163,12.8326531 21.2081633,12.8653061 21.1918367,12.8979592 C20.8,13.2571429 20.3755102,13.4367347 19.9020408,13.4367347 C19.2163265,13.4367347 18.4816327,13.0612245 17.6326531,12.3102041 C17.4857143,12.1795918 17.322449,12.1142857 17.1265306,12.1142857 C16.6857143,12.1142857 16.2612245,12.4571429 16.0489796,12.7836735 C16.0653061,13.2734694 16.0653061,13.7959184 16.0816327,14.2857143 C16.1306122,15.8530612 16.1632653,17.4857143 16.0653061,19.0204082 L16.0489796,19.2326531 C15.9020408,20.4408163 15.0040816,20.9795918 14.1714286,20.9795918 C13.3877551,20.9795918 12.5061224,20.5061224 12.2938776,19.477551 C12.1306122,18.5142857 12.1142857,17.4693878 12.0979592,16.4571429 C12.0979592,16.0326531 12.0816327,15.6081633 12.0653061,15.2 L12.0653061,15.1183673 C12.0653061,14.9387755 12.0653061,14.8408163 11.9836735,14.6938776 C11.7714286,15.0040816 11.8693878,16.522449 11.9183673,17.3387755 C11.9346939,17.5346939 11.9346939,17.7142857 11.9510204,17.8285714 C11.9673469,18.2530612 11.9836735,18.7102041 11.9346939,19.1673469 C11.8040816,20.244898 10.9714286,21.0612245 10.0081633,21.0612245 Z M8.63673469,20.2938776 C8.65306122,20.2938776 8.65306122,20.2938776 8.65306122,20.3102041 C9.02857143,20.7673469 9.50204082,21.0122449 10.0081633,21.0122449 C10.9387755,21.0122449 11.755102,20.2122449 11.8693878,19.1836735 C11.9183673,18.7265306 11.9020408,18.2857143 11.8857143,17.844898 C11.8857143,17.7306122 11.8693878,17.5673469 11.8530612,17.355102 C11.7877551,16.4408163 11.6897959,14.8897959 11.9673469,14.6285714 C11.9673469,14.6285714 11.9836735,14.6122449 11.9836735,14.6285714 C12,14.6285714 12,14.6285714 12,14.644898 C12.1142857,14.8408163 12.1142857,14.9387755 12.1142857,15.1346939 L12.1142857,15.2 C12.1306122,15.6081633 12.1306122,16.0489796 12.1469388,16.4571429 C12.1632653,17.4693878 12.1795918,18.4979592 12.3428571,19.4612245 C12.555102,20.4734694 13.4040816,20.9142857 14.1714286,20.9142857 C14.9877551,20.9142857 15.8530612,20.3918367 16,19.2163265 L16.0163265,19.0040816 C16.1142857,17.4530612 16.0816327,15.8367347 16.0326531,14.2693878 C16.0163265,13.7632653 16,13.2571429 16,12.7510204 C16,12.7510204 16,12.7346939 16,12.7346939 C16.2122449,12.3918367 16.6693878,12.0326531 17.1428571,12.0326531 C17.355102,12.0326531 17.5346939,12.0979592 17.6816327,12.244898 C18.5306122,12.9959184 19.2489796,13.355102 19.9183673,13.355102 C20.3755102,13.355102 20.7836735,13.1755102 21.1591837,12.8326531 C21.1755102,12.8163265 21.2081633,12.7836735 21.2408163,12.7346939 C21.355102,12.5877551 21.4530612,12.4897959 21.5346939,12.4897959 C21.5510204,12.4897959 21.5673469,12.4897959 21.5836735,12.5061224 C21.6163265,12.5387755 21.6163265,12.6204082 21.6,12.7510204 C21.4857143,13.8122449 21.4040816,14.8408163 21.7959184,15.8040816 C22.4163265,17.2571429 23.9346939,18.4326531 25.5346939,18.7265306 C26.0081633,18.8081633 26.4816327,18.8408163 26.9387755,18.8408163 C29.7632653,18.8408163 31.7387755,17.3714286 32.3265306,14.8081633 C32.3265306,14.7918367 32.3428571,14.7918367 32.3591837,14.7918367 L32.4408163,14.7918367 C32.4408163,14.7918367 32.4571429,14.7918367 32.4571429,14.7918367 C32.6857143,14.955102 32.6530612,16 32.6204082,17.2081633 C32.5877551,18.2040816 32.555102,19.2326531 32.6857143,19.6897959 C32.9632653,20.4408163 33.6326531,20.9142857 34.3836735,20.9142857 C34.922449,20.9142857 35.4122449,20.6693878 35.7877551,20.2122449 C35.8040816,20.1959184 35.8204082,20.1959184 35.8204082,20.2122449 C36.522449,20.6693878 37.322449,20.8816327 38.2693878,20.8816327 C39.0530612,20.8816327 39.8204082,20.7346939 40.4244898,20.6040816 C41.9428571,20.244898 42.8897959,19.0857143 43.5265306,18.122449 C44.6204082,16.4897959 44.2938776,13.6489796 43.5102041,11.7061224 C42.8081633,9.92653061 41.877551,9.12653061 39.8530612,8.57142857 C39.5102041,8.48979592 39.1673469,8.44081633 38.7918367,8.44081633 C38.0244898,8.44081633 37.2408163,8.63673469 36.5877551,8.81632653 C36.5714286,8.81632653 36.5714286,8.81632653 36.555102,8.81632653 C36.555102,8.81632653 36.5387755,8.8 36.5387755,8.8 L36.5387755,8.22857143 C36.555102,6.25306122 36.5877551,4.19591837 36.7020408,2.1877551 C36.7183673,1.56734694 36.5061224,1.04489796 36.1142857,0.636734694 C35.7387755,0.26122449 35.2163265,0.0489795918 34.6938776,0.0489795918 C33.9591837,0.0489795918 33.0285714,0.52244898 32.8979592,1.84489796 C32.7346939,3.54285714 32.7346939,5.30612245 32.7510204,6.9877551 C32.7510204,7.93469388 32.7510204,8.89795918 32.7183673,9.84489796 C32.7183673,9.87755102 32.7183673,9.92653061 32.7183673,9.9755102 C32.7020408,11.1836735 32.6204082,11.7061224 32.4408163,11.7061224 C32.4244898,11.7061224 32.4081633,11.7061224 32.3918367,11.6897959 C32.3755102,11.6897959 32.3755102,11.6734694 32.3755102,11.6734694 C32.1959184,10.8244898 31.8693878,9.6 31.2326531,8.60408163 C30.8244898,8 30.2040816,7.65714286 29.5183673,7.65714286 C29.077551,7.65714286 28.6204082,7.80408163 28.2122449,8.06530612 C26.9714286,8.97959184 27.4122449,10.0244898 27.8857143,11.1183673 C28.1306122,11.7061224 28.3918367,12.3265306 28.3918367,12.9306122 C28.3591837,14.2040816 28.0653061,15.0530612 26.7428571,15.0693878 L26.7265306,15.0693878 C26.1387755,15.0693878 25.7306122,14.9061224 25.5183673,14.5795918 C24.9632653,13.7632653 25.6816327,12.0816327 26.2367347,10.7428571 C26.5306122,10.0571429 26.7755102,9.46938776 26.7918367,9.14285714 C26.8081633,8.47346939 26.5632653,7.90204082 26.0897959,7.47755102 C25.7306122,7.2 25.355102,7.05306122 24.9632653,7.05306122 C24.3428571,7.05306122 23.7387755,7.4122449 23.2816327,7.72244898 C23.2326531,7.83673469 23.1673469,7.93469388 23.1183673,8.04897959 C22.677551,8.93061224 22.2204082,9.86122449 21.9428571,10.8081633 L21.9428571,10.8408163 C21.9102041,10.955102 21.877551,11.0530612 21.8285714,11.0530612 C21.7795918,11.0530612 21.7632653,10.9877551 21.7469388,10.9387755 C21.3877551,9.45306122 19.2489796,8.44081633 17.8612245,8.27755102 C17.6,8.24489796 17.3387755,8.22857143 17.077551,8.22857143 C16.1142857,8.22857143 15.2979592,8.4244898 14.6612245,8.8 C14.6612245,8.8 14.644898,8.8 14.6285714,8.8 C14.3836735,8.70204082 14.155102,8.65306122 13.9102041,8.65306122 C13.0938776,8.65306122 12.3428571,9.25714286 11.9673469,10.1877551 C11.9673469,10.1877551 11.9510204,10.2040816 11.9510204,10.2040816 L11.7387755,10.2857143 C11.722449,10.2857143 11.722449,10.2857143 11.7061224,10.2857143 C11.7061224,10.2857143 11.6897959,10.2693878 11.6897959,10.2693878 C11.5918367,9.27346939 11.3306122,8.31020408 10.2204082,7.90204082 C10.0408163,7.85306122 9.84489796,7.83673469 9.66530612,7.83673469 C8.94693878,7.83673469 8.31020408,8.2122449 7.95102041,8.86530612 C7.95102041,8.88163265 7.93469388,8.88163265 7.91836735,8.88163265 C7.73877551,8.83265306 7.54285714,8.78367347 7.33061224,8.71836735 C6.7755102,8.5877551 6.26938776,8.52244898 5.77959184,8.52244898 C4.97959184,8.52244898 4.19591837,8.70204082 3.18367347,9.12653061 C2.0244898,9.61632653 1.11020408,10.8244898 0.604081633,12.5387755 C-0.0326530612,14.6612245 0.146938776,16.9959184 1.04489796,18.3183673 L1.11020408,18.4163265 C1.19183673,18.5306122 1.25714286,18.6285714 1.33877551,18.7428571 C2.20408163,20.0489796 4.08163265,20.9142857 6.00816327,20.9142857 C7.02040816,20.9795918 7.91836735,20.7346939 8.63673469,20.2938776 C8.62040816,20.2938776 8.62040816,20.2938776 8.63673469,20.2938776 Z M54.1387755,20.9795918 C53.6163265,20.9795918 53.1265306,20.7346939 52.7510204,20.277551 C52.0489796,20.7183673 51.3142857,20.9306122 50.4326531,20.9306122 C49.7959184,20.9306122 49.1265306,20.8326531 48.4244898,20.7183673 C46.4,20.3918367 45.2081633,18.5306122 44.7836735,17.7469388 C44.1306122,16.5387755 44.2612245,14.4816327 44.6040816,12.9632653 C44.8489796,11.8693878 45.4040816,10.4653061 46.0897959,9.77959184 C46.955102,8.96326531 48.555102,8.3755102 49.8938776,8.3755102 C50.0734694,8.3755102 50.2367347,8.39183673 50.3836735,8.40816327 C50.8897959,8.47346939 51.4285714,8.5877551 52.0163265,8.76734694 C52.244898,8.35918367 52.5714286,8.06530612 53.0122449,7.86938776 C53.8612245,7.55918367 54.5306122,7.65714286 55.0204082,8.14693878 C56.0979592,9.24081633 56.0326531,12.0163265 56,13.6653061 C56,13.9591837 55.9836735,14.2204082 55.9836735,14.4163265 L55.9836735,14.6938776 C56,15.6571429 56.0163265,16.6693878 56.0326531,17.6489796 C56.3428571,16.6530612 57.3061224,16.3102041 58.2204082,16 L58.2367347,16 C58.2367347,16 58.2530612,16 58.2530612,16 L58.8081633,16.0816327 C58.8081633,16.0816327 58.8081633,16.0816327 58.8244898,16.0816327 C59.9183673,16.7183673 60.8979592,17.4857143 60.7346939,18.8734694 C60.4897959,20.1795918 59.3469388,20.7673469 58.3020408,20.7673469 C57.2244898,20.7673469 56.3265306,20.1795918 56,19.2489796 C55.9020408,20.2285714 55.0857143,20.9795918 54.1387755,20.9795918 Z M52.7673469,20.2122449 C52.7836735,20.2122449 52.7836735,20.2122449 52.7836735,20.2285714 C53.1428571,20.6857143 53.6163265,20.9306122 54.1387755,20.9306122 C55.0530612,20.9306122 55.8530612,20.1795918 55.9836735,19.1836735 L55.9836735,19.1673469 C56,19.0693878 56,19.0693878 56.0163265,19.0693878 C56.0326531,19.0693878 56.0489796,19.0857143 56.0489796,19.1020408 C56.3428571,20.0653061 57.2408163,20.6857143 58.3346939,20.6857143 C59.3469388,20.6857143 60.4734694,20.1142857 60.7020408,18.8408163 C60.8653061,17.4857143 59.9020408,16.7346939 58.8244898,16.1142857 L58.2857143,16.0489796 L58.2693878,16.0489796 C57.3061224,16.3755102 56.2938776,16.7346939 56.0653061,17.8612245 C56.0653061,17.877551 56.0489796,17.877551 56.0326531,17.877551 C56.0163265,17.877551 56,17.8612245 56,17.844898 C55.9673469,16.7836735 55.9510204,15.722449 55.9346939,14.677551 L55.9346939,14.4 C55.9346939,14.2040816 55.9346939,13.9428571 55.9510204,13.6489796 C55.9836735,12 56.0489796,9.24081633 54.9877551,8.16326531 C54.6938776,7.86938776 54.3346939,7.72244898 53.9265306,7.72244898 C53.6653061,7.72244898 53.3714286,7.7877551 53.044898,7.90204082 C52.6040816,8.09795918 52.2938776,8.39183673 52.0653061,8.8 C52.0653061,8.81632653 52.0489796,8.81632653 52.0326531,8.81632653 C51.4285714,8.63673469 50.8897959,8.52244898 50.3836735,8.45714286 C50.2367347,8.44081633 50.0734694,8.4244898 49.8938776,8.4244898 C48.5714286,8.4244898 46.9877551,9.0122449 46.122449,9.8122449 C45.4367347,10.4816327 44.8816327,11.8857143 44.6530612,12.9632653 C44.3265306,14.4816327 44.1959184,16.522449 44.8326531,17.7142857 C45.2571429,18.4979592 46.4326531,20.3265306 48.4244898,20.6530612 C49.1265306,20.7673469 49.7959184,20.8653061 50.4326531,20.8653061 C51.3142857,20.8653061 52.0489796,20.6693878 52.7673469,20.2122449 C52.7510204,20.2122449 52.7510204,20.2122449 52.7673469,20.2122449 Z M70.9387755,20.7673469 C70.9387755,20.7673469 70.9387755,20.7673469 70.9387755,20.7673469 C70.9061224,20.7673469 70.8734694,20.7673469 70.8244898,20.7673469 C68.8489796,20.5061224 68.9142857,18.4979592 68.9795918,16.8816327 C68.9959184,16.6040816 68.9959184,16.3428571 68.9959184,16.1142857 C68.9959184,14.7918367 68.9632653,13.4367347 68.9469388,12.1469388 C68.9469388,11.6897959 68.9306122,11.2326531 68.9306122,10.7755102 L68.8,10.7918367 C68.4571429,10.8244898 68.1142857,10.8571429 67.755102,10.8571429 C67.3469388,10.8571429 66.9877551,10.8081633 66.677551,10.6938776 C65.844898,10.3510204 65.4040816,9.6 65.5183673,8.71836735 C65.844898,7.10204082 67.3632653,6.97142857 68.7020408,6.87346939 C68.7836735,6.87346939 68.8816327,6.85714286 68.9632653,6.85714286 C68.9632653,6.72653061 68.9469388,6.59591837 68.9469388,6.46530612 C68.9142857,5.66530612 68.8979592,4.84897959 68.8979592,4.04897959 C68.9142857,2.95510204 69.0122449,1.99183673 69.9591837,1.37142857 C70.3183673,1.15918367 70.677551,1.06122449 71.0204082,1.06122449 C71.9346939,1.06122449 72.7183673,1.8122449 72.8979592,2.88979592 C73.044898,3.77142857 73.0612245,4.71836735 73.0612245,5.61632653 C73.0612245,5.92653061 73.0612245,6.25306122 73.077551,6.56326531 C73.2734694,6.54693878 73.4204082,6.54693878 73.5510204,6.54693878 C74.2530612,6.54693878 74.9877551,6.64489796 75.5591837,7.4122449 C75.8857143,7.91836735 75.9673469,8.48979592 75.7877551,9.02857143 C75.6081633,9.6 75.1510204,10.0897959 74.5632653,10.3510204 C74.0897959,10.5469388 73.6326531,10.5632653 73.0938776,10.5632653 C73.0938776,10.8897959 73.0938776,11.2163265 73.077551,11.5428571 C73.0612245,13.2897959 73.0285714,15.1020408 73.0938776,16.8653061 C73.1102041,17.2571429 73.1265306,17.7142857 73.0938776,18.1714286 C73.044898,19.3469388 72.4408163,20.7673469 70.9387755,20.7673469 Z M68.9632653,10.6938776 C68.9632653,10.6938776 68.9795918,10.6938776 68.9795918,10.6938776 C68.9795918,10.6938776 68.9959184,10.7102041 68.9959184,10.7102041 C68.9959184,11.1836735 69.0122449,11.6408163 69.0122449,12.1142857 C69.0285714,13.4204082 69.044898,14.7591837 69.0612245,16.0816327 C69.0612245,16.3102041 69.044898,16.5714286 69.044898,16.8489796 C68.9795918,18.4326531 68.9142857,20.4081633 70.8408163,20.6693878 C70.8734694,20.6693878 70.9061224,20.6693878 70.9387755,20.6693878 C72.3918367,20.6693878 72.9795918,19.2816327 73.044898,18.0897959 C73.0612245,17.6326531 73.0612245,17.1918367 73.044898,16.7836735 C72.9795918,15.0040816 72.9959184,13.2081633 73.0285714,11.4612245 C73.0285714,11.1183673 73.044898,10.7918367 73.044898,10.4489796 C73.044898,10.4326531 73.0612245,10.4163265 73.077551,10.4163265 C73.6326531,10.4163265 74.0897959,10.3836735 74.5632653,10.2040816 C75.1510204,9.95918367 75.5918367,9.48571429 75.755102,8.93061224 C75.9183673,8.40816327 75.8367347,7.85306122 75.5265306,7.36326531 C74.9714286,6.62857143 74.2530612,6.53061224 73.5673469,6.53061224 C73.4204082,6.53061224 73.2734694,6.53061224 73.0612245,6.54693878 C73.0612245,6.54693878 73.044898,6.54693878 73.044898,6.54693878 C73.044898,6.54693878 73.0285714,6.53061224 73.0285714,6.53061224 C73.0122449,6.20408163 73.0122449,5.87755102 73.0122449,5.56734694 C73.0122449,4.66938776 72.9959184,3.73877551 72.8489796,2.85714286 C72.6693878,1.8122449 71.9183673,1.07755102 71.0367347,1.07755102 C70.6938776,1.07755102 70.3510204,1.1755102 69.9918367,1.3877551 C69.077551,1.99183673 68.9795918,2.93877551 68.9632653,4.03265306 C68.9469388,4.83265306 68.9795918,5.64897959 69.0122449,6.44897959 C69.0122449,6.59591837 69.0285714,6.72653061 69.0285714,6.87346939 C69.0285714,6.88979592 69.0122449,6.90612245 68.9959184,6.90612245 C68.8979592,6.92244898 68.8,6.92244898 68.7020408,6.93877551 C67.3795918,7.05306122 65.877551,7.16734694 65.5673469,8.73469388 C65.4693878,9.6 65.877551,10.3020408 66.6938776,10.644898 C66.9877551,10.7428571 67.3306122,10.7918367 67.7387755,10.7918367 C68.0816327,10.7918367 68.4408163,10.7591837 68.7673469,10.7265306 L68.9632653,10.6938776 C68.9632653,10.6938776 68.9632653,10.6938776 68.9632653,10.6938776 Z M64.1795918,19.2653061 C64.1795918,19.2653061 64.1795918,19.2653061 64.1795918,19.2653061 C63.2816327,19.2653061 62.2204082,18.5959184 62.0734694,17.355102 C62.0081633,16.8653061 61.9755102,16.3428571 61.9428571,15.8530612 C61.9265306,15.6081633 61.9102041,15.3632653 61.8938776,15.1183673 L61.5183673,10.6122449 C61.3387755,10.0408163 61.3061224,9.40408163 61.4367347,8.89795918 L61.3714286,8.81632653 C61.1591837,8.55510204 60.9469388,8.29387755 60.7673469,8.01632653 C60.1142857,7.00408163 60.0489796,5.6 60.6367347,4.53877551 C61.1428571,3.59183673 62.0408163,3.11836735 63.1346939,3.2 C63.6244898,3.23265306 64.0979592,3.37959184 64.522449,3.60816327 C65.2244898,4.04897959 65.6979592,4.75102041 65.8612245,5.61632653 C66.0408163,6.62857143 65.7959184,7.70612245 65.1755102,8.50612245 C65.2571429,8.73469388 65.322449,8.96326531 65.355102,9.19183673 C65.6326531,11.3142857 65.7959184,13.5020408 65.9591837,15.6244898 L65.9755102,15.8530612 C65.9755102,15.9510204 65.9918367,16.0489796 65.9918367,16.1306122 C66.0408163,16.7346939 66.1061224,17.3714286 65.9102041,17.9591837 C65.6163265,18.7918367 64.9795918,19.2653061 64.1795918,19.2653061 Z M62.8734694,3.23265306 C61.9102041,3.23265306 61.1265306,3.70612245 60.6693878,4.55510204 C60.0979592,5.6 60.1469388,6.97142857 60.8,7.96734694 C60.9795918,8.24489796 61.1918367,8.50612245 61.4040816,8.76734694 L61.4857143,8.86530612 C61.4857143,8.86530612 61.4857143,8.88163265 61.4857143,8.89795918 C61.355102,9.3877551 61.3714286,10.0244898 61.5510204,10.5959184 C61.5510204,10.5959184 61.5510204,10.5959184 61.5510204,10.5959184 L61.9265306,15.1020408 C61.9428571,15.3469388 61.9591837,15.5918367 61.9755102,15.8367347 C62.0081633,16.3265306 62.0408163,16.8489796 62.1061224,17.3387755 C62.2530612,18.5469388 63.2816327,19.2 64.1632653,19.2 C64.1632653,19.2 64.1632653,19.2 64.1632653,19.2 C64.9306122,19.2 65.5510204,18.7428571 65.8612245,17.9428571 C66.0408163,17.355102 65.9918367,16.7346939 65.9428571,16.1306122 C65.9428571,16.0326531 65.9265306,15.9346939 65.9265306,15.8530612 L65.9102041,15.6244898 C65.7469388,13.5020408 65.5836735,11.3142857 65.3061224,9.19183673 C65.2734694,8.94693878 65.2244898,8.71836735 65.1265306,8.50612245 C65.1265306,8.48979592 65.1265306,8.48979592 65.1265306,8.47346939 C65.7306122,7.67346939 65.9918367,6.6122449 65.7959184,5.61632653 C65.6326531,4.76734694 65.1755102,4.06530612 64.4897959,3.64081633 C64.0816327,3.4122449 63.6081633,3.26530612 63.1183673,3.23265306 C63.0367347,3.23265306 62.955102,3.23265306 62.8734694,3.23265306 Z M6.05714286,17.0285714 C5.42040816,17.0285714 4.75102041,16.6040816 4.17959184,16.1795918 C4.17959184,16.1795918 4.16326531,16.1632653 4.16326531,16.1632653 C4.08163265,15.2 3.95102041,13.7632653 4.75102041,12.9632653 C5.04489796,12.6857143 5.43673469,12.555102 5.99183673,12.555102 C6.26938776,12.555102 6.56326531,12.5877551 6.85714286,12.6204082 C6.85714286,12.6204082 6.87346939,12.6204082 6.87346939,12.6204082 C7.90204082,13.4530612 8.11428571,15.0204082 7.36326531,16.2122449 C6.9877551,16.7510204 6.56326531,17.0285714 6.05714286,17.0285714 Z M4.2122449,16.1469388 C4.76734694,16.555102 5.42040816,16.9632653 6.04081633,16.9632653 C6.53061224,16.9632653 6.93877551,16.7020408 7.28163265,16.1795918 C8.03265306,15.0204082 7.82040816,13.4857143 6.80816327,12.6693878 C6.53061224,12.6367347 6.25306122,12.6040816 5.95918367,12.6040816 C5.42040816,12.6040816 5.04489796,12.7346939 4.76734694,12.9959184 C4.01632653,13.7795918 4.13061224,15.2 4.2122449,16.1469388 Z M38.3836735,16.9959184 C38.3836735,16.9959184 38.3836735,16.9959184 38.3836735,16.9959184 C37.877551,16.9959184 37.4530612,16.7346939 37.1102041,16.1959184 C36.3265306,15.0040816 36.5387755,13.4530612 37.5836735,12.5714286 C37.5836735,12.5714286 37.6,12.5714286 37.6,12.5714286 C37.8938776,12.5387755 38.1714286,12.4897959 38.4653061,12.4897959 C39.0040816,12.4897959 39.4122449,12.6204082 39.7061224,12.8979592 C40.5061224,13.6979592 40.3918367,15.0693878 40.3102041,16.0816327 L40.3102041,16.1142857 C40.3102041,16.1306122 40.3102041,16.1306122 40.2938776,16.1306122 C39.6897959,16.5714286 39.0204082,16.9959184 38.3836735,16.9959184 Z M37.6,12.6367347 C36.5877551,13.5020408 36.3918367,15.0204082 37.1428571,16.1795918 C37.4857143,16.7020408 37.8938776,16.9469388 38.3673469,16.9469388 C38.9877551,16.9469388 39.6408163,16.522449 40.2122449,16.1142857 L40.2122449,16.0979592 C40.2938776,15.1020408 40.4081633,13.7306122 39.6244898,12.9632653 C39.3469388,12.6857143 38.955102,12.5714286 38.4326531,12.5714286 C38.155102,12.555102 37.877551,12.5877551 37.6,12.6367347 Z M50.2530612,16.9142857 C49.4204082,16.9142857 48.3428571,16.4081633 48.3102041,15.8530612 L48.3102041,15.755102 C48.244898,14.7755102 48.1795918,13.5673469 48.9306122,12.8326531 C49.2081633,12.555102 49.6163265,12.4244898 50.1387755,12.4244898 C50.4163265,12.4244898 50.7102041,12.4571429 50.9877551,12.4897959 C50.9877551,12.4897959 51.0040816,12.4897959 51.0040816,12.4897959 C52.0816327,13.4530612 52.244898,15.0367347 51.3959184,16.244898 C51.2653061,16.4244898 51.1020408,16.6367347 50.8408163,16.7836735 C50.6938776,16.8816327 50.4979592,16.9142857 50.2530612,16.9142857 Z M50.122449,12.4734694 C49.6,12.4734694 49.2244898,12.6040816 48.9469388,12.8653061 C48.2285714,13.5836735 48.2938776,14.7755102 48.3591837,15.755102 L48.3591837,15.8530612 C48.3918367,16.3918367 49.4367347,16.8653061 50.2530612,16.8653061 C50.4816327,16.8653061 50.677551,16.8163265 50.8081633,16.7510204 C51.0040816,16.6367347 51.1673469,16.4734694 51.3469388,16.2285714 C52.1795918,15.0530612 52.0163265,13.5020408 50.9714286,12.5714286 C50.6938776,12.5061224 50.4,12.4734694 50.122449,12.4734694 Z" id="Shape" fill="#841723" fill-rule="nonzero"></path>
                <path d="M70.1714286,9.91020408 C70.2040816,12.6693878 70.3020408,15.444898 70.2367347,18.2204082 C70.2204082,18.7755102 70.3183673,19.5918367 71.0367347,19.6244898 C72.1959184,19.5591837 71.9510204,17.4040816 71.9183673,16.7346939 C71.8367347,14.3020408 71.9020408,11.8693878 71.9183673,9.43673469 C72.6857143,9.27346939 73.6979592,9.58367347 74.3673469,9.11020408 C74.5469388,8.96326531 74.677551,8.78367347 74.7102041,8.55510204 C74.7918367,7.33061224 72.6204082,7.90204082 71.9510204,7.83673469 C71.8204082,6.35102041 71.9346939,4.84897959 71.7714286,3.34693878 C71.722449,2.95510204 71.6571429,2.4 71.1836735,2.30204082 C70.0408163,2.17142857 70.1387755,3.67346939 70.1387755,4.39183673 C70.1387755,5.6 70.1877551,6.80816327 70.2367347,8.01632653 C69.322449,8.08163265 68.3591837,8.11428571 67.4612245,8.29387755 C66.644898,8.47346939 66.3836735,9.53469388 67.4122449,9.66530612 C68.3265306,9.76326531 69.2408163,9.45306122 70.155102,9.51836735 L70.1714286,9.91020408 Z" id="Shape" fill="#FFFFFF"></path>
                <path d="M71.0367347,19.6408163 C71.0367347,19.6408163 71.0367347,19.6408163 71.0367347,19.6408163 C70.4816327,19.6081633 70.1877551,19.1183673 70.2040816,18.2040816 C70.2530612,16.1142857 70.2204082,13.9918367 70.1714286,11.9346939 C70.155102,11.2653061 70.1387755,10.5795918 70.1387755,9.91020408 L70.1387755,9.56734694 C70.0571429,9.56734694 69.9755102,9.56734694 69.8938776,9.56734694 C69.5510204,9.56734694 69.1918367,9.61632653 68.8653061,9.64897959 C68.522449,9.69795918 68.1632653,9.73061224 67.8204082,9.73061224 C67.6734694,9.73061224 67.5591837,9.73061224 67.4285714,9.71428571 C67.0040816,9.66530612 66.7428571,9.43673469 66.7265306,9.12653061 C66.7102041,8.8 66.9877551,8.39183673 67.477551,8.29387755 C68.2285714,8.14693878 69.0122449,8.09795918 69.7632653,8.04897959 C69.9265306,8.03265306 70.0734694,8.03265306 70.2367347,8.01632653 C70.1877551,6.85714286 70.1387755,5.63265306 70.1387755,4.40816327 C70.1387755,4.35918367 70.1387755,4.31020408 70.1387755,4.24489796 C70.1387755,3.70612245 70.122449,2.88979592 70.5142857,2.49795918 C70.6938776,2.31836735 70.922449,2.25306122 71.2163265,2.28571429 C71.7061224,2.38367347 71.7877551,2.9877551 71.8204082,3.34693878 C71.9020408,4.11428571 71.9183673,4.91428571 71.9183673,5.68163265 C71.9183673,6.38367347 71.9346939,7.10204082 72,7.80408163 C72.1469388,7.82040816 72.4081633,7.80408163 72.6693878,7.77142857 C72.9306122,7.75510204 73.2244898,7.72244898 73.5020408,7.72244898 C74.0571429,7.72244898 74.4,7.82040816 74.5959184,8.03265306 C74.7265306,8.16326531 74.7755102,8.34285714 74.7591837,8.55510204 C74.7265306,8.78367347 74.5959184,8.97959184 74.4,9.12653061 C74.0571429,9.37142857 73.6,9.40408163 73.1755102,9.40408163 C73.077551,9.40408163 72.9795918,9.40408163 72.8816327,9.40408163 C72.7836735,9.40408163 72.6857143,9.40408163 72.6040816,9.40408163 C72.4244898,9.40408163 72.1959184,9.40408163 71.9673469,9.45306122 C71.9673469,10.0244898 71.9510204,10.5795918 71.9510204,11.1510204 C71.9346939,12.9795918 71.9020408,14.8734694 71.9673469,16.7183673 C71.9673469,16.7836735 71.9673469,16.8653061 71.9836735,16.9469388 C72.0163265,17.8122449 72.0979592,19.5755102 71.0367347,19.6408163 C71.0367347,19.6408163 71.0367347,19.6408163 71.0367347,19.6408163 Z M69.8938776,9.50204082 C69.9918367,9.50204082 70.0734694,9.50204082 70.1714286,9.51836735 C70.1877551,9.51836735 70.2040816,9.53469388 70.2040816,9.55102041 L70.2040816,9.92653061 C70.2204082,10.5959184 70.2204082,11.2979592 70.2367347,11.9510204 C70.2693878,14.0081633 70.3183673,16.1306122 70.2693878,18.2204082 C70.2530612,19.1020408 70.5142857,19.5755102 71.0367347,19.5918367 C72.0489796,19.5265306 71.9510204,17.7959184 71.9020408,16.9632653 C71.9020408,16.8816327 71.8857143,16.8 71.8857143,16.7346939 C71.8204082,14.8734694 71.8530612,12.9959184 71.8693878,11.1673469 C71.8693878,10.5959184 71.8857143,10.0244898 71.8857143,9.45306122 C71.8857143,9.43673469 71.9020408,9.42040816 71.9020408,9.42040816 C72.1306122,9.37142857 72.3755102,9.37142857 72.5714286,9.37142857 C72.6693878,9.37142857 72.7673469,9.37142857 72.8489796,9.37142857 C72.9469388,9.37142857 73.044898,9.37142857 73.1428571,9.37142857 C73.5673469,9.37142857 74.0081633,9.33877551 74.3346939,9.11020408 C74.5142857,8.96326531 74.6285714,8.78367347 74.677551,8.57142857 C74.6938776,8.3755102 74.644898,8.2122449 74.5306122,8.09795918 C74.3510204,7.90204082 74.0081633,7.82040816 73.4857143,7.82040816 C73.2081633,7.82040816 72.9142857,7.85306122 72.6530612,7.86938776 C72.3591837,7.88571429 72.0979592,7.91836735 71.9510204,7.90204082 C71.9346939,7.90204082 71.9183673,7.88571429 71.9183673,7.86938776 C71.8530612,7.15102041 71.8367347,6.41632653 71.8367347,5.71428571 C71.8204082,4.94693878 71.8204082,4.16326531 71.7387755,3.37959184 C71.7061224,3.03673469 71.6244898,2.46530612 71.1836735,2.36734694 C71.1346939,2.36734694 71.1020408,2.36734694 71.0530612,2.36734694 C70.8408163,2.36734694 70.6612245,2.43265306 70.5306122,2.56326531 C70.1714286,2.93877551 70.1714286,3.73877551 70.1714286,4.26122449 C70.1714286,4.31020408 70.1714286,4.3755102 70.1714286,4.4244898 C70.1714286,5.64897959 70.2204082,6.88979592 70.2693878,8.04897959 C70.2693878,8.06530612 70.2530612,8.08163265 70.2367347,8.08163265 C70.0734694,8.09795918 69.9102041,8.09795918 69.7469388,8.11428571 C68.9959184,8.16326531 68.2122449,8.2122449 67.4612245,8.35918367 C67.0040816,8.45714286 66.7428571,8.83265306 66.7591837,9.14285714 C66.7755102,9.43673469 67.0040816,9.63265306 67.3959184,9.68163265 C67.5102041,9.69795918 67.6408163,9.69795918 67.7877551,9.69795918 C68.1306122,9.69795918 68.4897959,9.64897959 68.8326531,9.61632653 C69.1918367,9.53469388 69.5510204,9.50204082 69.8938776,9.50204082 Z" id="Shape" fill="#891A1C" fill-rule="nonzero"></path>
                <path d="M63.1020408,8.32653061 C63.444898,8.34285714 63.7877551,8.26122449 64.0489796,8.03265306 C64.3265306,7.75510204 64.5061224,7.36326531 64.6204082,6.9877551 C64.8326531,6.20408163 64.6367347,5.1755102 63.9020408,4.73469388 C63.6571429,4.60408163 63.3959184,4.52244898 63.1183673,4.48979592 C63.1183673,4.48979592 63.1020408,4.48979592 63.1020408,4.48979592 L63.1020408,5.91020408 C63.1673469,5.92653061 63.2326531,5.94285714 63.2653061,5.99183673 C63.4285714,6.23673469 63.3959184,6.53061224 63.2816327,6.7755102 C63.2326531,6.85714286 63.2163265,6.88979592 63.1183673,6.88979592 L63.1020408,6.88979592 L63.1020408,8.32653061 Z M62.3020408,8.14693878 C62.4163265,8.19591837 62.5469388,8.24489796 62.6612245,8.27755102 C62.7918367,8.31020408 62.9387755,8.32653061 63.0857143,8.34285714 L63.0857143,6.90612245 C63.0693878,6.90612245 63.0367347,6.90612245 63.0204082,6.88979592 C62.9387755,6.79183673 62.8408163,6.69387755 62.8081633,6.56326531 C62.7918367,6.49795918 62.7918367,6.44897959 62.7918367,6.38367347 C62.7918367,6.1877551 62.7591837,5.87755102 63.0367347,5.92653061 C63.0530612,5.92653061 63.0693878,5.92653061 63.0857143,5.92653061 L63.0857143,4.50612245 C62.4163265,4.44081633 61.7795918,4.75102041 61.5510204,5.40408163 C61.4530612,5.71428571 61.4204082,6.05714286 61.4204082,6.38367347 L61.4204082,6.49795918 L61.4204082,6.51428571 C61.4530612,7.15102041 61.9265306,7.67346939 62.3020408,8.14693878 Z" id="Shape" fill="#FFFFFF"></path>
                <path d="M63.1510204,8.35918367 C62.9877551,8.35918367 62.8244898,8.34285714 62.6612245,8.29387755 C62.5306122,8.26122449 62.4,8.2122449 62.2857143,8.16326531 C62.2857143,8.16326531 62.2693878,8.16326531 62.2693878,8.14693878 C62.2367347,8.11428571 62.2040816,8.06530612 62.1714286,8.03265306 C61.8122449,7.59183673 61.4040816,7.10204082 61.3877551,6.49795918 C61.3877551,6.04081633 61.4204082,5.68163265 61.5346939,5.37142857 C61.7306122,4.8 62.2693878,4.44081633 62.9061224,4.44081633 C62.9714286,4.44081633 63.0367347,4.44081633 63.1020408,4.45714286 C63.3959184,4.48979592 63.6734694,4.5877551 63.8857143,4.70204082 C64.6530612,5.1755102 64.8326531,6.20408163 64.6204082,6.9877551 C64.4897959,7.44489796 64.2938776,7.80408163 64.0489796,8.03265306 C63.7714286,8.31020408 63.4122449,8.35918367 63.1510204,8.35918367 Z M62.3183673,8.11428571 C62.4326531,8.16326531 62.5469388,8.19591837 62.677551,8.24489796 C62.8244898,8.27755102 62.9877551,8.31020408 63.1510204,8.31020408 C63.5102041,8.31020408 63.8204082,8.2122449 64.0326531,8.03265306 C64.277551,7.80408163 64.4571429,7.46122449 64.5877551,7.00408163 C64.8,6.23673469 64.6204082,5.24081633 63.8857143,4.78367347 C63.6734694,4.66938776 63.4122449,4.5877551 63.1183673,4.53877551 C63.0530612,4.53877551 62.9877551,4.52244898 62.922449,4.52244898 C62.3020408,4.52244898 61.7959184,4.86530612 61.6,5.42040816 C61.5020408,5.73061224 61.4530612,6.07346939 61.4693878,6.53061224 C61.4857143,7.10204082 61.8938776,7.59183673 62.2367347,8.03265306 C62.2693878,8.04897959 62.2857143,8.08163265 62.3183673,8.11428571 Z M63.1183673,6.92244898 C63.0857143,6.92244898 63.0530612,6.92244898 63.0367347,6.90612245 C63.0367347,6.90612245 63.0367347,6.90612245 63.0204082,6.90612245 C62.9387755,6.80816327 62.8408163,6.69387755 62.8081633,6.56326531 C62.7918367,6.49795918 62.7918367,6.44897959 62.7918367,6.38367347 C62.7918367,6.36734694 62.7918367,6.33469388 62.7918367,6.31836735 C62.7918367,6.1877551 62.7918367,6.0244898 62.8734694,5.94285714 C62.922449,5.89387755 62.9877551,5.87755102 63.0693878,5.89387755 C63.1510204,5.91020408 63.2489796,5.92653061 63.2979592,6.00816327 C63.4612245,6.23673469 63.4612245,6.53061224 63.3142857,6.8244898 C63.2653061,6.87346939 63.2326531,6.92244898 63.1183673,6.92244898 C63.1183673,6.92244898 63.1183673,6.92244898 63.1183673,6.92244898 Z M63.0530612,6.85714286 C63.0693878,6.85714286 63.0857143,6.87346939 63.1020408,6.87346939 C63.1836735,6.87346939 63.2,6.85714286 63.2489796,6.7755102 C63.3959184,6.49795918 63.3959184,6.23673469 63.2489796,6.0244898 C63.2,5.9755102 63.1183673,5.95918367 63.0530612,5.94285714 C62.9877551,5.92653061 62.9387755,5.94285714 62.9061224,5.9755102 C62.8408163,6.04081633 62.8408163,6.1877551 62.8408163,6.30204082 C62.8408163,6.33469388 62.8408163,6.35102041 62.8408163,6.38367347 C62.8408163,6.43265306 62.8408163,6.49795918 62.8571429,6.54693878 C62.8897959,6.66122449 62.9714286,6.75918367 63.0530612,6.85714286 Z" id="Shape" fill="#841723" fill-rule="nonzero"></path>
                <path d="M62.8734694,12.5061224 C63.0040816,14.0408163 63.1183673,15.5755102 63.2489796,17.1102041 C63.2979592,17.6326531 63.5918367,18.0734694 64.1632653,18.0571429 C64.8326531,17.9918367 64.8489796,17.2897959 64.8163265,16.7673469 C64.7020408,14.7591837 64.4897959,12.7510204 64.2938776,10.7591837 C64.244898,10.2857143 64.2122449,9.8122449 64.1469388,9.33877551 C64.0653061,8.76734694 63.722449,8.39183673 63.1346939,8.5877551 C62.4326531,8.84897959 62.4979592,9.76326531 62.7102041,10.3510204 L62.8734694,12.5061224 Z" id="Shape" fill="#FFFFFF"></path>
                <path d="M64.1469388,18.0897959 C63.5428571,18.0897959 63.2653061,17.5673469 63.2326531,17.1102041 C63.1510204,16.0979592 63.0693878,15.0693878 62.9877551,14.0571429 C62.9387755,13.5346939 62.9061224,13.0122449 62.8571429,12.5061224 L62.677551,10.3673469 C62.4979592,9.87755102 62.3510204,8.86530612 63.1183673,8.57142857 C63.2326531,8.53877551 63.3306122,8.52244898 63.4285714,8.52244898 C63.8204082,8.52244898 64.1142857,8.83265306 64.1795918,9.35510204 C64.2285714,9.76326531 64.277551,10.1714286 64.3102041,10.5632653 L64.3265306,10.7755102 C64.3591837,11.1183673 64.3918367,11.477551 64.4244898,11.8204082 C64.5877551,13.4367347 64.7510204,15.1183673 64.8489796,16.7836735 C64.8816327,17.3877551 64.8326531,18.0244898 64.1632653,18.1061224 C64.1632653,18.0897959 64.1469388,18.0897959 64.1469388,18.0897959 Z M63.4285714,8.57142857 C63.3469388,8.57142857 63.2489796,8.5877551 63.1346939,8.62040816 C62.4653061,8.88163265 62.5142857,9.79591837 62.7265306,10.3346939 C62.7265306,10.3346939 62.7265306,10.3346939 62.7265306,10.3346939 L62.9061224,12.4897959 C62.955102,13.0122449 62.9877551,13.5346939 63.0367347,14.0408163 C63.1183673,15.0367347 63.2,16.0653061 63.2816327,17.077551 C63.3142857,17.5183673 63.5755102,18.0244898 64.1632653,18.0081633 C64.7673469,17.9428571 64.8163265,17.3387755 64.7836735,16.7510204 C64.6857143,15.1020408 64.522449,13.4204082 64.3591837,11.8040816 C64.3265306,11.4612245 64.2938776,11.1020408 64.2612245,10.7591837 L64.244898,10.5469388 C64.2122449,10.155102 64.1632653,9.73061224 64.1142857,9.33877551 C64.0489796,8.86530612 63.8040816,8.57142857 63.4285714,8.57142857 Z" id="Shape" fill="#841723" fill-rule="nonzero"></path>
                <path d="M57.1428571,18.3836735 C57.1265306,18.5142857 57.1265306,18.644898 57.1428571,18.7918367 C57.2081633,19.2653061 57.6816327,19.5102041 58.122449,19.5918367 C58.4979592,19.6734694 58.8571429,19.5755102 59.1673469,19.3469388 C59.4122449,19.1673469 59.5591837,18.9387755 59.5755102,18.644898 C59.5755102,18.3673469 59.477551,18.122449 59.2979592,17.9265306 C59.1020408,17.7142857 58.8081633,17.5510204 58.5142857,17.4857143 C58.4979592,17.4857143 58.4816327,17.4857143 58.4653061,17.4857143 L58.4326531,17.2734694 C57.9591837,17.4530612 57.3387755,17.6163265 57.1918367,18.1714286 C57.1591837,18.2367347 57.1428571,18.3183673 57.1428571,18.3836735" id="Shape" fill="#FFFFFF"></path>
                <path d="M58.3673469,19.6571429 C58.2857143,19.6571429 58.1877551,19.6408163 58.1061224,19.6244898 C57.8285714,19.5591837 57.1755102,19.3632653 57.1102041,18.7918367 C57.0938776,18.6612245 57.0938776,18.5306122 57.1102041,18.3836735 C57.1265306,18.3183673 57.1265306,18.2367347 57.1428571,18.1714286 C57.2734694,17.6653061 57.7795918,17.4693878 58.2367347,17.3061224 C58.3020408,17.2897959 58.3510204,17.2571429 58.4,17.2408163 C58.4163265,17.2408163 58.4163265,17.2408163 58.4326531,17.2408163 C58.4326531,17.2408163 58.4489796,17.2571429 58.4489796,17.2571429 L58.4816327,17.4530612 C58.4816327,17.4530612 58.4979592,17.4530612 58.4979592,17.4530612 L58.5142857,17.4530612 C58.7918367,17.5020408 59.0857143,17.6653061 59.3142857,17.8938776 C59.5102041,18.1061224 59.6081633,18.3510204 59.6081633,18.6285714 C59.5918367,18.922449 59.4612245,19.1510204 59.2,19.3632653 C58.922449,19.5591837 58.644898,19.6571429 58.3673469,19.6571429 Z M58.4,17.3061224 C58.3510204,17.322449 58.3020408,17.3387755 58.2693878,17.355102 C57.844898,17.5183673 57.355102,17.6979592 57.2244898,18.1714286 C57.2081633,18.2367347 57.1918367,18.3183673 57.1918367,18.3836735 C57.1755102,18.5306122 57.1755102,18.6612245 57.1918367,18.7755102 C57.2571429,19.3142857 57.877551,19.5102041 58.155102,19.5591837 C58.5142857,19.6244898 58.8571429,19.5428571 59.1673469,19.3306122 C59.4122449,19.1346939 59.5428571,18.922449 59.5591837,18.644898 C59.5591837,18.3836735 59.4612245,18.155102 59.2816327,17.9428571 C59.0693878,17.7306122 58.7918367,17.5673469 58.5142857,17.5183673 L58.4979592,17.5183673 C58.4816327,17.5183673 58.4653061,17.5183673 58.4653061,17.5183673 C58.4489796,17.5183673 58.4489796,17.5020408 58.4326531,17.4857143 L58.4,17.3061224 Z" id="Shape" fill="#841723" fill-rule="nonzero"></path>
                <path d="M54.677551,10.9877551 C54.644898,10.3020408 54.6122449,8.70204082 53.5183673,9.02857143 C52.8653061,9.27346939 52.9142857,10.0081633 52.9632653,10.5795918 C52.4244898,10.1877551 51.7387755,10.0081633 51.1020408,9.84489796 C50.7265306,9.76326531 50.3836735,9.69795918 50.0571429,9.66530612 L50.0571429,11.3632653 C50.3673469,11.3632653 50.677551,11.3795918 50.9714286,11.4122449 C51.2653061,11.444898 51.4938776,11.5265306 51.7061224,11.722449 C52.7510204,12.6530612 53.2734694,14.2204082 52.9469388,15.5755102 C52.6367347,16.8326531 51.4938776,18.3510204 50.0571429,18.2040816 L50.0571429,19.8040816 C50.2693878,19.8204082 50.4653061,19.8204082 50.677551,19.8204082 C51.8530612,19.755102 52.6204082,18.922449 53.355102,18.1061224 C53.3714286,18.6612245 53.3061224,19.5428571 53.9428571,19.8040816 C54.9714286,20.1306122 54.8408163,18.4979592 54.8081633,17.9265306 C54.7591837,15.6244898 54.8081633,13.3061224 54.677551,10.9877551 Z M50.0734694,9.68163265 C49.5673469,9.64897959 49.077551,9.71428571 48.5061224,9.92653061 C48.1306122,10.0571429 47.7387755,10.2040816 47.3959184,10.3836735 C46.4979592,10.8897959 46.2367347,11.9020408 45.8938776,12.8163265 C45.7795918,13.1428571 45.7142857,13.4857143 45.6653061,13.8285714 C45.6,14.3673469 45.5346939,14.955102 45.5183673,15.5265306 L45.5183673,15.722449 C45.5346939,16.3755102 45.6489796,16.9959184 45.9918367,17.5346939 C46.0897959,17.6816327 46.1877551,17.8285714 46.2857143,17.9755102 C46.8571429,18.8244898 47.722449,19.4612245 48.7510204,19.6244898 C49.1755102,19.6897959 49.6326531,19.7714286 50.0734694,19.8040816 L50.0734694,18.2040816 C50.0571429,18.2040816 50.0244898,18.2040816 50.0081633,18.1877551 C49.2897959,18.0734694 48.522449,17.7959184 47.9510204,17.3387755 C47.5755102,17.044898 47.2326531,16.9306122 47.1673469,16.4408163 C47.0530612,15.5591837 47.0367347,14.5795918 47.2163265,13.7142857 C47.3959184,12.8979592 47.7714286,12.3102041 48.4244898,11.7877551 C48.6367347,11.7061224 48.8326531,11.6081633 49.0285714,11.4938776 C49.1755102,11.3959184 49.3061224,11.3795918 49.4857143,11.3795918 C49.6816327,11.3795918 49.877551,11.3795918 50.0734694,11.3795918 L50.0734694,9.68163265 Z" id="Shape" fill="#FFFFFF"></path>
                <path d="M54.2204082,19.8857143 C54.1387755,19.8857143 54.0571429,19.8693878 53.9591837,19.8367347 C53.3714286,19.5918367 53.355102,18.8408163 53.355102,18.3020408 C53.355102,18.2693878 53.355102,18.2204082 53.355102,18.1877551 C52.6204082,18.9714286 51.8693878,19.7877551 50.6938776,19.8530612 C50.1387755,19.8693878 49.5673469,19.7877551 49.0285714,19.6897959 C48.9306122,19.6734694 48.8489796,19.6571429 48.7510204,19.6408163 C47.7714286,19.477551 46.8897959,18.8897959 46.2693878,17.9755102 C46.1714286,17.8285714 46.0734694,17.6816327 45.9755102,17.5346939 C45.3387755,16.5714286 45.4857143,15.2653061 45.6163265,14.122449 C45.6326531,14.0244898 45.6326531,13.9102041 45.6489796,13.8122449 C45.6979592,13.4367347 45.7632653,13.0938776 45.877551,12.7836735 C45.9102041,12.6857143 45.9428571,12.6040816 45.9755102,12.5061224 C46.2693878,11.6734694 46.5795918,10.7918367 47.3795918,10.3346939 C47.7061224,10.155102 48.0489796,10.0244898 48.3918367,9.91020408 L48.4897959,9.87755102 C48.9632653,9.71428571 49.3714286,9.63265306 49.8122449,9.63265306 C50.1877551,9.63265306 50.5795918,9.68163265 51.1183673,9.8122449 C51.7714286,9.9755102 52.4081633,10.1387755 52.9306122,10.5142857 C52.8816327,10.0408163 52.8326531,9.25714286 53.5020408,9.0122449 C53.6,8.97959184 53.6979592,8.96326531 53.7795918,8.96326531 C54.5959184,8.96326531 54.6612245,10.2040816 54.6938776,10.8734694 C54.6938776,10.9061224 54.6938776,10.955102 54.6938776,10.9877551 C54.7755102,12.3428571 54.7755102,13.7306122 54.7918367,15.0693878 C54.8081633,16.0163265 54.8081633,16.9795918 54.8408163,17.9428571 C54.8408163,17.9755102 54.8408163,18.0244898 54.8408163,18.0571429 C54.8571429,18.5142857 54.8897959,19.3795918 54.5632653,19.722449 C54.4979592,19.8367347 54.3673469,19.8857143 54.2204082,19.8857143 Z M53.3714286,18.0897959 C53.3877551,18.0897959 53.3877551,18.0897959 53.3714286,18.0897959 C53.3877551,18.0897959 53.4040816,18.1061224 53.4040816,18.122449 C53.4040816,18.1877551 53.4040816,18.2367347 53.4040816,18.3020408 C53.4204082,18.8571429 53.4204082,19.5591837 53.9755102,19.7877551 C54.0571429,19.8204082 54.1387755,19.8204082 54.2040816,19.8204082 C54.3346939,19.8204082 54.4489796,19.7714286 54.5469388,19.6734694 C54.8571429,19.3469388 54.8244898,18.4979592 54.8081633,18.0571429 C54.8081633,18.0081633 54.8081633,17.9755102 54.8081633,17.9428571 C54.7755102,16.9795918 54.7591837,16.0163265 54.7591837,15.0693878 C54.7428571,13.7306122 54.7265306,12.3428571 54.6612245,10.9877551 C54.6612245,10.955102 54.6612245,10.9061224 54.6612245,10.8734694 C54.6285714,10.2204082 54.5632653,9.0122449 53.8122449,9.0122449 C53.7306122,9.0122449 53.6489796,9.02857143 53.5510204,9.06122449 C52.9469388,9.28979592 52.9632653,9.95918367 53.0285714,10.5795918 C53.0285714,10.5959184 53.0285714,10.5959184 53.0122449,10.6122449 C52.9959184,10.6122449 52.9959184,10.6122449 52.9795918,10.6122449 C52.4571429,10.2367347 51.8204082,10.0571429 51.1346939,9.89387755 C50.5959184,9.76326531 50.2204082,9.71428571 49.844898,9.71428571 C49.4204082,9.71428571 48.9959184,9.79591837 48.5387755,9.95918367 L48.4408163,9.99183673 C48.0979592,10.122449 47.755102,10.2367347 47.444898,10.4163265 C46.644898,10.8734694 46.3510204,11.722449 46.0571429,12.555102 C46.0244898,12.6530612 45.9918367,12.7346939 45.9591837,12.8326531 C45.844898,13.1428571 45.7795918,13.4693878 45.7306122,13.844898 C45.7142857,13.9428571 45.7142857,14.0408163 45.6979592,14.155102 C45.5673469,15.2979592 45.4204082,16.5877551 46.0571429,17.5346939 C46.155102,17.6816327 46.2530612,17.8285714 46.3510204,17.9755102 C46.955102,18.8734694 47.8204082,19.4612245 48.8,19.6081633 C48.8979592,19.6244898 48.9795918,19.6408163 49.077551,19.6571429 C49.6163265,19.7387755 50.1877551,19.8367347 50.7265306,19.8040816 C51.8857143,19.7387755 52.6367347,18.922449 53.355102,18.1387755 L53.3877551,18.1061224 C53.355102,18.0897959 53.3714286,18.0897959 53.3714286,18.0897959 Z M50.2857143,18.2530612 C50.1877551,18.2530612 50.0897959,18.2530612 50.0081633,18.2367347 C49.2081633,18.1061224 48.4734694,17.8122449 47.9346939,17.3877551 C47.8530612,17.322449 47.7714286,17.2734694 47.7061224,17.2244898 C47.4285714,17.0285714 47.2,16.8816327 47.1510204,16.4734694 C47.0693878,15.755102 47.0040816,14.7102041 47.2,13.7306122 C47.3795918,12.9142857 47.755102,12.3102041 48.4244898,11.7877551 C48.4244898,11.7877551 48.4244898,11.7877551 48.4244898,11.7877551 C48.6204082,11.7061224 48.8326531,11.6081633 49.0285714,11.4938776 C49.1755102,11.3959184 49.3061224,11.3795918 49.5020408,11.3795918 C49.5836735,11.3795918 49.6816327,11.3795918 49.7632653,11.3795918 C49.844898,11.3795918 49.9428571,11.3795918 50.0244898,11.3795918 C50.3346939,11.3795918 50.677551,11.3795918 51.0204082,11.4285714 C51.3469388,11.4612245 51.5755102,11.5591837 51.7714286,11.7387755 C52.8326531,12.7020408 53.3387755,14.2530612 53.0122449,15.6244898 C52.6857143,16.8979592 51.5755102,18.2530612 50.2857143,18.2530612 Z M48.4408163,11.8204082 C47.7877551,12.3428571 47.4122449,12.9306122 47.2489796,13.7306122 C47.0530612,14.6938776 47.1020408,15.755102 47.2,16.4571429 C47.2489796,16.8326531 47.4612245,16.9795918 47.7387755,17.1755102 C47.8204082,17.2244898 47.8857143,17.2734694 47.9673469,17.3387755 C48.5061224,17.7469388 49.2244898,18.0408163 50.0081633,18.1714286 C50.1061224,18.1877551 50.1877551,18.1877551 50.2857143,18.1877551 C51.5591837,18.1877551 52.6367347,16.8653061 52.9469388,15.5755102 C53.2734694,14.2204082 52.7673469,12.6857143 51.722449,11.7387755 C51.5265306,11.5591837 51.3142857,11.477551 51.0040816,11.444898 C50.6612245,11.4122449 50.3346939,11.3959184 50.0244898,11.3959184 C49.9428571,11.3959184 49.844898,11.3959184 49.7632653,11.3959184 C49.6816327,11.3959184 49.5836735,11.3959184 49.5020408,11.3959184 C49.322449,11.3959184 49.2081633,11.4122449 49.0612245,11.5102041 C48.8489796,11.6408163 48.6367347,11.7387755 48.4408163,11.8204082 Z" id="Shape" fill="#841723" fill-rule="nonzero"></path>
                <path d="M38.4,9.71428571 C39.3142857,9.64897959 40.2122449,9.95918367 41.0285714,10.3836735 C41.7795918,10.7755102 42.0081633,11.3306122 42.3183673,12.0979592 C42.5469388,12.6857143 42.7591837,13.2244898 42.8408163,13.8612245 C42.9061224,14.4 42.9714286,14.9877551 42.9877551,15.5591837 L42.9877551,15.755102 C42.9714286,16.4081633 42.8571429,17.0285714 42.5142857,17.5510204 C42.4,17.7306122 42.2693878,17.9102041 42.155102,18.0897959 C41.5510204,19.0040816 40.6204082,19.5102041 39.5591837,19.6734694 C39.1836735,19.722449 38.8081633,19.7877551 38.4163265,19.8204082 L38.4163265,18.2040816 C38.5469388,18.1877551 38.6938776,18.1714286 38.8408163,18.1387755 C39.3142857,18.0081633 39.8204082,17.8612245 40.244898,17.6 C40.8816327,17.2081633 41.3061224,16.9795918 41.3714286,16.2285714 C41.4530612,15.2326531 41.4693878,14.1877551 41.1591837,13.2408163 C40.9632653,12.6530612 40.555102,12.1959184 40.0816327,11.8204082 C39.8367347,11.722449 39.5755102,11.5265306 39.3306122,11.444898 C39.2653061,11.4285714 39.2,11.4122449 39.1346939,11.4122449 C38.8897959,11.3959184 38.6612245,11.3795918 38.4163265,11.3795918 L38.4163265,9.71428571 L38.4,9.71428571 Z M33.6489796,16.4571429 C33.6816327,14.7265306 33.6816327,12.9959184 33.7632653,11.2653061 C33.9102041,8.26122449 33.7632653,5.24081633 33.9755102,2.23673469 C34.0081633,1.77959184 34.0408163,1.30612245 34.6122449,1.28979592 C35.755102,1.33877551 35.444898,2.56326531 35.4285714,3.33061224 C35.3469388,5.8122449 35.2653061,8.31020408 35.3142857,10.7918367 C36.0326531,10.1387755 37.1918367,9.91020408 38.1061224,9.76326531 C38.2040816,9.74693878 38.3020408,9.73061224 38.4,9.73061224 L38.4,11.4122449 C37.6979592,11.3959184 37.0285714,11.477551 36.5061224,11.9836735 C36.0163265,12.4734694 35.7061224,13.1591837 35.5102041,13.8122449 C34.9714286,15.6571429 36.3102041,18.4 38.4,18.2204082 L38.4,19.8367347 C38.2367347,19.8530612 38.0734694,19.8530612 37.9102041,19.8530612 C36.6530612,19.8367347 35.8693878,19.0040816 35.0693878,18.1387755 C35.0530612,18.7102041 35.1020408,19.5755102 34.4816327,19.8367347 C33.4530612,20.1632653 33.5836735,18.5306122 33.6,17.9755102 C33.6326531,17.4693878 33.6489796,16.9632653 33.6489796,16.4571429 Z" id="Shape" fill="#FFFFFF"></path>
                <path d="M34.2367347,19.9183673 C34.0897959,19.9183673 33.9591837,19.8693878 33.8612245,19.755102 C33.5183673,19.4122449 33.5673469,18.5469388 33.5836735,18.0897959 C33.5836735,18.0408163 33.5836735,18.0081633 33.5836735,17.9591837 C33.6,17.4530612 33.6163265,16.9469388 33.6163265,16.4408163 C33.6163265,15.9673469 33.6326531,15.4938776 33.6326531,15.0204082 C33.6489796,13.7795918 33.6653061,12.5061224 33.7142857,11.2489796 C33.7795918,9.91020408 33.7795918,8.53877551 33.7959184,7.21632653 C33.8122449,5.58367347 33.8122449,3.88571429 33.9265306,2.22040816 L33.9265306,2.20408163 C33.9591837,1.74693878 34.0081633,1.27346939 34.5959184,1.24081633 C34.8897959,1.25714286 35.1020408,1.33877551 35.2489796,1.50204082 C35.5428571,1.84489796 35.4938776,2.43265306 35.4612245,2.93877551 C35.444898,3.06938776 35.444898,3.2 35.4285714,3.31428571 C35.3469388,5.8122449 35.2653061,8.24489796 35.3142857,10.7102041 C36,10.122449 37.044898,9.87755102 38.0734694,9.71428571 C38.955102,9.58367347 39.9020408,9.79591837 41.0122449,10.3510204 C41.7795918,10.7591837 42.0081633,11.3469388 42.3020408,12.0816327 L42.3183673,12.1142857 C42.5469388,12.6857143 42.7591837,13.2244898 42.8244898,13.844898 C42.8408163,13.9428571 42.8408163,14.0408163 42.8571429,14.155102 C42.9877551,15.2979592 43.1346939,16.6040816 42.4816327,17.5673469 L42.3183673,17.8122449 C42.2530612,17.9102041 42.1877551,18.0081633 42.122449,18.1061224 C41.5346939,18.9714286 40.6367347,19.5265306 39.5102041,19.7061224 C39.444898,19.722449 39.3795918,19.722449 39.3142857,19.7387755 C38.8571429,19.8040816 38.3836735,19.8857143 37.9102041,19.8857143 L37.877551,19.8857143 C36.6204082,19.8693878 35.8204082,19.0367347 35.0693878,18.2204082 C35.0693878,18.2530612 35.0693878,18.2857143 35.0693878,18.3346939 C35.0530612,18.8897959 35.0530612,19.6408163 34.4653061,19.8857143 C34.4,19.9020408 34.3183673,19.9183673 34.2367347,19.9183673 Z M34.6285714,1.30612245 C34.0897959,1.32244898 34.0571429,1.74693878 34.0244898,2.20408163 L34.0244898,2.22040816 C33.9102041,3.86938776 33.8938776,5.56734694 33.8938776,7.21632653 C33.8938776,8.53877551 33.877551,9.91020408 33.8122449,11.2489796 C33.7469388,12.5061224 33.7469388,13.7795918 33.7306122,15.0204082 C33.7306122,15.4938776 33.7142857,15.9673469 33.7142857,16.4408163 C33.6979592,16.9632653 33.6979592,17.4693878 33.6816327,17.9591837 C33.6816327,17.9918367 33.6816327,18.0408163 33.6816327,18.0897959 C33.6653061,18.5306122 33.6326531,19.3795918 33.9428571,19.7061224 C34.0734694,19.8530612 34.2693878,19.8857143 34.5142857,19.8040816 C35.0693878,19.5755102 35.0693878,18.8734694 35.0857143,18.3183673 C35.0857143,18.2530612 35.0857143,18.2040816 35.0857143,18.1387755 C35.0857143,18.122449 35.0857143,18.122449 35.1020408,18.1061224 C35.1183673,18.1061224 35.1183673,18.1061224 35.1346939,18.1061224 C35.9020408,18.9387755 36.7020408,19.7877551 37.9591837,19.8040816 L37.9918367,19.8040816 C38.4653061,19.8040816 38.922449,19.7387755 39.3795918,19.6571429 C39.444898,19.6408163 39.5102041,19.6408163 39.5755102,19.6244898 C40.6857143,19.4612245 41.5836735,18.9061224 42.155102,18.0571429 C42.2204082,17.9591837 42.2857143,17.8612245 42.3510204,17.7632653 L42.5142857,17.5183673 C43.1510204,16.5714286 43.0040816,15.2816327 42.8734694,14.1387755 C42.8571429,14.0408163 42.8571429,13.9265306 42.8408163,13.8285714 C42.7755102,13.2081633 42.5632653,12.6693878 42.3346939,12.1142857 L42.3183673,12.0816327 C42.0244898,11.3469388 41.7959184,10.7755102 41.044898,10.3836735 C39.9510204,9.82857143 39.0040816,9.61632653 38.1387755,9.74693878 C37.0938776,9.91020408 36.0326531,10.155102 35.3632653,10.7591837 C35.3469388,10.7591837 35.3469388,10.7755102 35.3306122,10.7591837 C35.3142857,10.7591837 35.3142857,10.7428571 35.3142857,10.7265306 C35.2653061,8.24489796 35.3469388,5.77959184 35.4285714,3.26530612 C35.4285714,3.15102041 35.444898,3.02040816 35.4612245,2.88979592 C35.5102041,2.38367347 35.5591837,1.8122449 35.2653061,1.48571429 C35.1020408,1.40408163 34.9061224,1.32244898 34.6285714,1.30612245 Z M38.2204082,18.2530612 C38.2204082,18.2530612 38.2204082,18.2530612 38.2204082,18.2530612 C37.4530612,18.2530612 36.7346939,17.8612245 36.1795918,17.1265306 C35.4612245,16.1795918 35.1836735,14.8408163 35.477551,13.7959184 C35.722449,12.9959184 36.0489796,12.3755102 36.4897959,11.9510204 C37.0285714,11.4285714 37.6816327,11.3632653 38.2693878,11.3632653 C38.5142857,11.3632653 38.7591837,11.3795918 38.9877551,11.3959184 L39.1183673,11.3959184 C39.1836735,11.3959184 39.2489796,11.4122449 39.3142857,11.4285714 C39.4612245,11.477551 39.6081633,11.5591837 39.755102,11.6408163 C39.8530612,11.7061224 39.9673469,11.755102 40.0816327,11.8040816 C40.0816327,11.8040816 40.0816327,11.8040816 40.0816327,11.8040816 C40.6367347,12.244898 40.9959184,12.7020408 41.1755102,13.2408163 C41.5020408,14.2204082 41.4693878,15.3142857 41.3877551,16.244898 C41.322449,16.9632653 40.9142857,17.2244898 40.3428571,17.5836735 L40.244898,17.6489796 C39.8040816,17.9102041 39.2816327,18.0734694 38.8244898,18.1877551 C38.6285714,18.2367347 38.4163265,18.2530612 38.2204082,18.2530612 Z M38.2857143,11.4285714 C37.7142857,11.4285714 37.0612245,11.4938776 36.5387755,12 C36.1142857,12.4244898 35.7877551,13.0285714 35.5428571,13.8285714 C35.2489796,14.8571429 35.5265306,16.1795918 36.2285714,17.1102041 C36.7673469,17.8122449 37.4693878,18.2040816 38.2204082,18.2040816 C38.2204082,18.2040816 38.2204082,18.2040816 38.2204082,18.2040816 C38.4163265,18.2040816 38.6122449,18.1714286 38.8244898,18.122449 C39.2653061,18.0081633 39.7877551,17.8612245 40.2285714,17.6 L40.3265306,17.5346939 C40.8979592,17.1755102 41.2897959,16.9469388 41.3387755,16.244898 C41.4204082,15.3142857 41.4530612,14.2367347 41.1265306,13.2571429 C40.9469388,12.7510204 40.6040816,12.277551 40.0653061,11.8530612 C39.9510204,11.8040816 39.8530612,11.7387755 39.7387755,11.6897959 C39.5918367,11.6081633 39.4612245,11.5265306 39.3142857,11.477551 C39.2489796,11.4612245 39.1836735,11.444898 39.1183673,11.444898 L38.9877551,11.444898 C38.7591837,11.444898 38.5142857,11.4285714 38.2857143,11.4285714 Z" id="Shape" fill="#841723" fill-rule="nonzero"></path>
                <path d="M23.9673469,9.0122449 C23.5591837,9.86122449 23.1346939,10.7428571 22.9387755,11.6571429 C22.7591837,12.522449 22.644898,13.4204082 22.6612245,14.3020408 C22.677551,15.5428571 23.3959184,16.4897959 24.4408163,17.0938776 C24.9632653,17.4040816 25.5346939,17.6489796 26.155102,17.6653061 C26.7591837,17.6653061 27.3632653,17.6816327 27.9510204,17.6489796 C28.7510204,17.5836735 29.4530612,17.2081633 30.0734694,16.7183673 C30.3836735,16.4734694 30.6285714,16.1795918 30.7918367,15.8204082 C31.444898,14.3673469 31.5265306,12.7183673 31.0857143,11.2 C30.8897959,10.5469388 30.644898,9.77959184 30.2367347,9.2244898 C29.9265306,8.83265306 29.5020408,8.8 29.0612245,8.97959184 C28.1795918,9.40408163 28.7346939,10.2857143 29.0285714,10.9061224 C29.2734694,11.444898 29.4857143,11.8857143 29.5346939,12.4897959 C29.5836735,13.1102041 29.5183673,13.7469388 29.3877551,14.3510204 C29.1428571,15.3142857 28.4734694,15.9836735 27.5102041,16.1959184 C26.644898,16.3755102 25.6979592,16.277551 24.9795918,15.7061224 C24.277551,15.1510204 24.2122449,14.4 24.2122449,13.5346939 C24.244898,12.4897959 24.6367347,11.4285714 25.0612245,10.4816327 C25.322449,9.91020408 25.8122449,9.40408163 25.5836735,8.73469388 C25.3387755,8.14693878 24.7673469,8.16326531 24.2938776,8.47346939 L24.1795918,8.55510204 C24.0979592,8.71836735 24.0326531,8.86530612 23.9673469,9.0122449" id="Shape" fill="#FFFFFF"></path>
                <path d="M27.0693878,17.7142857 C27.0693878,17.7142857 27.0693878,17.7142857 27.0693878,17.7142857 C26.9061224,17.7142857 26.7591837,17.7142857 26.5959184,17.7142857 C26.4326531,17.7142857 26.2857143,17.7142857 26.122449,17.7142857 C25.4530612,17.7142857 24.8816327,17.4204082 24.3918367,17.1428571 C23.2489796,16.4734694 22.6122449,15.477551 22.5959184,14.3183673 C22.5959184,13.5183673 22.677551,12.6530612 22.8734694,11.6734694 C23.0530612,10.7918367 23.4612245,9.94285714 23.8530612,9.14285714 L23.9183673,9.02857143 C23.9836735,8.88163265 24.0653061,8.73469388 24.1306122,8.5877551 C24.1306122,8.5877551 24.1306122,8.57142857 24.1469388,8.57142857 L24.2612245,8.48979592 C24.4734694,8.34285714 24.7020408,8.27755102 24.9142857,8.27755102 C25.2244898,8.27755102 25.4693878,8.45714286 25.6,8.76734694 C25.7795918,9.27346939 25.5346939,9.69795918 25.3061224,10.1061224 C25.2244898,10.2367347 25.1428571,10.3836735 25.077551,10.5306122 C24.6693878,11.444898 24.2612245,12.522449 24.2285714,13.5673469 C24.2122449,14.3673469 24.2612245,15.1510204 24.9795918,15.722449 C25.4530612,16.0979592 26.0408163,16.2938776 26.7102041,16.2938776 C26.955102,16.2938776 27.2163265,16.2612245 27.477551,16.2122449 C28.4408163,16 29.0938776,15.3469388 29.3387755,14.3836735 C29.4857143,13.7959184 29.5346939,13.1591837 29.4857143,12.5387755 C29.4367347,11.9510204 29.2244898,11.5102041 28.9959184,11.0040816 L28.9795918,10.9714286 C28.9469388,10.9061224 28.9142857,10.8408163 28.8816327,10.7755102 C28.6693878,10.3510204 28.4408163,9.86122449 28.5714286,9.46938776 C28.6367347,9.27346939 28.7836735,9.12653061 29.0122449,9.0122449 C29.1918367,8.93061224 29.355102,8.89795918 29.5183673,8.89795918 C29.7959184,8.89795918 30.0408163,9.02857143 30.2367347,9.25714286 C30.6285714,9.79591837 30.8571429,10.5142857 31.0857143,11.2489796 C31.5428571,12.8163265 31.444898,14.4653061 30.7918367,15.9020408 C30.6285714,16.244898 30.3836735,16.5387755 30.0571429,16.8 C29.322449,17.3714286 28.6367347,17.6816327 27.9183673,17.7306122 C27.6897959,17.6979592 27.4285714,17.7142857 27.0693878,17.7142857 Z M24.1959184,8.5877551 C24.1306122,8.73469388 24.0489796,8.88163265 23.9836735,9.02857143 L23.9183673,9.14285714 C23.5265306,9.94285714 23.1346939,10.7918367 22.955102,11.6734694 C22.7591837,12.6530612 22.6612245,13.5183673 22.677551,14.3183673 C22.6938776,15.444898 23.3142857,16.4244898 24.4408163,17.0938776 C24.9142857,17.3714286 25.4857143,17.6489796 26.1387755,17.6489796 C26.2857143,17.6489796 26.4489796,17.6489796 26.6122449,17.6489796 C26.7755102,17.6489796 26.922449,17.6489796 27.0857143,17.6489796 C27.4285714,17.6489796 27.7061224,17.6489796 27.9510204,17.6326531 C28.6530612,17.5836735 29.3387755,17.2734694 30.0571429,16.7020408 C30.3836735,16.4408163 30.6122449,16.1469388 30.7755102,15.8204082 C31.4122449,14.4 31.5102041,12.7673469 31.0693878,11.2163265 C30.8571429,10.4816327 30.6122449,9.77959184 30.2367347,9.24081633 C30.0571429,9.0122449 29.844898,8.89795918 29.5673469,8.89795918 C29.4204082,8.89795918 29.2571429,8.93061224 29.0938776,9.0122449 C28.8816327,9.12653061 28.7346939,9.25714286 28.6693878,9.43673469 C28.5387755,9.8122449 28.7673469,10.2857143 28.9795918,10.7102041 C29.0122449,10.7755102 29.044898,10.8408163 29.077551,10.9061224 L29.0938776,10.9387755 C29.3387755,11.4612245 29.5510204,11.9020408 29.6,12.5061224 C29.6489796,13.1428571 29.5836735,13.7795918 29.4530612,14.3836735 C29.2081633,15.3795918 28.522449,16.0326531 27.5428571,16.2612245 C27.2816327,16.3102041 27.0204082,16.3428571 26.7591837,16.3428571 C26.0734694,16.3428571 25.4693878,16.1469388 24.9959184,15.7714286 C24.2612245,15.1836735 24.2122449,14.4 24.2285714,13.5673469 C24.2612245,12.5061224 24.6693878,11.4285714 25.077551,10.4979592 C25.1428571,10.3510204 25.2244898,10.2040816 25.3061224,10.0734694 C25.5346939,9.66530612 25.7632653,9.27346939 25.6,8.78367347 C25.4530612,8.40816327 25.1755102,8.32653061 24.9795918,8.32653061 C24.7836735,8.32653061 24.5714286,8.39183673 24.3591837,8.53877551 L24.1959184,8.5877551 Z" id="Shape" fill="#841723" fill-rule="nonzero"></path>
                <path d="M14.8571429,18.8571429 C14.9061224,18.0244898 14.8571429,17.1755102 14.8408163,16.3428571 C14.8244898,15.0693878 14.8897959,13.7795918 14.8081633,12.5061224 C14.8081633,12.4408163 14.922449,12.277551 14.9714286,12.2122449 C15.5428571,11.3142857 16.555102,10.7265306 17.6489796,10.9714286 C17.6816327,10.9877551 17.7306122,10.9877551 17.7632653,11.0040816 C18.5142857,11.2489796 19.5755102,12.8816327 20.3918367,12 C20.7346939,11.5755102 20.6367347,11.0367347 20.2122449,10.7102041 C19.722449,10.3510204 19.2816327,9.92653061 18.7102041,9.71428571 C18.4816327,9.63265306 18.2367347,9.58367347 18.0081633,9.55102041 C16.8163265,9.37142857 15.4612245,9.45306122 14.5959184,10.3836735 C14.5142857,10.2040816 14.3510204,10.0571429 14.1714286,9.95918367 C13.6653061,9.76326531 13.3387755,10.1061224 13.044898,10.4653061 C13.1428571,13.0285714 13.2571429,15.6081633 13.3714286,18.1714286 C13.4040816,18.7428571 13.3061224,20.2122449 14.2857143,19.9836735 C14.8081633,19.8040816 14.8408163,19.2979592 14.8571429,18.8571429" id="Shape" fill="#FFFFFF"></path>
                <path d="M14.122449,20.0326531 C14.122449,20.0326531 14.122449,20.0326531 14.122449,20.0326531 C13.4040816,20.0326531 13.3877551,19.0040816 13.3714286,18.3836735 C13.3714286,18.3020408 13.3714286,18.2367347 13.3714286,18.1714286 C13.2897959,16.1959184 13.2081633,14.1877551 13.1265306,12.244898 L13.044898,10.4489796 C13.044898,10.4489796 13.044898,10.4326531 13.044898,10.4326531 C13.2734694,10.1387755 13.5346939,9.86122449 13.8938776,9.86122449 C13.9918367,9.86122449 14.0897959,9.87755102 14.1877551,9.92653061 C14.3673469,10.0081633 14.5142857,10.155102 14.5959184,10.3183673 C15.1673469,9.73061224 15.9836735,9.42040816 17.0285714,9.42040816 C17.3387755,9.42040816 17.6653061,9.45306122 17.9918367,9.50204082 C18.2693878,9.55102041 18.4979592,9.6 18.7102041,9.68163265 C19.1346939,9.84489796 19.4938776,10.122449 19.8367347,10.3836735 C19.9673469,10.4816327 20.0979592,10.5795918 20.2285714,10.677551 C20.4571429,10.8571429 20.5877551,11.0857143 20.6204082,11.3469388 C20.6530612,11.5918367 20.5714286,11.8204082 20.4081633,12.0163265 C20.244898,12.1959184 20.0653061,12.2938776 19.8530612,12.2938776 C19.4285714,12.2938776 19.0040816,11.9346939 18.5795918,11.5918367 C18.2857143,11.3469388 18.0081633,11.1183673 17.7632653,11.0367347 C17.7306122,11.0204082 17.6816327,11.0204082 17.6489796,11.0040816 C17.4857143,10.9714286 17.322449,10.955102 17.1755102,10.955102 C16.3265306,10.955102 15.5102041,11.4285714 15.0040816,12.244898 C14.9877551,12.2612245 14.9877551,12.277551 14.9714286,12.2938776 C14.922449,12.3591837 14.8408163,12.4734694 14.8571429,12.522449 C14.922449,13.355102 14.9061224,14.2040816 14.8897959,15.0204082 C14.8897959,15.4612245 14.8734694,15.9183673 14.8897959,16.3428571 C14.8897959,16.5877551 14.9061224,16.8326531 14.9061224,17.077551 C14.922449,17.6653061 14.9387755,18.2693878 14.9061224,18.8734694 L14.9061224,18.8897959 C14.8734694,19.3469388 14.8571429,19.8530612 14.3346939,20.0163265 C14.2530612,20.0163265 14.1877551,20.0326531 14.122449,20.0326531 Z M13.1102041,10.4653061 L13.1755102,12.2285714 C13.2571429,14.1714286 13.3387755,16.1795918 13.4204082,18.155102 C13.4204082,18.2204082 13.4204082,18.2857143 13.4204082,18.3673469 C13.4367347,18.9714286 13.4530612,19.9673469 14.1061224,19.9673469 C14.1061224,19.9673469 14.1061224,19.9673469 14.1061224,19.9673469 C14.155102,19.9673469 14.2204082,19.9673469 14.2857143,19.9510204 C14.7591837,19.7877551 14.7918367,19.3306122 14.8244898,18.8734694 L14.8244898,18.8571429 C14.8571429,18.2693878 14.8408163,17.6653061 14.8244898,17.077551 C14.8244898,16.8326531 14.8081633,16.5877551 14.8081633,16.3428571 C14.8081633,15.9020408 14.8081633,15.444898 14.8081633,15.0040816 C14.8244898,14.1877551 14.8244898,13.322449 14.7755102,12.5061224 C14.7755102,12.4408163 14.8244898,12.3428571 14.9061224,12.244898 C14.922449,12.2285714 14.9387755,12.2122449 14.9387755,12.1959184 C15.4612245,11.3795918 16.277551,10.8897959 17.1591837,10.8897959 C17.322449,10.8897959 17.4857143,10.9061224 17.6489796,10.9387755 C17.6979592,10.955102 17.7306122,10.955102 17.7795918,10.9714286 C18.0408163,11.0530612 18.3183673,11.2816327 18.6285714,11.5265306 C19.0367347,11.8693878 19.4612245,12.2122449 19.8693878,12.2122449 C20.0653061,12.2122449 20.2285714,12.1306122 20.3918367,11.9673469 C20.5387755,11.7877551 20.6204082,11.5755102 20.5877551,11.3469388 C20.555102,11.1020408 20.4244898,10.8897959 20.2285714,10.7102041 C20.0979592,10.6122449 19.9673469,10.5142857 19.8367347,10.4163265 C19.4938776,10.155102 19.1510204,9.87755102 18.7265306,9.71428571 C18.5306122,9.64897959 18.3020408,9.58367347 18.0244898,9.55102041 C17.6816327,9.50204082 17.3714286,9.46938776 17.0612245,9.46938776 C16.0163265,9.46938776 15.2,9.77959184 14.644898,10.3673469 C14.644898,10.3673469 14.6285714,10.3836735 14.6122449,10.3836735 C14.5959184,10.3836735 14.5959184,10.3836735 14.5959184,10.3673469 C14.5306122,10.2040816 14.3673469,10.0571429 14.1877551,9.95918367 C14.0897959,9.92653061 14.0081633,9.91020408 13.9102041,9.91020408 C13.5836735,9.91020408 13.322449,10.1877551 13.1102041,10.4653061 Z" id="Shape" fill="#841723" fill-rule="nonzero"></path>
                <path d="M10.5795918,10.955102 C10.5306122,10.2693878 10.4979592,8.76734694 9.42040816,9.07755102 C8.76734694,9.32244898 8.81632653,10.0571429 8.86530612,10.6122449 C8.16326531,10.0897959 7.13469388,9.87755102 6.28571429,9.74693878 C6.17142857,9.73061224 6.05714286,9.71428571 5.94285714,9.71428571 L5.94285714,11.4122449 C6.25306122,11.4122449 6.56326531,11.4285714 6.87346939,11.4612245 C7.16734694,11.4938776 7.39591837,11.5755102 7.6244898,11.755102 C8.68571429,12.7020408 9.20816327,14.2857143 8.84897959,15.6571429 C8.50612245,16.9142857 7.37959184,18.3346939 5.95918367,18.1877551 L5.95918367,19.7877551 C6.17142857,19.8040816 6.36734694,19.8040816 6.57959184,19.8040816 C7.77142857,19.7387755 8.52244898,18.9061224 9.27346939,18.1061224 C9.28979592,18.6612245 9.2244898,19.5265306 9.86122449,19.8040816 C10.9061224,20.1306122 10.7591837,18.4489796 10.7265306,17.877551 C10.6612245,15.5755102 10.7102041,13.2571429 10.5795918,10.955102 Z M5.95918367,9.71428571 C5.40408163,9.68163265 4.91428571,9.76326531 4.35918367,9.9755102 C4,10.1061224 3.6244898,10.2367347 3.28163265,10.4326531 C2.38367347,10.9387755 2.10612245,11.9510204 1.77959184,12.8489796 C1.50204082,13.6489796 1.46938776,14.5959184 1.43673469,15.444898 C1.43673469,15.5428571 1.43673469,15.6244898 1.43673469,15.722449 L1.43673469,15.9183673 C1.43673469,16.4081633 1.50204082,16.8979592 1.74693878,17.322449 C1.89387755,17.5510204 2.04081633,17.7795918 2.20408163,17.9918367 C2.75918367,18.8081633 3.6244898,19.444898 4.62040816,19.6081633 C5.06122449,19.6734694 5.51836735,19.755102 5.9755102,19.7877551 L5.9755102,18.1877551 C5.87755102,18.1714286 5.79591837,18.155102 5.69795918,18.1387755 C5.11020408,17.9918367 4.47346939,17.8285714 3.98367347,17.4530612 C3.5755102,17.1428571 3.13469388,16.9795918 3.05306122,16.4408163 C2.95510204,15.6081633 2.92244898,14.6612245 3.08571429,13.8285714 C3.24897959,12.9632653 3.6244898,12.3591837 4.32653061,11.8040816 C4.53877551,11.722449 4.73469388,11.6244898 4.93061224,11.5102041 C5.07755102,11.4122449 5.20816327,11.3959184 5.3877551,11.3959184 C5.58367347,11.3959184 5.77959184,11.3959184 5.9755102,11.3959184 L5.9755102,9.71428571 L5.95918367,9.71428571 Z" id="Shape" fill="#FFFFFF"></path>
                <path d="M10.1061224,19.8693878 C10.1061224,19.8693878 10.1061224,19.8693878 10.1061224,19.8693878 C10.0244898,19.8693878 9.94285714,19.8530612 9.84489796,19.8204082 C9.25714286,19.5755102 9.24081633,18.8244898 9.24081633,18.2857143 C9.24081633,18.2530612 9.24081633,18.2040816 9.24081633,18.1714286 C8.50612245,18.955102 7.73877551,19.7714286 6.56326531,19.8367347 C6.49795918,19.8367347 6.43265306,19.8367347 6.36734694,19.8367347 C5.86122449,19.8367347 5.35510204,19.755102 4.86530612,19.6734694 C4.76734694,19.6571429 4.66938776,19.6408163 4.5877551,19.6244898 C3.6244898,19.477551 2.74285714,18.8897959 2.13877551,17.9918367 C2.08979592,17.9265306 2.04081633,17.844898 1.99183673,17.7795918 C1.89387755,17.6326531 1.77959184,17.4693878 1.68163265,17.322449 C1.35510204,16.7673469 1.35510204,16.1306122 1.37142857,15.4285714 C1.40408163,14.5959184 1.43673469,13.6489796 1.71428571,12.8326531 C1.74693878,12.7510204 1.77959184,12.6530612 1.8122449,12.5714286 C2.10612245,11.722449 2.41632653,10.8571429 3.23265306,10.4 C3.55918367,10.2204082 3.90204082,10.0897959 4.24489796,9.9755102 L4.32653061,9.94285714 C4.84897959,9.74693878 5.25714286,9.66530612 5.69795918,9.66530612 C5.89387755,9.66530612 6.07346939,9.68163265 6.28571429,9.71428571 C7.15102041,9.86122449 8.13061224,10.0734694 8.81632653,10.5469388 C8.76734694,10.0734694 8.71836735,9.28979592 9.3877551,9.04489796 C9.48571429,9.0122449 9.58367347,8.99591837 9.66530612,8.99591837 C10.4653061,8.99591837 10.5306122,10.2040816 10.5795918,10.8408163 L10.5795918,10.9387755 C10.6612245,12.2938776 10.677551,13.6816327 10.6938776,15.0204082 C10.7102041,15.9510204 10.7102041,16.9142857 10.7428571,17.8612245 C10.7428571,17.8938776 10.7428571,17.9428571 10.7428571,17.9918367 C10.7591837,18.4653061 10.8081633,19.3306122 10.4653061,19.6897959 C10.3836735,19.8204082 10.2693878,19.8693878 10.1061224,19.8693878 Z M9.27346939,18.0897959 C9.27346939,18.0897959 9.27346939,18.0897959 9.27346939,18.0897959 C9.28979592,18.0897959 9.30612245,18.1061224 9.30612245,18.122449 C9.30612245,18.1877551 9.30612245,18.2367347 9.30612245,18.3020408 C9.32244898,18.8571429 9.32244898,19.5591837 9.87755102,19.7877551 C9.95918367,19.8204082 10.0408163,19.8204082 10.1061224,19.8204082 C10.1061224,19.8204082 10.1061224,19.8204082 10.1061224,19.8204082 C10.2367347,19.8204082 10.3510204,19.7714286 10.4489796,19.6734694 C10.7755102,19.3306122 10.7265306,18.4816327 10.7102041,18.0244898 C10.7102041,17.9755102 10.7102041,17.9265306 10.7102041,17.8938776 C10.677551,16.9469388 10.6612245,15.9836735 10.6612245,15.0530612 C10.644898,13.7142857 10.6285714,12.3265306 10.5469388,10.9714286 L10.5469388,10.8734694 C10.5142857,10.2530612 10.4489796,9.07755102 9.69795918,9.07755102 C9.61632653,9.07755102 9.51836735,9.09387755 9.43673469,9.12653061 C8.84897959,9.33877551 8.83265306,9.9755102 8.91428571,10.6285714 C8.91428571,10.644898 8.91428571,10.644898 8.89795918,10.6612245 C8.88163265,10.6612245 8.88163265,10.6612245 8.86530612,10.6612245 C8.17959184,10.155102 7.18367347,9.94285714 6.30204082,9.79591837 C6.10612245,9.76326531 5.91020408,9.74693878 5.71428571,9.74693878 C5.28979592,9.74693878 4.88163265,9.82857143 4.35918367,10.0081633 L4.27755102,10.0408163 C3.93469388,10.155102 3.59183673,10.2857143 3.28163265,10.4653061 C2.48163265,10.9061224 2.1877551,11.7714286 1.89387755,12.6040816 C1.86122449,12.6857143 1.82857143,12.7836735 1.79591837,12.8653061 C1.51836735,13.6816327 1.48571429,14.6122449 1.45306122,15.444898 C1.43673469,16.1469388 1.43673469,16.7673469 1.76326531,17.3061224 C1.86122449,17.4693878 1.95918367,17.6163265 2.07346939,17.7632653 C2.12244898,17.8285714 2.17142857,17.9102041 2.22040816,17.9755102 C2.80816327,18.8408163 3.68979592,19.4285714 4.62040816,19.5755102 C4.71836735,19.5918367 4.81632653,19.6081633 4.89795918,19.6244898 C5.3877551,19.7061224 5.89387755,19.7877551 6.38367347,19.7877551 C6.44897959,19.7877551 6.51428571,19.7877551 6.56326531,19.7877551 C7.72244898,19.722449 8.47346939,18.922449 9.20816327,18.1387755 L9.24081633,18.0897959 C9.25714286,18.0897959 9.27346939,18.0897959 9.27346939,18.0897959 Z M6.15510204,18.2367347 C5.99183673,18.2367347 5.82857143,18.2204082 5.66530612,18.1714286 C5.06122449,18.0244898 4.4244898,17.844898 3.95102041,17.4857143 C3.86938776,17.4204082 3.77142857,17.355102 3.67346939,17.2897959 C3.36326531,17.077551 3.06938776,16.8816327 3.00408163,16.4571429 C2.88979592,15.5102041 2.88979592,14.5795918 3.03673469,13.8285714 C3.2,12.9632653 3.59183673,12.3265306 4.27755102,11.7877551 C4.27755102,11.7877551 4.27755102,11.7877551 4.27755102,11.7877551 C4.47346939,11.7061224 4.68571429,11.6081633 4.88163265,11.4938776 C5.02857143,11.3959184 5.15918367,11.3795918 5.35510204,11.3795918 C5.45306122,11.3795918 5.53469388,11.3795918 5.63265306,11.3795918 C5.71428571,11.3795918 5.8122449,11.3795918 5.89387755,11.3795918 C6.20408163,11.3795918 6.53061224,11.3795918 6.87346939,11.4285714 C7.2,11.4612245 7.42857143,11.5591837 7.64081633,11.7387755 C8.73469388,12.7183673 9.24081633,14.3020408 8.88163265,15.6734694 C8.53877551,16.9142857 7.47755102,18.2367347 6.15510204,18.2367347 Z M4.31020408,11.8367347 C3.6244898,12.3755102 3.26530612,12.9795918 3.08571429,13.844898 C2.95510204,14.5795918 2.93877551,15.5102041 3.05306122,16.4408163 C3.11836735,16.8489796 3.37959184,17.0285714 3.68979592,17.2408163 C3.7877551,17.3061224 3.86938776,17.3714286 3.96734694,17.4367347 C4.44081633,17.7959184 5.06122449,17.9591837 5.66530612,18.1061224 C5.82857143,18.1387755 5.9755102,18.155102 6.13877551,18.155102 C7.42857143,18.155102 8.47346939,16.8489796 8.8,15.6408163 C9.15918367,14.2857143 8.66938776,12.7183673 7.59183673,11.755102 C7.39591837,11.5755102 7.18367347,11.4938776 6.85714286,11.4612245 C6.51428571,11.4285714 6.1877551,11.4122449 5.87755102,11.4122449 C5.79591837,11.4122449 5.69795918,11.4122449 5.61632653,11.4122449 C5.51836735,11.4122449 5.43673469,11.4122449 5.33877551,11.4122449 C5.15918367,11.4122449 5.04489796,11.4285714 4.89795918,11.5265306 C4.71836735,11.6734694 4.50612245,11.755102 4.31020408,11.8367347 Z" id="Shape" fill="#841723" fill-rule="nonzero"></path>
            </g>
        </g>
    </g>
</svg>