<?xml version="1.0" encoding="UTF-8"?>
<svg width="109px" height="29px" viewBox="0 0 109 29" version="1.1" xmlns="http://www.w3.org/2000/svg" xmlns:xlink="http://www.w3.org/1999/xlink">
    <!-- Generator: Sketch 50.2 (55047) - http://www.bohemiancoding.com/sketch -->
    <title>spid-idp-sielteid</title>
    <desc>Created with Sketch.</desc>
    <defs></defs>
    <g id="Page-1" stroke="none" stroke-width="1" fill="none" fill-rule="evenodd">
        <g id="spid-idp-sielteid" fill-rule="nonzero">
            <path d="M17.0178295,28.820155 C11.8697674,27.875969 8.04806202,24.7286822 6.0248062,19.7379845 C5.64263566,18.7937984 5.14806202,17.1302326 5.2379845,17.0627907 C5.26046512,17.0403101 6.85658915,16.9953488 8.76744186,16.9953488 L12.251938,16.9953488 L19.7379845,20.6821705 L27.224031,24.3689922 L28.8875969,24.3689922 C29.944186,24.3689922 30.5511628,24.4139535 30.5511628,24.4813953 C30.5511628,24.7062016 29.1124031,25.9651163 28.2356589,26.5496124 C26.6844961,27.5612403 25.0658915,28.2131783 23.1100775,28.6627907 C21.8286822,28.9775194 18.2992248,29.0449612 17.0178295,28.820155 Z M19.7829457,17.8945736 L12.251938,14.2302326 L0,14.2302326 L0,12.0945736 L12.2968992,12.0945736 L19.7829457,15.7813953 L27.2689922,19.4682171 L108.581395,19.4682171 L108.581395,21.603876 L67.9589147,21.603876 L27.3364341,21.603876 L19.7829457,17.8945736 Z M101.657364,17.0178295 C100.218605,16.748062 99.5217054,15.151938 99.9488372,13.1736434 C100.39845,11.0829457 101.589922,9.86899225 103.29845,9.75658915 C104.017829,9.71162791 104.602326,9.86899225 105.186822,10.296124 C105.299225,10.3635659 105.411628,10.4085271 105.434109,10.3635659 C105.47907,10.3186047 105.591473,9.71162791 105.726357,8.96976744 C106.041085,7.01395349 105.928682,7.17131783 107.367442,7.17131783 C108.311628,7.17131783 108.581395,7.19379845 108.626357,7.32868217 C108.648837,7.41860465 108.40155,9.05968992 108.064341,10.9930233 C107.727132,12.9263566 107.367442,14.9271318 107.277519,15.4666667 C107.030233,16.9953488 107.120155,16.9054264 105.771318,16.9054264 L104.624806,16.9054264 L104.624806,16.5232558 C104.624806,16.0736434 104.489922,16.0511628 104.04031,16.4333333 C103.433333,16.927907 102.489147,17.1751938 101.657364,17.0178295 Z M104.085271,14.9271318 C104.489922,14.7248062 104.804651,14.2077519 104.962016,13.4434109 C105.186822,12.3868217 104.804651,11.7573643 103.972868,11.7573643 C103.163566,11.7573643 102.668992,12.4992248 102.57907,13.7581395 C102.534109,14.4775194 102.556589,14.5449612 102.803876,14.7922481 C103.141085,15.1069767 103.590698,15.151938 104.085271,14.9271318 Z M42.3310078,16.6806202 C41.5217054,16.4333333 41.0271318,16.0511628 40.6449612,15.4217054 C40.3302326,14.8821705 40.0379845,13.9829457 40.1503876,13.8705426 C40.1953488,13.8255814 40.7573643,13.7581395 41.4317829,13.7356589 L42.6457364,13.6682171 L42.7806202,14.0728682 C43.027907,14.8596899 43.6348837,15.2868217 44.4666667,15.2868217 C45.3434109,15.2868217 45.9503876,14.8147287 45.9503876,14.1403101 C45.9503876,13.6232558 45.4782946,13.2186047 44.6914729,12.9937984 C42.2186047,12.3193798 41.3193798,11.9147287 40.8697674,11.2403101 C40.3077519,10.4085271 40.3077519,9.35193798 40.8922481,8.45271318 C41.1395349,8.04806202 41.3643411,7.86821705 41.9713178,7.57596899 L42.7131783,7.19379845 L44.3767442,7.19379845 C45.8829457,7.19379845 46.0852713,7.21627907 46.6023256,7.44108527 C47.2992248,7.75581395 47.8387597,8.31782946 48.1085271,8.99224806 C48.4007752,9.73410853 48.3108527,9.82403101 47.3666667,9.82403101 C46.9395349,9.82403101 46.4,9.84651163 46.1976744,9.89147287 C45.8379845,9.93643411 45.7930233,9.91395349 45.5906977,9.55426357 C45.2534884,8.94728682 44.8713178,8.72248062 44.1744186,8.72248062 C43.679845,8.72248062 43.5224806,8.76744186 43.2751938,8.99224806 C42.9379845,9.32945736 42.8930233,9.75658915 43.1852713,10.0488372 C43.2976744,10.1612403 44.0170543,10.4085271 44.8713178,10.6333333 C47.1643411,11.2403101 47.9286822,11.6449612 48.355814,12.5666667 C48.5131783,12.903876 48.5806202,13.2635659 48.5806202,13.7806202 C48.5806202,15.0395349 47.9286822,16.0286822 46.7147287,16.5906977 C46.1751938,16.8379845 45.9728682,16.8604651 44.5341085,16.8829457 C43.2302326,16.8829457 42.848062,16.8604651 42.3310078,16.6806202 Z M95.1829457,16.8155039 C95.0930233,16.6581395 96.3294574,10.003876 96.4643411,9.91395349 C96.644186,9.80155039 98.6449612,9.82403101 98.8248062,9.93643411 C98.9596899,10.0263566 98.8922481,10.5434109 98.3976744,13.3310078 C98.0829457,15.151938 97.7906977,16.6806202 97.7682171,16.7705426 C97.7007752,16.9054264 95.2728682,16.9503876 95.1829457,16.8155039 Z M19.7604651,13.0837209 L12.3193798,9.41937984 L9.05968992,9.41937984 C7.26124031,9.41937984 5.8,9.3744186 5.8,9.32945736 C5.8,9.28449612 6.04728682,8.74496124 6.33953488,8.16046512 L6.87906977,7.05891473 L12.2744186,7.05891473 L27.3364341,14.5449612 L34.9348837,14.5449612 L34.8674419,15.5116279 C34.8224806,16.0511628 34.7550388,16.5457364 34.7325581,16.6356589 C34.6875969,16.7705426 34.148062,16.7930233 30.9333333,16.7705426 L27.2015504,16.7705426 L19.7604651,13.0837209 Z M50.6937984,12.0496124 L50.7162791,7.30620155 L53.3465116,7.30620155 L53.3465116,16.7255814 L50.6713178,16.7930233 L50.6937984,12.0496124 Z M55.9542636,12.0496124 L55.9767442,7.30620155 L59.8434109,7.28372093 L63.7100775,7.26124031 L63.7100775,9.08217054 L61.3046512,9.08217054 C59.3713178,9.08217054 58.8767442,9.10465116 58.7868217,9.23953488 C58.6968992,9.32945736 58.6744186,9.66666667 58.6968992,10.1162791 L58.7193798,10.8581395 L61.0124031,10.9031008 L63.3054264,10.948062 L63.3054264,12.6565891 L61.0124031,12.7015504 L58.7193798,12.7465116 L58.6968992,13.6682171 C58.6744186,14.3426357 58.6968992,14.6124031 58.8093023,14.7023256 C58.8992248,14.7922481 59.775969,14.8372093 61.4170543,14.8596899 L63.8674419,14.8821705 L63.8674419,16.7031008 L59.8883721,16.7255814 L55.9093023,16.748062 L55.9542636,12.0496124 Z M65.9131783,12.0496124 L65.9356589,7.30620155 L68.5658915,7.30620155 L68.6108527,10.948062 L68.655814,14.5899225 L70.9713178,14.6124031 L73.2868217,14.6348837 L73.2868217,16.7705426 L65.8457364,16.7705426 L65.9131783,12.0496124 Z M76.7937984,16.7255814 C76.7488372,16.6806202 76.7263566,15.0395349 76.7263566,13.0837209 L76.7263566,9.50930233 L76.4790698,9.46434109 C76.344186,9.44186047 75.6697674,9.39689922 74.9728682,9.3744186 L73.7139535,9.35193798 L73.7139535,7.32868217 L82.5713178,7.32868217 L82.5713178,9.35193798 L81.1325581,9.39689922 C80.3457364,9.41937984 79.6488372,9.48682171 79.603876,9.53178295 C79.5589147,9.57674419 79.4914729,11.2178295 79.4914729,13.1736434 L79.4689922,16.7255814 L78.1651163,16.748062 C77.4682171,16.7705426 76.8387597,16.7705426 76.7937984,16.7255814 Z M84.3248062,16.6581395 C84.3023256,16.5906977 84.279845,14.4550388 84.3023256,11.9147287 L84.3248062,7.30620155 L92.1031008,7.30620155 L92.1031008,9.01472868 L89.6302326,9.05968992 L87.1573643,9.10465116 L87.0899225,10.8581395 L91.6310078,10.9255814 L91.6310078,12.6341085 L89.3604651,12.6565891 L87.0899225,12.6790698 L87.1124031,13.7131783 L87.1348837,14.7472868 L89.6751938,14.7697674 L92.2155039,14.7922481 L92.2155039,16.7031008 L88.2813953,16.7031008 C85.2689922,16.7930233 84.3697674,16.748062 84.3248062,16.6581395 Z M19.8054264,8.11550388 L12.4317829,4.49612403 L10.7682171,4.49612403 C9.77906977,4.49612403 9.10465116,4.45116279 9.10465116,4.38372093 C9.10465116,4.02403101 10.9255814,2.5627907 12.2968992,1.84341085 C13.3310078,1.28139535 14.972093,0.674418605 16.4108527,0.359689922 C18.0069767,-4.47558657e-16 21.0193798,-0.112403101 22.6604651,0.157364341 C27.3139535,0.899224806 30.9333333,3.59689922 33.0465116,7.86821705 C33.5635659,8.90232558 34.3054264,10.9031008 34.3728682,11.4426357 L34.4178295,11.7124031 L30.7984496,11.7348837 L27.2015504,11.7573643 L19.8054264,8.11550388 Z M96.5317829,8.83488372 C96.5317829,8.52015504 96.7790698,7.41860465 96.8914729,7.28372093 C96.9589147,7.19379845 97.3635659,7.14883721 98.1953488,7.14883721 C99.072093,7.14883721 99.3868217,7.19379845 99.4093023,7.28372093 C99.4317829,7.50852713 99.3868217,7.82325581 99.2744186,8.40775194 L99.1620155,8.96976744 L97.8581395,8.96976744 C96.824031,8.96976744 96.5317829,8.94728682 96.5317829,8.83488372 Z" id="Shape" fill="#1B72B8"></path>
            <path d="M17.0178295,28.820155 C11.8697674,27.875969 8.04806202,24.7286822 6.0248062,19.7379845 C5.64263566,18.7937984 5.14806202,17.1302326 5.2379845,17.0627907 C5.26046512,17.0403101 6.85658915,16.9953488 8.76744186,16.9953488 L12.251938,16.9953488 L19.7379845,20.6821705 L27.224031,24.3689922 L28.8875969,24.3689922 C29.944186,24.3689922 30.5511628,24.4139535 30.5511628,24.4813953 C30.5511628,24.7062016 29.1124031,25.9651163 28.2356589,26.5496124 C26.6844961,27.5612403 25.0658915,28.2131783 23.1100775,28.6627907 C21.8286822,28.9775194 18.2992248,29.0449612 17.0178295,28.820155 Z M101.657364,17.0178295 C100.218605,16.748062 99.5217054,15.151938 99.9488372,13.1736434 C100.39845,11.0829457 101.589922,9.86899225 103.29845,9.75658915 C104.017829,9.71162791 104.602326,9.86899225 105.186822,10.296124 C105.299225,10.3635659 105.411628,10.4085271 105.434109,10.3635659 C105.47907,10.3186047 105.591473,9.71162791 105.726357,8.96976744 C106.041085,7.01395349 105.928682,7.17131783 107.367442,7.17131783 C108.311628,7.17131783 108.581395,7.19379845 108.626357,7.32868217 C108.648837,7.41860465 108.40155,9.05968992 108.064341,10.9930233 C107.727132,12.9263566 107.367442,14.9271318 107.277519,15.4666667 C107.030233,16.9953488 107.120155,16.9054264 105.771318,16.9054264 L104.624806,16.9054264 L104.624806,16.5232558 C104.624806,16.0736434 104.489922,16.0511628 104.04031,16.4333333 C103.433333,16.927907 102.489147,17.1751938 101.657364,17.0178295 Z M104.085271,14.9271318 C104.489922,14.7248062 104.804651,14.2077519 104.962016,13.4434109 C105.186822,12.3868217 104.804651,11.7573643 103.972868,11.7573643 C103.163566,11.7573643 102.668992,12.4992248 102.57907,13.7581395 C102.534109,14.4775194 102.556589,14.5449612 102.803876,14.7922481 C103.141085,15.1069767 103.590698,15.151938 104.085271,14.9271318 Z M42.3310078,16.6806202 C41.5217054,16.4333333 41.0271318,16.0511628 40.6449612,15.4217054 C40.3302326,14.8821705 40.0379845,13.9829457 40.1503876,13.8705426 C40.1953488,13.8255814 40.7573643,13.7581395 41.4317829,13.7356589 L42.6457364,13.6682171 L42.7806202,14.0728682 C43.027907,14.8596899 43.6348837,15.2868217 44.4666667,15.2868217 C45.3434109,15.2868217 45.9503876,14.8147287 45.9503876,14.1403101 C45.9503876,13.6232558 45.4782946,13.2186047 44.6914729,12.9937984 C42.2186047,12.3193798 41.3193798,11.9147287 40.8697674,11.2403101 C40.3077519,10.4085271 40.3077519,9.35193798 40.8922481,8.45271318 C41.1395349,8.04806202 41.3643411,7.86821705 41.9713178,7.57596899 L42.7131783,7.19379845 L44.3767442,7.19379845 C45.8829457,7.19379845 46.0852713,7.21627907 46.6023256,7.44108527 C47.2992248,7.75581395 47.8387597,8.31782946 48.1085271,8.99224806 C48.4007752,9.73410853 48.3108527,9.82403101 47.3666667,9.82403101 C46.9395349,9.82403101 46.4,9.84651163 46.1976744,9.89147287 C45.8379845,9.93643411 45.7930233,9.91395349 45.5906977,9.55426357 C45.2534884,8.94728682 44.8713178,8.72248062 44.1744186,8.72248062 C43.679845,8.72248062 43.5224806,8.76744186 43.2751938,8.99224806 C42.9379845,9.32945736 42.8930233,9.75658915 43.1852713,10.0488372 C43.2976744,10.1612403 44.0170543,10.4085271 44.8713178,10.6333333 C47.1643411,11.2403101 47.9286822,11.6449612 48.355814,12.5666667 C48.5131783,12.903876 48.5806202,13.2635659 48.5806202,13.7806202 C48.5806202,15.0395349 47.9286822,16.0286822 46.7147287,16.5906977 C46.1751938,16.8379845 45.9728682,16.8604651 44.5341085,16.8829457 C43.2302326,16.8829457 42.848062,16.8604651 42.3310078,16.6806202 Z M95.1829457,16.8155039 C95.0930233,16.6581395 96.3294574,10.003876 96.4643411,9.91395349 C96.644186,9.80155039 98.6449612,9.82403101 98.8248062,9.93643411 C98.9596899,10.0263566 98.8922481,10.5434109 98.3976744,13.3310078 C98.0829457,15.151938 97.7906977,16.6806202 97.7682171,16.7705426 C97.7007752,16.9054264 95.2728682,16.9503876 95.1829457,16.8155039 Z M19.7604651,13.0837209 L12.3193798,9.41937984 L9.05968992,9.41937984 C7.26124031,9.41937984 5.8,9.3744186 5.8,9.32945736 C5.8,9.28449612 6.04728682,8.74496124 6.33953488,8.16046512 L6.87906977,7.05891473 L12.2744186,7.05891473 L27.3364341,14.5449612 L34.9348837,14.5449612 L34.8674419,15.5116279 C34.8224806,16.0511628 34.7550388,16.5457364 34.7325581,16.6356589 C34.6875969,16.7705426 34.148062,16.7930233 30.9333333,16.7705426 L27.2015504,16.7705426 L19.7604651,13.0837209 Z M50.6937984,12.0496124 L50.7162791,7.30620155 L53.3465116,7.30620155 L53.3465116,16.7255814 L50.6713178,16.7930233 L50.6937984,12.0496124 Z M55.9542636,12.0496124 L55.9767442,7.30620155 L59.8434109,7.28372093 L63.7100775,7.26124031 L63.7100775,9.08217054 L61.3046512,9.08217054 C59.3713178,9.08217054 58.8767442,9.10465116 58.7868217,9.23953488 C58.6968992,9.32945736 58.6744186,9.66666667 58.6968992,10.1162791 L58.7193798,10.8581395 L61.0124031,10.9031008 L63.3054264,10.948062 L63.3054264,12.6565891 L61.0124031,12.7015504 L58.7193798,12.7465116 L58.6968992,13.6682171 C58.6744186,14.3426357 58.6968992,14.6124031 58.8093023,14.7023256 C58.8992248,14.7922481 59.775969,14.8372093 61.4170543,14.8596899 L63.8674419,14.8821705 L63.8674419,16.7031008 L59.8883721,16.7255814 L55.9093023,16.748062 L55.9542636,12.0496124 Z M65.9131783,12.0496124 L65.9356589,7.30620155 L68.5658915,7.30620155 L68.6108527,10.948062 L68.655814,14.5899225 L70.9713178,14.6124031 L73.2868217,14.6348837 L73.2868217,16.7705426 L65.8457364,16.7705426 L65.9131783,12.0496124 Z M76.7937984,16.7255814 C76.7488372,16.6806202 76.7263566,15.0395349 76.7263566,13.0837209 L76.7263566,9.50930233 L76.4790698,9.46434109 C76.344186,9.44186047 75.6697674,9.39689922 74.9728682,9.3744186 L73.7139535,9.35193798 L73.7139535,7.32868217 L82.5713178,7.32868217 L82.5713178,9.35193798 L81.1325581,9.39689922 C80.3457364,9.41937984 79.6488372,9.48682171 79.603876,9.53178295 C79.5589147,9.57674419 79.4914729,11.2178295 79.4914729,13.1736434 L79.4689922,16.7255814 L78.1651163,16.748062 C77.4682171,16.7705426 76.8387597,16.7705426 76.7937984,16.7255814 Z M84.3248062,16.6581395 C84.3023256,16.5906977 84.279845,14.4550388 84.3023256,11.9147287 L84.3248062,7.30620155 L92.1031008,7.30620155 L92.1031008,9.01472868 L89.6302326,9.05968992 L87.1573643,9.10465116 L87.0899225,10.8581395 L91.6310078,10.9255814 L91.6310078,12.6341085 L89.3604651,12.6565891 L87.0899225,12.6790698 L87.1124031,13.7131783 L87.1348837,14.7472868 L89.6751938,14.7697674 L92.2155039,14.7922481 L92.2155039,16.7031008 L88.2813953,16.7031008 C85.2689922,16.7930233 84.3697674,16.748062 84.3248062,16.6581395 Z M96.5317829,8.83488372 C96.5317829,8.52015504 96.7790698,7.41860465 96.8914729,7.28372093 C96.9589147,7.19379845 97.3635659,7.14883721 98.1953488,7.14883721 C99.072093,7.14883721 99.3868217,7.19379845 99.4093023,7.28372093 C99.4317829,7.50852713 99.3868217,7.82325581 99.2744186,8.40775194 L99.1620155,8.96976744 L97.8581395,8.96976744 C96.824031,8.96976744 96.5317829,8.94728682 96.5317829,8.83488372 Z" id="Shape" fill="#E5092E"></path>
            <path d="M17.0178295,28.820155 C11.8697674,27.875969 8.04806202,24.7286822 6.0248062,19.7379845 C5.64263566,18.7937984 5.14806202,17.1302326 5.2379845,17.0627907 C5.26046512,17.0403101 6.85658915,16.9953488 8.76744186,16.9953488 L12.251938,16.9953488 L19.7379845,20.6821705 L27.224031,24.3689922 L28.8875969,24.3689922 C29.944186,24.3689922 30.5511628,24.4139535 30.5511628,24.4813953 C30.5511628,24.7062016 29.1124031,25.9651163 28.2356589,26.5496124 C26.6844961,27.5612403 25.0658915,28.2131783 23.1100775,28.6627907 C21.8286822,28.9775194 18.2992248,29.0449612 17.0178295,28.820155 Z M42.3310078,16.6806202 C41.5217054,16.4333333 41.0271318,16.0511628 40.6449612,15.4217054 C40.3302326,14.8821705 40.0379845,13.9829457 40.1503876,13.8705426 C40.1953488,13.8255814 40.7573643,13.7581395 41.4317829,13.7356589 L42.6457364,13.6682171 L42.7806202,14.0728682 C43.027907,14.8596899 43.6348837,15.2868217 44.4666667,15.2868217 C45.3434109,15.2868217 45.9503876,14.8147287 45.9503876,14.1403101 C45.9503876,13.6232558 45.4782946,13.2186047 44.6914729,12.9937984 C42.2186047,12.3193798 41.3193798,11.9147287 40.8697674,11.2403101 C40.3077519,10.4085271 40.3077519,9.35193798 40.8922481,8.45271318 C41.1395349,8.04806202 41.3643411,7.86821705 41.9713178,7.57596899 L42.6906977,7.19379845 L43.4100775,7.05891473 C45.275969,6.72170543 46.0852713,7.21627907 46.6023256,7.44108527 C47.2992248,7.75581395 47.8387597,8.31782946 48.1085271,8.99224806 C48.4007752,9.73410853 48.3108527,9.82403101 47.3666667,9.82403101 C46.9395349,9.82403101 46.4,9.84651163 46.1976744,9.89147287 C45.8379845,9.93643411 45.7930233,9.91395349 45.5906977,9.55426357 C45.2534884,8.94728682 44.8713178,8.72248062 44.1744186,8.72248062 C43.679845,8.72248062 43.5224806,8.76744186 43.2751938,8.99224806 C42.9379845,9.32945736 42.8930233,9.75658915 43.1852713,10.0488372 C43.2976744,10.1612403 44.0170543,10.4085271 44.8713178,10.6333333 C47.1643411,11.2403101 47.9286822,11.6449612 48.355814,12.5666667 C48.5131783,12.903876 48.5806202,13.2635659 48.5806202,13.7806202 C48.5806202,15.0395349 47.9286822,16.0286822 46.7147287,16.5906977 C46.1751938,16.8379845 45.9728682,16.8604651 44.5341085,16.8829457 C43.2302326,16.8829457 42.848062,16.8604651 42.3310078,16.6806202 Z M19.7604651,13.0837209 L12.3193798,9.41937984 L9.05968992,9.41937984 C7.26124031,9.41937984 5.8,9.3744186 5.8,9.32945736 C5.8,9.28449612 6.04728682,8.74496124 6.33953488,8.16046512 L6.87906977,7.05891473 L12.2744186,7.05891473 L27.3364341,14.5449612 L34.9348837,14.5449612 L34.8674419,15.5116279 C34.8224806,16.0511628 34.8,16.748062 34.7100775,16.748062 C34.4627907,16.7705426 34.148062,16.7930233 30.9333333,16.7705426 L27.2015504,16.7705426 L19.7604651,13.0837209 Z M50.6937984,12.0496124 L50.7162791,7.30620155 L53.3465116,7.30620155 L53.3465116,16.7255814 L50.6713178,16.7930233 L50.6937984,12.0496124 Z M55.9542636,12.0496124 L55.9767442,7.30620155 L59.8434109,7.28372093 L63.7100775,7.26124031 L63.7100775,9.08217054 L61.3046512,9.08217054 C59.3713178,9.08217054 58.8767442,9.10465116 58.7868217,9.23953488 C58.6968992,9.32945736 58.6744186,9.66666667 58.6968992,10.1162791 L58.7193798,10.8581395 L61.0124031,10.9031008 L63.3054264,10.948062 L63.3054264,12.6565891 L61.0124031,12.7015504 L58.7193798,12.7465116 L58.6968992,13.6682171 C58.6744186,14.3426357 58.6968992,14.6124031 58.8093023,14.7023256 C58.8992248,14.7922481 59.775969,14.8372093 61.4170543,14.8596899 L63.8674419,14.8821705 L63.8674419,16.7031008 L59.8883721,16.7255814 L55.9093023,16.748062 L55.9542636,12.0496124 Z M65.9131783,12.0496124 L65.9356589,7.30620155 L68.5658915,7.30620155 L68.6108527,10.948062 L68.655814,14.5899225 L70.9713178,14.6124031 L73.2868217,14.6348837 L73.2868217,16.7705426 L65.8457364,16.7705426 L65.9131783,12.0496124 Z M76.7937984,16.7255814 C76.7488372,16.6806202 76.7263566,15.0395349 76.7263566,13.0837209 L76.7263566,9.50930233 L76.4790698,9.46434109 C76.344186,9.44186047 75.6697674,9.39689922 74.9728682,9.3744186 L73.7139535,9.35193798 L73.7139535,7.32868217 L82.5713178,7.32868217 L82.5713178,9.35193798 L81.1325581,9.39689922 C80.3457364,9.41937984 79.6488372,9.48682171 79.603876,9.53178295 C79.5589147,9.57674419 79.4914729,11.2178295 79.4914729,13.1736434 L79.4689922,16.7255814 L78.1651163,16.748062 C77.4682171,16.7705426 76.8387597,16.7705426 76.7937984,16.7255814 Z M84.3248062,16.6581395 C84.3023256,16.5906977 84.279845,14.4550388 84.3023256,11.9147287 L84.3248062,7.30620155 L92.1031008,7.30620155 L92.1031008,9.01472868 L89.6302326,9.05968992 L87.1573643,9.10465116 L87.0899225,10.8581395 L91.6310078,10.9255814 L91.6310078,12.6341085 L89.3604651,12.6565891 L87.0899225,12.6790698 L87.1124031,13.7131783 L87.1348837,14.7472868 L89.6751938,14.7697674 L92.2155039,14.7922481 L92.2155039,16.7031008 L88.2813953,16.7031008 C85.2689922,16.7930233 84.3697674,16.748062 84.3248062,16.6581395 Z" id="Shape" fill="#012E6D"></path>
        </g>
    </g>
</svg>