<?xml version="1.0" encoding="UTF-8"?>
<svg width="73px" height="20px" viewBox="0 0 73 20" version="1.1" xmlns="http://www.w3.org/2000/svg" xmlns:xlink="http://www.w3.org/1999/xlink">
    <!-- Generator: Sketch 50.2 (55047) - http://www.bohemiancoding.com/sketch -->
    <title>spid-idp-timid</title>
    <desc>Created with Sketch.</desc>
    <defs></defs>
    <g id="Page-1" stroke="none" stroke-width="1" fill="none" fill-rule="evenodd">
        <g id="spid-idp-timid" fill-rule="nonzero">
            <path d="M53.6688742,2.1192053 C53.6688742,0.98013245 54.5960265,0 55.8278146,0 C57.0596026,0 57.986755,0.98013245 57.986755,2.1192053 C57.986755,3.25827815 57.0596026,4.2384106 55.8278146,4.2384106 C54.5960265,4.22516556 53.6688742,3.24503311 53.6688742,2.1192053 Z M54.1324503,19.5099338 L54.1324503,6.67549669 C54.1324503,6.39735099 54.1854305,6.29139073 55.8543046,6.29139073 L55.986755,6.29139073 C57.5099338,6.29139073 57.6688742,6.39735099 57.6688742,6.67549669 L57.6688742,19.5099338 C57.6688742,19.7880795 57.5099338,19.8940397 55.986755,19.8940397 L55.8543046,19.8940397 C54.1854305,19.8940397 54.1324503,19.8013245 54.1324503,19.5099338 Z" id="Shape" fill="#007CBA"></path>
            <path d="M59.6423841,13.0993377 C59.6423841,8.54304636 61.9337748,5.82781457 65.3112583,5.82781457 C66.5165563,5.82781457 67.5231788,6.2384106 68.384106,6.99337748 L68.384106,0.503311258 C68.384106,0.225165563 68.4370861,0.119205298 70.1059603,0.119205298 L70.2384106,0.119205298 C71.7615894,0.119205298 71.9205298,0.225165563 71.9205298,0.503311258 L71.9205298,16.2516556 C71.9205298,16.8211921 72.1589404,16.9668874 72.6622517,16.9668874 C72.9668874,16.9668874 72.9933775,17.0993377 72.9933775,18.0264901 L72.9933775,18.3046358 C72.9933775,19.205298 72.9403974,19.4172185 72.7549669,19.4966887 C72.2913907,19.6821192 71.589404,19.8013245 70.9006623,19.8013245 C69.7615894,19.8013245 68.9933775,19.2847682 68.6622517,18.5165563 C67.7880795,19.4437086 66.5033113,19.9602649 65.0728477,19.9602649 C61.6953642,19.9470199 59.6423841,17.3245033 59.6423841,13.0993377 Z M68.013245,16.2649007 C68.2913907,15.9602649 68.3708609,15.5364238 68.3708609,14.8741722 L68.3708609,10.0529801 C67.7218543,9.28476821 66.9536424,8.86092715 66.0529801,8.86092715 C64.1721854,8.86092715 63.2715232,10.3576159 63.2715232,13.0860927 C63.2715232,14.6092715 63.6291391,15.589404 64.1456954,16.1854305 C64.6092715,16.7284768 65.3509934,16.9271523 66.0794702,16.9271523 C66.807947,16.9403974 67.6291391,16.6754967 68.013245,16.2649007 Z" id="Shape" fill="#007CBA"></path>
            <path d="M14.0397351,0 C14.4370861,0 14.5165563,0.0529801325 14.5165563,1.45695364 L14.5165563,2.75496689 C14.5165563,4.10596026 14.410596,4.26490066 14.0397351,4.26490066 L9.52317881,4.26490066 L9.52317881,19.3774834 C9.52317881,19.7218543 9.09933775,19.8013245 7.58940397,19.8013245 L6.79470199,19.8013245 C5.25827815,19.8013245 4.99337748,19.7218543 4.99337748,19.3774834 L4.99337748,4.26490066 L0.476821192,4.26490066 C0.105960265,4.25165563 0,4.14569536 0,2.74172185 L0,1.45695364 C0,0 0.0794701987,0 0.476821192,0 L14.0397351,0 Z M22.1324503,0.42384106 C22.1324503,0.132450331 21.7086093,0 20.2516556,0 L19.4039735,0 C17.8675497,0 17.602649,0.132450331 17.602649,0.42384106 L17.602649,19.3642384 C17.602649,19.7086093 17.8675497,19.7880795 19.4039735,19.7880795 L20.2516556,19.7880795 C21.7086093,19.7880795 22.1324503,19.7086093 22.1324503,19.3642384 L22.1324503,0.42384106 Z M44.1721854,0 L42.8476821,0 C41.1523179,0 41.0463576,0.185430464 40.9139073,0.476821192 L38.2781457,6.75496689 C37.4039735,8.83443709 36.5033113,11.0860927 36.1589404,12.2384106 C35.8410596,11.0728477 35.2582781,9.52317881 34.0397351,6.64900662 L31.4039735,0.476821192 C31.2450331,0.105960265 30.5827815,0 29.1523179,0 L27.6688742,0 C26.2119205,0 25.9205298,0.132450331 25.9205298,0.42384106 L25.9205298,19.3642384 C25.9205298,19.7086093 26.2119205,19.7880795 27.7218543,19.7880795 L28.5430464,19.7880795 C30.0264901,19.7880795 30.4503311,19.7086093 30.4503311,19.3642384 L30.4503311,8.13245033 L30.5562914,8.13245033 C30.5562914,8.13245033 30.6887417,8.66225166 30.9006623,9.13907285 L33.9205298,16.1854305 C34.0529801,16.5033113 34.2119205,16.6357616 35.615894,16.6357616 L36.5165563,16.6357616 C37.9470199,16.6357616 38.0529801,16.5298013 38.1854305,16.1854305 L40.9403974,9.40397351 C41.205298,8.76821192 41.3907285,8.13245033 41.3907285,8.13245033 L41.4966887,8.13245033 L41.4966887,19.3642384 C41.4966887,19.7086093 41.7880795,19.7880795 43.3509934,19.7880795 L44.1456954,19.7880795 C45.602649,19.7880795 46.0264901,19.7086093 46.0264901,19.3642384 L46.0264901,0.42384106 C46.0529801,0.132450331 45.6291391,0 44.1721854,0 Z" id="Shape" fill="#004A97"></path>
        </g>
    </g>
</svg>